<mxfile host="65bd71144e">
    <diagram id="YP104jGvnG59QZi-VL9p" name="Page-1">
        <mxGraphModel dx="760" dy="390" grid="1" gridSize="10" guides="1" tooltips="1" connect="1" arrows="1" fold="1" page="1" pageScale="1" pageWidth="827" pageHeight="1169" math="0" shadow="0">
            <root>
                <mxCell id="0"/>
                <mxCell id="1" parent="0"/>
                <mxCell id="2" value="" style="shape=image;verticalLabelPosition=bottom;labelBackgroundColor=default;verticalAlign=top;aspect=fixed;imageAspect=0;image=data:image/png,iVBORw0KGgoAAAANSUhEUgAAAd4AAAIICAYAAADAEY9sAAAAAXNSR0IArs4c6QAAIABJREFUeF7snQeYHNWVtr+qzt2Tk6SZUU4IBcCIHE0SSIDJWeAArLHXAePVrr1m7f3Xi3FYh8XggL0O2CabnIMECIskklAY5RxGmjzTOfzPuaMeTc90qLpVXdPdc+qxHiP1TfXdc+9b50alqakpMW/ePPT29iIYDKJQHrvdjsrKSmzduhUtLS2YNm0avF5voRSPy8EKGFKgu7sbHR0dOO+88+B0Og2llS5yIpHAvn378Oabb2LMmDFF3XYURQH94YcVKBUFlCR4CXCtra0F815lZWWYNWsWg7dgaoQLYqYCBN5oNIqPP/4YHo8HBEozH/qI/uVdv8QP7vwBIpEIVFU1M3mRFsGQPpDzCUXShT5Mmpub85qP6eJwgqxAFgVSwEtf4F//+tcxduxY0SlY+cTjcezauQtd3V146KGH4HA4UsA7deo0+Hzs8VpZJ5xX/hRIgvfDDz/Etm3bBBzNfHp6evB/v/s/PP7k46itrRVwN/shmPf19cHn84nRqXw8fX1+7Nq1E+PHj2fw5kNgTnNEFEgBLzXWF198ETNnzkQoFDL9KzzbG4qv/48+FsNj37jtG6KRJT3edevWYerUqSAvmB9WoBQUSIL3gw8+EKM64XDY1NeitvyH3/8BTz79pGjP+QAjfSyvX78eVVVV4mM9Hw+9x+bNmxm8+RCX0xwxBVLAS53Bs88+K+ZTydjN/grP9paRcATPPPMM2tra8Njjj6V4vAzeEbMPzjhPCjB4tQnL4NWmE4cqLgWGgZfgR94lwc5K8NIX/2OPPYb2tna89PJLcLlc7PEWly1xaXUowODVJhaDV5tOHKq4FCg58DoUIN36xxiAhEoLQlIriJa0JGKAyWtbissKuLSWK8Dg1SY5g1ebThyqf7EfPcmFirQGgf6N/k7TImY9lCZN3VRUVIj0aZ0DjdTqWSBZUuD1qcCS+ghqbakiRxLAS6oL+0/thbsyNIS8Cta8UIm2rTaz6oXTYQVyKsDgzSmRCMDg1abTaA9FI6Q0UhuLxcSaCRqtnTNnjlgbQIsXV69erQuM2fSklfxf/epXMX36dLFbgHYD3XHHHQgEApqroaTAW6EC9zYFMM4eTfF6QwkFf7P7sOvSPfDUtaeIk4irePfPU7F7tUuzaByQFTCqAINXm4IMXm06jdZQ5HHS4r5LL70UJ554opBh6dKlYq3SDTfcgCOPPBLvvPMOfvWrXwkoyz4EW9ppQ1Oi5Ol++9vfxoQJE0Ry1Ja/+93vYu/evWLrG3nXuRZL6gbv0MLbbLk9RSrIUPd/qABmzPFWDgLv4PTDUPBXWxK8bWnAO43BK2uRHE9KgUIDL20Jol0D9AXv9/uFp5lreI5XNUtVPUcySQGyVfJoFy9ejBkzZmD//v0gHtXU1GDVqlWorq7G5MmT8fbbb+Ouu+6SBi+lSVA/7bTT8O677+Koo44CHTqVZB+xbePGjVi2bBmOOOIIbNmyBU8++WTWLbm6wEtwfPSRR0XDpKe+vh6Lzl80UIBMei5/Y7k4fYqeE048AYcffviwoAxek6yRkykKBWTAm/x41XJghZ7tRLTH9/zzz0dTU5MAL5Xt+eefx86dO7NqyeAtClMryUKSnRL8rrvuOrGVjeBKNktt45JLLhHDzBSG/rz11luGwEue7Te/+U00NDSIj9Hk3PFgYZPzyMn287Of/UwsUM4076sLvHQazt2/vFt8DdNDDfVzn/+cOL0m20P0f3/l+yLIwoULcexxxzJ4S7I58EtpVUAveGmkib62ae7qhBNOyNnmtIKXvtppqI6OrqT/p2E06lxeeeUV0OEetL8+U+fB4NVa2xzOTAXoQ5E80IsuukgcDENDyzt27MCZZ54phnjp7+TcnXLKKWJ3DO2V/8UvfiF1JDKB/DOf+Qwuv/zylDZHzic5k5TfYYcdNrDQit6T2iod1frb3/42484g3eD99a9+PQDexsZGLL5+sfB4qYCDj6UbPCT97DPPikZMz7nnnotjjj0mb+D9zcE53sEZhA/O8e6+ZC/ctUPmeBM0xzsFe9bwHK+ZjYPTyq6AHvAS4Ogs9bvvvlscbHPrrbeivLw86zGQWsBLndJxxx0nhuPcbrdIj4bnKD/6Wk96C7t37077MrnAS30ClZPSPnDgQMrQNX2s0xnS7e3tWRel8Bwvt6TBCtCH4YIFC8QIDa0mfu6559DV1SXASCOw9OzatQuPPvqoOGb0rLPOEsB8+OGH8frrr4s4eh8C69VXXy0OoiGbJgf0vvvuw4oVKwRkybu++eabBw6poZGiBx98EO+9917G6Rpd4BXHOu7aNTB2TY2CgJqIJ0SDTQ47d3d1izHuJHxp/H3suP6Tbej4OhJv6GPGULNbVXD9GCeq7Kl7hqIJ4J1YDMH5fXCVDTmaL6Fg3XI32naaf5at3grm8KNHAa3gpZWSK1euFNM79BVNberkk08Wlx7QfFKmE6lygZc6EFqVeeGFFwqvgLxaSptgS3Cndj5lyhSR96uvvpp2vioXeKnDO/3008X8G81/rV27VuRDi1QI+LTw5Y033sBHH32UseIZvKOnTeR6U7L5L3zhCzjmmGPEBxvBjYaByZkbfIEO2RjB+OmnnxZOIi28Iua89tpr+Otf/yrsW89DbWX+/Pn42te+JmyXVkn/4Ac/EJec0EMfll/+8pdx7LHHCtA+8sgj4kyKbGskdIF3aGGpcf7h//4gGiV9vd50803i64L2NJFnnDyAgxr3p47+VNZ3NQO8itOD2BlfRsxbk5KXEo+iaccLuHnaK2ioSL2BKZ4AfvdyBVZtZfDqMUYOa0wBreClr2daGEIATp6fTm2MGvv1118vvrbTPVrAS4tEzjnnHNFB0FGtybljAjB5qrRIhWD51FNPpV2lmQu8yQ9tml6ihVs0BEidFuVLw+XkVROQs3khDF5jdlZKsckmabSHwPnCCy+I4ebjjz9efDime6jNEGxpKxHZINnSPffco2vbD6VLI7qUzy233CLAS23yzjvvFIu56KGFibS9iD4kqU08/vjjwuPOdt9BSYEXngrsue436Kgal1IPzmgYp6++F/d86i6Mr+kXK/nE4iq++ZfpWPaJ+VezlZLR87uYq4BW8NLcFS3USO4RJDjSkBp5ujTcRt6kLHhpiPniiy8W3jTBlkaj6Bl8DR9txSBgputEtIA3CV8qK80h0/tMnDhRAJg6z1xDfwxec+2umFMjuyQbJVulrULk+SbXF5GXO3jxYfIjkpy/l19+GU888YR49c7OTt37eSmf5CIuSoPSpBFd+mikshx99NG45pprBi4ioTwIvLROItMWJkPg3bNnDx584EGROH0dX3zJxeLrgNx8Wv2cbKz0VT133tysdW6Gx8vgLeZmNbrKLgteGlL7yle+IkaYknsLZcBLcchToE6FPAkaViYw0lc8tVvqXKgDoRWhyS/7ofloBW/yY2HRokXio4G8aOoMtRw4wOAdXe1Cy9uS3X7nO98RUyVJwH7yySdYvny5iE68IXumh2BsdFUzecsEVvJ2kw+1D2oXxD6yaRqBGnDmYjEB3T/96U8ZvV5D4KWGlxwvp8UTDz34kMiI5nuvvubqga8RKnCulc8MXi0mx2FKRQFZ8FJb+vSnPy22UNBJPbTFQRa8FI8+lGn+68orr0RdXZ3wfqkt0vYMM1c1UwdJH+dU5jVr1ojFYloeBq8WlUZXGALv7bffLi7zSYKX7hi4//77xd9pSDh5mIYZ4KWPXBpKphEiAi61waHnVyRZSAdo0ElWNEq1fft2c7YTZatemiO697f3CvDScMAXb/liyhdCLtNg8OZSiH8vJQX0gPfnP//5wN550oAWQNE2Chpumzs3/UhSrjnewVpSZ0ErRclLSB6gQV/sdChAtkerxzs4jeTZuVrrksGrVanREy6dx0vrEB544IEB8J500kmmebxks7NnzxaLGmmBI833JrcqUSbk9dIKZtpHTIuwCLi0gjpvi6sow+RwkbjO7++PCfDSkNVll1824OWSUIPd9HQmwuAdPQ2H37T/mDlqK7nu46UP2l//+tcp4CX9qE3RvJPsHO/QOqChMvJ8Cby0XYLKxydXsaUWogLEElphTAsLkx4vHRFJ86r0d1r5TIv36CEbppXzNOxr5MjI5GEclAZN95DHTR4wPTQlQ0dI0kpr8oSTOwSyaWdoqJnmeP/2178NLMy44sorRMZUkAfuf2BgfJuWe887Yl7WOjQFvA43gsdchYinMjWveBTj9/wDV4xfgWpf6oXjdCvRY2+XYcNeXtVciI2sVMukFbzJPbxDIUgdDK0UznRkqx6PV1ZjGY9Xb17s8epVrPTDk+3T8C8dF5k8O4IW7RGP6KHFe/R70hulhXw0Farn9qBsKlKbo329yUsSKN/f//73urYpGQJvoW0nKn2T4zcsFQW0glf2fRm8sspxPFYgtwLkddMf+gigeV/6owfsDN7cGnMIVsB0BRi82iRlj1ebThyquBTQBV4a36bNyJFw/+lP4UgYbQfakEACFeUVOPmUk8XQF61YpMnl5Jh6VWXVwMki4yeMT7sS05Sh5uLSnks7ihVg8GqrfAavNp04VHEpoAu8hX5JQnFJz6UdzQoweLXVPoNXm04cqrgUYPAWV31xaUtEgSR46cahDRs25Lw4W+9r06jT/X+9H0889YTYekRbhsx+KE06LIfmtgaflWtmPrTamvKghTRarkM0M29OixXIlwK6wEsTyK+8/MrA9Up0UMYpp56S9ZYUKjhtmdi2dZt4B1rdnDxVZPBL8VBzvqqY0y1EBQi8NIL0ox/+CMuWLst4fZhs2QmGlMeLL7+Y9YQr2fQpXvK0Hmq7+XroVK3koTwM3nypzOlarYAu8OazcAzefKrLaReaAgRF2qNL+3GTl4nko4y0zoLuzaaD3PPxWAFDPatF8/GOnCYrYLYCDF6zFeX0WAENCpAXR/DNN1RonyMdjJFpv6+GonIQVoAVMFkBBq/JgnJyrAArwAqwAqxANgWKBrx01yHNKY/0Q54D/ck0xEan+dDJXeTRWDEMN9J6cP6sACvACrAC+hQoGvD+z//8j5inouvEcp0hq08CbaHp4odLL71U3K5C/508qiwZO3n4O81V0zmetFKVVpPm6ykWqOd7KNWovrI6yryXbF6y7yhTRtm8ZOPJamLVu8mWT1YP2XhW6SFbPlkdZd5LNi/Zd5MqY1NTU2LevHnYunWrmHN6+umnB67uyueij6EvScCiy4rpoGmCKy06mTVrlijXunXrcNddd4GOqFzxjxXwuPMHtEzi7967G3feeSdIK7o+jcBLXi1do0bC00cBXX1I77FkyRK0tLTkbYvFYNjLGotV8WSM0qqyUT6yjVTm42/wBfNWvKOV2svkJauHTF5G9Ja1ESN56o1rtSZ6yyeroUw7G+oU6S2r3vAy2qd4vF2dXfjf//1fjBs3Di+99BKCoaDeMkiHJ4H37tkrQLb8zeUZwbt+/XpxOLzVD8H/e9/73gB4qbybN28WewzpIfCSN0wGxuA9VDsyRmll3VrZIciCRlYPK7WXyUtWD5m8ZDU08nFmJE+9ca3WRG/5rGxnRQdempv83ne/h/r6erz44osDV/7pFVk2fMAfQCAYwDvvviP2CKbzeGkIN19bI7KVeyh46YAC8mppu0ayA6FbMWgemsHL4E1nS7KgkW1PVnbGMnnJ6iGTl6yGDF4jyh2Ky+BN1THF492/fz9owzp9MYRCobxvdRhapdSg6A8N15JXW8jgJU+XvG8qb9KompubxUcLg5fBy+DN3WEzeHNrpDWE1R8jWsuVDMfgzQBeus+QLrMvlIe82mnTpg2b4y0Uj5fBq81SuENI/eqX7YC0qZ0aykrtZfJi8MrUavo4Mvqbl3vulGTtvuTneOkFC63yaNvOli1bUhZXJcFLFUmLnGgxFj10SAAdqJ7cxpMc56d/DwQCA6cDyb7n0KFmBm/uxkYhCs2mhpbayg5BFjTalB4eykrtZfKS1UMmL1kNeajZiHI81JxJvYGhZnPkNT+VTOClVc9XXXUVHn/8cXEk3oknnoiVK1fik08+EauJyVsm+M6ePVushiZAU4MlgNICLr0Pg1evYv3hre4k9ZaSwatXMfM8LgavOdpzO0vVsagWV5lnAuamlA68lZWVArRnnXUWaIictvHQQieC7bZt2/D+++9j/vz54qCL6dOnY+/evQO3qLz22msMXnOrKGtqDN7Ur35Z0MtUmZXay+TF4JWpVfM+fMzLPXdKsnZf8kPNtKJZxhPMLblcCLpyjA6qGLqPl4aaaeEVQfaGG27AgQMHhDdLC5sIwrRAbPXq1TjppJPEQjGCMu1P3rNnDyZMmIC///3v4u96H/Z49SrGHu9QxWRBI6e8taMNDF7ZWjInnoz+5uSsLRUGb6pOKauaW1tbsx6HqE1i+VBJ46EtOtlWNRNQyeM9++yzBVAJvJMnT8bHH38sVkQvX74cDQ0NmDt3LmbOnCngTHO/9DsBlNLX+8iAdyS2Pel9r3yHl+kQZBtpvt9lcPoy70Xxi+HdZHRkPWRUMy+OjP7FYIul+l4p4CWv94477hDeI4HKyodguHXLVnR0dODXv/m18FQzbSeivbLHHnusOMyCIEvzuDNmzBDHNNIcL3nJ5PESfGtqagR4qQLpnZ599lmx2Ir+m4aiaSgjeQpVtvfVC14rDvqQGYaxsk4pL5mGY+VNOsktbFbrku/8rPauZd6HtJdZ7JjtrHSZcuSKU4rtjOzDyrlQbmdZPF4agqUTq8hLpEu6ZTrNXEac6XcC4UcffiTuKP3mv3xTeAbZ9vHSOcjXXXcd3n77bUyZMgU7d+4UQ8kEvO3btwsw0yEcZFwE3sbGRjHP++GHHwpPmOaBDz/8cAHrSZMm4YMPPsj6scHglatZGRti8MppPTgWg9e4hskUGLzGtWTw5gDvM888IxYkEZCsPKs5Eo7gqaeeEnuJn3r6KdAcbzbwOhwOLFq0SGwh2rhxo5jfJe+Wyr5mzRpUVVUJiM+ZM0dAmT4qCL4EZQJyX1+fuMSADgqhvJJnLmcyMQavXONj8MrpZjQWg9eogofiM3iNa8ng1QBeOnOYQGMleGlu9rHHHkN7WzteevmljGc1Dz5AI+kZDR6uIg832dnT/yf/Tv9NnZEMCEgyBq9c45PRmz1eOa3Z4zWuW7oUGLzGdWXwlhB4jZuD9hQYvNq1GhySwSunm9FY7PEaVZA9XvMU7F/rIdMXmFmGfKQl286K5j7e5LWAxXJkJC+u6jdzmcbGHq/xLkK2QzCes/YUeHGVdq1yhdTbznhxVS5Ftf0u284YvNr05aFmjToNDaa3Q6D4DF5JsQdFk+0QjOesPQUGr3atcoXU284YvLkU1fa7bDvLCV7a5iOz71VLsanQtG2I/l9mjldLHmaF4aFmOSX1dggMXjmdh8aS7RDMyV1bKgxebTppCaW3nTF4taiaO4xsO8sJ3uVvLMd7772XuwQSIWh18eLrF4v7dbWCl1Yo08UHVj+0Dek73/mO2DtMlzPkuiSBh5r7a0hvh8DgNceyZTsEc3LXlgqDV5tOWkLpbWcMXi2q5g4j285ygpf29b65/M3cJZAIQdt5vvTlL4mjHbWAly6fpwMzyEu2+qFDN2677TZxWAeDV7v6ejsEBq92bbOFlO0QzMldWyoMXm06aQmlt50xeLWomjuMbDsrKvDSJfMfvv8e4ol4bkVMDmG32UGXM1x0yWWYOHEie7wa9dXbITB4NQqbI5hsh2BO7tpSYfBq00lLKL3tjMGrRdXcYWTbWU7wFtJQc1vrXpxQtxtNTc2AquZWxewQqh01R16GmrGTGbwatdXbITB4NQrL4DVHKA2p8D5eDSLlCMLbiVIFygneQlpcdaB1D67+lB1j1Z2I+/cYtwbFDiTowoSEprQSqgvxY76H8sbDGLyaFOM5Xo0y5SWYlWfxyrxAMXi8xQIMvR+4Vnu8xfDxImPDefN4ZQojE0fLHK8A73wX6nteR+TAGzLZDMRRnWPgnn4NIq0f9qeV0HAphK0CtnOfQfn4I3KCl+4HphuW8vnobWz5LEumtGXKKGvMMu8nUz7KRzaelTfCWJmXrPYyOhaDfcjoYSSOjI5WfpjJlK+U21lOj5cuS6DzjPPxUAMiOJEBWApexQ7vzH9C2en/D9EDa9D51NWIh3bmfkWd4C3UawFlG0FugUZPCFkNCx2GsjVYqu8lq4esfcjmV6rxZHQsBlvMCd6lry7FihUr8lKvtKr5pptvEvC1EryqZxKqFt0HR9MxSIT70P38VxDc+lBur5fBmxc7KMZEZToEes9i6BRk6qNU30tGCyOemmx+pRpPpp0Vgy3mBG8hbSeSHmpWbFAUB0D/r3rhmnQRys/6IRSnj8YMEd78KrqXfQPxwE4x55uged9EZPjcL4O3VNu37veS6RAYvLplLtoIsvZRtC+cp4LL6MjgzVEZevfxSoFXccLZcBqcE86AvXYGbFUToFY0QvXUkv/RX8JYBLGurYh170WscyMiez9EaNOjiEcPpMKXwZun5lV8ycp0CAze4qtn2RLL2odsfqUaT0bHkgDvtq3bsGvXrrzUKx2EceRRR4r7cPM11Kw6xqHi7HvgmnIWoNqE15vxSSSExxsPdKDziesR2f8aUflQcAZvXuygGBOV6RAYvMVY03JllrUPudxKN5aMjiUBXquqNF/gheKEa/IVKD/te7CVN9MkW/ZXigYRWPMIepd/G/HIvtSwDF6rzKHg85HpEBi8BV+tphVQ1j5MK0CJJCSjI4NXR+XnDbxUBtUNV/MFqDjjB1Arx2cuVSwC/wd/gH/ljxELbh8ejsGro0ZLO6hMh8DgLW2bGPx2svYxehTS9qYyOpYEeDdt3IRt27dpU0lnKIfdgeOOPy6vQ80DRVI9cE+5EhXn/AyKwzu8pIk4wtvfQNeLX0TcvyX9oRoMXp01XLrBZToEBm/p2sPQN5O1j9GjkLY3ldGxJMBbEquaRR3b4Gw8D1UX/RmKw5cevFteQ+dzVyAR7U5vFQxeba1lFISS6RAYvKPAMA6+oqx9jB6FtL2pjI4M3hzaWrKqOVkGxQnf3FvhO/Xfodhc/f9Kly0oh858jnVsQvtD5yAezHCYBoNXW2sZBaFkOgQG7ygwDAavqZUs085KArzLli7DW2+9ZaqYycToPt4bb7rRkgM0FNWNitPugXvOVWLlcrR9A8LbXoe9ciIc40+E4qpE3L8PHY9ehmjHu+zx5qXGSydRmQ6BwVs69Z/rTWTtI1e6o+13GR1LArx0XGS+j4wkofK6uIqsVXWj/OSfwznhRIQ2PI/A6j8j1rcZqq0cjuYz4T3qC1DcFeh+/ksM3tHWuiXeV6ZDYPBKCF2kUWTto0hfN2/FltGxJMCbN0WHJJx38EKB6h4Pxe5D3L8dibj/0AIqxQ7VWQ/VPQbRnrVAPMPZ1HkcarbCWJJGbJUxy+Rjlb2NVD5WHkw/Uu+Y73yN2JVV7Uy2jDLlk80r3/U0kukXejvLeWSkVeLlHbyKE4rqQiIWgGLzIEFwTYQHXo+OkoRiRyLWk/mawDyB10ojoeu59F7RRZ2BzZbl4JEMRkIdgt68isUrtLLOrGqDxZIP2ZUMbKysM25n5liTlXVmTom1pTIqwKu6xsPZeDocY45CaNtSuKcuQHjnPxDe+ybioV1Q6JCNSZfCUTsbve//oN8bFtcEDrmntwTASx0W3bGs52HwDlerVDsEPXYxUmEZvKnK8wfuSFmifL6jArz2yqPhPfKLcM++DAn/ASi+BgRXP4zg6vvhnHQGbOWNsI85AmrZWIS3LkXc346+936CeGjI/mUGry5L4w5Bl1wcWKMCDF4Gr0ZTKdhgw8D71FNPYcqUKVizZg0iEbqhx5qHhpop7/a2drz8ystwuVyYNWsWtm7dinXr1uGuu+6C1CUJdBWCvQ7uKZeg/Mw7EQ92wOarR/eLtyG0+XHA5oOj6XRUnP6fUDxV8L99FwJr/4q4fxMSg4aihQoMXl3GwODVJRcH1qgAg5fBq9FUCjZYCni7Orvw05/+FGPHjsULL7yAQDBgWcGpMbUfaIc/4Meb/3jTNPDSMLJn3m3wHn0zVF+D2LurqDbE+/bBv/J3CG9birIzfwhHzVRAtSMR6kHPG3cguOl+IEELsAY9DF5d9sDg1SUXB9aoAIOXwavRVAo2WAp4Ozs7cft3bkd9fT3oxKpgMGhZwakxBfwBBENBvPveu6A9vmZ4vIpaBu/cr8Bz1OehOMugOsuRCHcLwAZbnoKtajJsFU1QPTVQvTWItK4FEEfPq99CpONtS24nsnK+kOd4zTFpK+vMnBKXTioMXgZvsVtzCnj3798Pr9cL6lRo6Fdm5aBRQShPGuIuKyszBbx0MpWz7lR45n4Wim8MbGVjEOvdi7j/AIKf/BWx7vVAIgHXzKvhbD4RPUtvRSIRQSLUhkS8z5L7eK3sxBm8Ri20P76VdWZOiUsnFQYvg7fYrXkAvDt37kR7e3vBvA99AEydOtWUOV6oZVAdtWL1cvJJJGJIRPcf3D5Eo8z1UGzliIW2Co837cNDzbrsg4eadcnFgTUqwOBl8Go0lYINNgBeWWPO55uRV7FlyxbDi6tMKyODV5eUDF5dcnFgjQrI9lVWjlLwPl6NlZkjmJV1Zk6JtaWiVFdXJ8aPz3JHrbZ08haKhr/37NljaFWzaYVj8OqSksGrSy4OrFEBBi97vBpNpWCDKZmPaSqsMhvZTmTamzB4dUnJ4NUlFwfWqACDl8Gr0VQKNpgyd+7cIccz5b+sNHygp/FQ2FtvvRXbt27C1fNdqO95HZEDb+S/oENzYPDq0pzBq0suDqxRAT19x+AkrRy25KFmjZU5WoeaFy5cmBG8ZKg+XyX6+rqkztw1R3padJzAtddeiw0ta3D10S5Ud72GyIE3zUpeezr2cjjDJKcPAAAgAElEQVQXPo2K8Ueiq6sL69evF2VLHmze3NwstmItWbIELS0t8Pl8mtLmDiFVJpmD4jUJbWIgK+vMxGKXRFIMXvZ4i92QlWzgpQ7Q6XQjHA6OyNaipLiDwXve1F58/NbzaG/bZbn2NocXFy55HBMPO9pU8FoJGis7Ldm8rNZDxpAYvOZ8LMlsWZSJQ6W10q5kLgehMsrYVam2M6ovK+tMph+QjaMJvJR4IhFHOJzhurwsufeLpyIe13cw/+Akk+Ddvm0r3n/lfnS07x8RD5w+Qu64+yHMPuJTpoK3X1/LR/xlbaYg48k2UNlOS6aDNCJcIdsHaS+jh6z2sjoWsoay72R1PG5n5iieEbwEy+rqWuHt9vX1HySh13Dtdoc4gcrpdKGzs10alknw0lBub2+vOW8ukQp1LrNnz8aYMWNMBa9eXSWKXvJRuEMYuSpm8I6c9lbnXMrtzMp+OAt4aZjZJbxc2QLRHa42mx2RiLFTsJLgbWpqEsAbqYfAO2/ePHGWtZlzvLL6jpQOhZhvKXcIhT4iwuAtxBaRnzKVcjuzsh/OOtScn6rTn2oSvJu3bMOKzUFUVlZCoY1QFj8Ouw23fXYRZk6dwOC1WPtc2ZVyh8DgzVX72n63smPVVqLiC1XK7cxK+ygq8K5ZtwGYcREi3nEIxYzPiaoH4R3XmJRdTeALR9sxtbGCwVtgfUYpdwgMXnOMzcqO1ZwSF14qpdzOrLSPogOv/fCL8fr+SizfK39zUrlNwcwqB2bVO+GPxLG6NYzNvTGEcyxwqrArePaaShw5uZrBW2B9Qil3CAxec4zNyo7VnBIXXiql3M6stI+CAS9VaKYXTw41k8dL4F3WWonXJcE7xq3iq8dW44bjq1HjsyGeSGBjaxg/fOUAHl3fi3AW75fA+8I1lThqCoO30LqEUu4QGLzmWJuVHas5JS68VEq5nVlpHwUDXrfbIxZypdv/ZhZ4PaqCJSdUY8k59fA6D00SE2s3t4bxTw/sxrK9QWQaxWbwFl5HkCxRKXcIDF5z7M7KjtWcEhdeKqXczqy0D2nwEqzCERtcDvn9uWRWtDeW9gjTyudMj1ngneq14akbJ2DWONewrGLxBJ74qBc3PLobvRnIy+AtvI6AwTvydcKrmke+DqwqAYPXHKWlwRuLK6A/TnuGu2s1li8at0NBAjY1M8DNAu+8SgeWfXUSqr22tKVbsyeEk3+9DR3h9O/E4NVYqSMQrJQ7BPZ4zTEoKz0ac0pceKmUcjuz0j6kwWuWSURidihKAnYLwHtYmQ3P3zIJE2scw4pPK5tf29CHi+7bie5o+oleBq9ZtW5+OqXcITB4zbEXKztWc0pceKmUcjuz0j5GHLyJhAKI/2Ve1WSWx1tjV/Cjcxvw2ROqYEvuJTpo2219Mdz2yF7c39KTcYEVg7fwOgIeah75OuGh5pGvA6tKwOA1R+m8gjceV6CoCeKqoccs8KoA5lY78B9n12PB4WVw2ftx3xmI4Z7X2nHX2x1ojyQyfgIweA1VY14jl3KHwB6vOaZjpUdjTokLLxVuZ+bUSV7BG42pUNUEVEXjCRUZ3skoeAn8PruCOVUOzB7jomOnMbbcjhljXQhFEnh/ewA2G7C3J4qWA2G09EYRSTPNmy/wylal7MH0sjen6C0nlU+2oerNi8LTe+ntXPWGN+JhW62HjIakh1WayOYj816ycfovedHvOsjYomwZrbSrpH3orTu94Uu9neUVvLKGNDSeUfBO8tnxrdNqcP7cCtSW2RCOJrD5QBgd/hicqoIxlXY0VTmEp7tlfxi/ebMdv/mwG6EhR1oVEnhlOwTSksF7yMK4Q0htbUbAa1Z7L6R0ZNuZVeBNlk/m40BGZwavjGrD44wK8H5tfhXuuKABXicNNud+NrSGccG924XnO/hh8ObWbnAIK7/E2ePVVzeZQjN4U5Vh8Kb/MNP7wao3PHu85rRnQ6kY9Xh/fnY9vnZGreYy9IXiOO0XW7CyI8Lg1aza8IAM3lRNrNZDpuoYvAzebHbDHq9MqxqlHu83jqnC7ec2wDPotKrMX/zAtrYILv79NqztTd1bzB6vPqOzGjQyw3v8JZ7eo9FX06Ubmj1e9njzYd0jNtTscrnFEZF0Z29ZWSW6ujrECVbpHqMe7zi3inMm+zCm3C62LmV74nFg9b4gXtkRHHZpAoNXnwkyeNnj1WcxhReawcvgzYdVjgh4VdUmVgrGYlEQgJuaJmHr1g2Ix9OfXqUHvEmuGltHnV5qBq8+E2TwMnj1WUzhhWbwMnjzYZWWg5dASyCNxWICvIqiwm63IxqN6L6diFb5V9tUOGjNlKKg0afi0rkV2NQawSPre1DtUtEbTqAjGk+7N5cgXedQMaXSga09EbSG4jhxrBvlTgVLdwRBsZyKgmA8AfokYPDqM0EGL4NXn8UUXmgGL4M3H1aZEbzxhIr+w50yn8VMwCRwEkC1blGhznjwAg6Hw4Gqqjq0te3LmEYmj3eMQ8WXj6vG5FoHFCiYVOfApFonVmz247svtOJ/LxmHh1d24c9rehAYsjXIpgATy+y46ehKHDvJix++fACr2sK4/fRaHD7GhYc/7EK5S4VNUfB/73dhTzjO4NVpgQxeBq9Okym44AxeBm8+jDIjeMMxJ+rr6tHXsw/RaOq2mv6CKHC73YjF4hg/fjJ27NiCSCSUjzIKUF977bUYeh+vW1EwtcwGlx1wqQr+a9FYlLsU3PjQbnSF43j0hvH404pO/H5VNwi0dC1gWzSOOruKIxuc+PY59Rhf48AXH9iND1rD+O+z6nDqdB/GVNjx0MouHD3Bg33dUdz86B6UORRUOhXcc1E55k6sQldXF9avXy/KltxD19zcjPr6eixZsgQtLS3w+Xx50UOoL7mxn/fxDu9IZCpJZt+k1R8iMu/Fq5pTVZNtZzIL/WTqi/fxDletGNpZRvDSrUF2uw31tdVoa9ufYf6VXOIEnE7Xwav9UrffDJaEFlHR3G4kQmH0zcDmmuN1KcCZTR784rJx+P2KDvzknQ7QhfdP3DAef1jRiec39OJLJ1QjkQAe+qgb/3xKLabVO+GyAf5oAov+tAO9kQSqHQpm1zrxl+ua8dTHPZhQ48DP3mhDy/4w/vW0WkxvcOLw2hDG1JQzeDX0ElY3AJnOjlc1p/doNFTvqAjC4GWPNx+GnmOOV4HNpiIcIVDS1X36gJksMHXA1dV16O7uOAhefa+SDby1ThVnT/Lgm2fWYd2eEP7t+VbsDMbR5FHxzOcn4B+b/PA4FBzZ7MZ/Pr8fr+0IYHK5A6FYHF88oQbzmlxY9Oed6D14I9Ekrw1/vroJz63qxQOrurA9GBOD7WOdKiodCv58aQXmTWaPV0sNMnh5qFmLnRRyGAYvgzcf9mn54iqZl8gG3iXHVePKT1Xg+VU9+PXKLuwI9K+MbnSrePDaZjSU2/HKul784d0OfNAeQfLGvwpVwb+fVou5TS5c/sBu9B38ocGp4v+dWS8+NL754n70xg59bPDiKn21x+Bl8OqzmMILzeBl8ObDKg2B12azo7q6Fp2d7WJVcr6ebOAd41Lhtqs4EIyhbxAkaU633mVDPJFAIJYQHu1gf50GySf77GIF8yedESSj0rD19EoHHKqCVR3hAVDTu+kFr9fr1SSJzHwhJSwbT2Z4VSaObKelSbQ0gWTKKJuXEf2N5FlKca2cT5ZtK7LxZG1RJp7MZSlG7EimjEbyk60DI3nmO64u8JIAg0Wnv1dWVsNud6C9neaBM6+ANvIiueZ4jaStJ64e8K5btw5awWt1w9HzzsmwMo2tGBqM1R8H+WojMnWaLo6VeiQX+snYlsz7cjuTUc2cOFZqb+UHnaw6msFLcK2srEF7e+uw/bbk+dLhF/lqQAxe2eo1L55M3RYDeK3sEKg2GLyHbJLBO7x9cjsz3meVFHipgxo3bgL27duNaDRsXB0dKTB4dYiVp6DcIZgjLIOXwZvNkridGW9nJQVekoO2A9F5yjLGkU3OpGeUKV0Gr3FjNJqCTJ2zxztcdQYvg5fBa7Q3yh6/KMFLQ8q05zYUCmpWhxYt5bh7IGNa1Dk3Nk5EMBhIO4xNERm8mqsibwEZvOZIy+Bl8DJ4zWlLmVIpOvASBF0uD8LhoK65qFhcharGpeFLB3BUVdWgs7ND5D30GQze8MRz8cIne7Buf1d+ay9N6j6HDc9+42R8amZjzgM0eHGV/KprKyuW53hT1ebFVVZa3/C8+APXuP5FB16ZVyYPmc5qljGYeEKBqvRv8nE63WhsHI9du7YOO2QjCd51LRvw9Cd92LJjJyKx9DcZybyD1jgelwNP/O8SzJ93GINXg2g81MxDzbm8O5nTxjSYXtogVn9kyZRTph/ldpaq9KgAL3mrdONQT49+DzQQccFlDwv40sro2toGUONobd2TckRlErzV1dXYtn2HFORlGsHQODbVhrPOOgN0JnOus5rZ42WPN53N8VAzDzXn+hjR21cxeEcheKnSHQ4nIpGwbiD2gzcCVenf/0s3HVF6Q+/lTYJ3woQJCAa1zz3rNeBc4emjYMaMGWhoaGDw5hLLwAEfGpI2LYjVXhCDl8HL4DWt+aZNaFR4vEYkDEYdcKoRKAeHmzOllQTvnj178OSLf4fdZjewnEu+xE6nEz/4zx9i9uFzGLwaZOQvcR5qzgUZHmoe7q1paFopQbidjUKPN52RpJun8Hh8wiuWOVoyCd6WDesw9ZRa1Iytgqqoeu3TcHjKc071SRhT08Tg1aAmdwgMXgavhoYyKAjP8erTKxN/ZHQ0nrP2FHKeXEVDcT5fecY5XK0v6PF4BXT7rwXU9xwCbwtmn9WEDuc2tPp36ktkUGgFCmyqAy6bG/FEHOFYELFEujuHU7OwKw5cNvXrmNQwk8GrQX0GL4OXwauhoTB49YmUI3TRDjUPhil1nrTwScZTNUvNweCdc3YT9ts3Y2/vVt3J0xyyx+FDnbcRR449DdNq5iEcC+HDPa9hffsH6Ay0IhILI/U6hUPZ2FUnrpq+BJMZvJq0Z/AyeBm8mprKQCCtjszgVLmdpWpcFOA977zz5C7Z1WdPhkIbBa9NtaPO04R5Y0/ElOrZqPWNQzwRw97e7fDYfaj2NAjg7uvdjjWt76LlwPvoDXcMA7Ae8La0tMDn82l6b5nGpilhDpRTASuvLqR65sVVh6rEaru3Or+cxjeKAtChTFY9RdHOrADv0FuN9FaAUfAeVn8MLpjxWTjtHuzr3YHNHWsEXNv8u6EqdkysmoHptUdhUtVhqHDXYHf3Zty/6qcIRHpTisrg1VtzhR+ewTtydWS1p8bgHbm6ZvCmaq/kE7y0WFm12WB3OBCNRuFwOBAOBIB4AnG6MFfjYxS8Z0+9GidPvAArd7+Kd3a+jP19uxBLHJprpjlfl92HpvIpOGf6NajzjsMv3/4XdARaGbwa66hYgzF4R67mGLwjp73VOTN4s4CXGsKYMY0HD7AwfrduIg7Q4uPkXt+amga07t6BYFCF00M/aqt+o+A9Z9o1OHXSRYjFo+gI7sf2jhZ8tG85dvdsgV11YEbtkTi84Vg0lk+B2+ETF0Hc9dY30RHYx+DVVkVFG4rBO3JVx+AdOe2tzpnBOwS8CxcuTCSHYKghVFXVorOzTfdhGEMrko6D7Ar4UO09NFxLnVw0lhj277mMwCzwJvOh9EIxP/b17oTb7kW5swo94Q5s7Vgn/j6z7ijc/c6/MXhzVUwJ/M7gHblKZPCOnPZW58zgHQLeyy67POH39xkG7dCKTCQU+MMu+FypJ03FEyra+8pRV6b9iEmzwTu4rJ3BA3hl08PY0PYB/JEenDBhIU6fdDHueedbDF6rW+cI5MfgHQHRD2bJ4B057a3OmcE7BLyLF9+Q6PMH4A9EYVNCeV91GY+raOurQH15p+a6zxd4advQuv0r8dAnv0AkFgLN9Z408QKcNukiBq/m2inugAzekas/Bu/IaW91zgzeIeC96qqrEtGYgmBEhdcZQTgcFodc5GvbAw1B94XdKHcFNNe9UfCeMeUKfHrKpQKsgx8C75r97+LhVb8Q/1zrGYfTJl+MabXzcM/b/4bO4P6U8LyqWXOVFU1ABu/IVRWDd+S0tzpnBm8a8NI/JRK0CKr/R4IuAZj+mL0Evy/kgccZGrgYQYsBGAXvpKrDcfHhXxT7dQcfNdnv8b6HZ9ffh/mNn8anGk+Hy+bBxvZVeHTNLxGKpn4cMHi11FZxhWHwjlx9MXhHTnurc2bwZgBvuoqIxWLC+zUTwNG4DTY1pnVBsyiWUfCqig1V7nocVnc0jmw8DQ2+ZthVumghgZ5Qpzgy0m33YUfXBnyw5zVs6VgDf6R7mCQMXquba/7zY/DmX+NMOTB4R057q3Nm8OoAbxJ6vb29eRt61mIARsGbzIMAXOGqxbyxJ2HOmBNQ7x2HWCKG7Z0b8P7updjQ/hHCUb8pR0byyVVaanbkwzB4R64OGLwjp73VOTN4dYKXhp37+vpGBLy0MpquDDQLvMlXpzOby5yVaCybimDUj719Ww8OK2c/PZM9Xquba/7zY/DmX2P2eEdO40LJmcGrE7x04pTf7zd9rleLQYQjdjjsMZp1xrXXXouWDS3Qe0kCLajKdOkBAZgmtzP9PrSMDF4ttVZcYRi8I1df7PGOnPZW58zgHQLeK664IkGdT6bHavDG4qpY5KUqcSQ9XoIjgXddTvAeWrfsdVag3tcs5nFp7pZOo0r+2o9a8qRzn85Ftxl5HRXi+EgaqtZ6O5GeoWarG0Gh52f2gr5s78vgNccarIaoOaUe3alY2c4YvEPAe/755yecTifsdrs431EdcowjLawKBoOWeby06tlui8JlP3SWspahZmr4tB2ITqEi2NZ6m3Da5ItAB2Qs2/J3jC2bBJ+jTLw93Uy0uX01tnatFf9NQKbLEuhOXoJ+0iDJwz114mcwrfYIvLDhr2JYesH4GzCxfnrO+3j1gDfbh89o7Bpkt7LJdiRWQUP2ujLZ8snGk7E5K21Y1j6sLKOMhlbHkdWR29kQiCa3A+moQGXBggViYjOa8MLpUFHus2GwgWYDrz0URdyhIp7FY9ZRFhG0N+iFzxUQc7vJRwt4yRulbUO1vrECpM0V08R9u4+uvlucv3xc8wKsO7BSwHN67RHoDXXhpU1/E4utDmuYj0pnDVa1rsCEqsPw0Z7X0RvuwuH1x+KkiYuwuW01ptXORSDihy3sQlPtJAav3orVEV4WULIdgo6iGQ4qU0ZZgMrG0/uSlI9VeVHZZO2DwZtas7I6ytiwXpsyEl62fLI2LBNvALxdgXKUu/2w2xJwu93iJiEyVPJ2Q6FQig7xhAMOu4K2bgcqvX0D+3+NiJWM2xs6CF6kLnQSQ83r12ma47WrLlww8/MCwvd//FNMrJyJI8adguc3/AU9oQ5xYQINIb+08X5Ue8fgkllfFEAmsFa763DfR3ciAQXnz7gBWzrWYltXCy6b/WWs2vsPTHTPxaSGGQxeMyo7Qxql2iEkoaFXOpmGTXnIxpMpn1V5MXj11k7m8KXazooKvO19laj09sKm0GImgMbkaQiahiNoL+/gR3zhqnbs6ShHQ0WHWL5k1kNnOdP87uCHykLgXb12dU7wOlSn8FRPm3Iplm5+FJ+0/gOz6o7Bp5o+jdc2P4beSBeOG78AdsWOFzb+RQw1V7sbUOsZg3OmL8YHu5dixc7nxPwvze3SgRrnz/gcIvEwnl3/J1ww6Z8wqWEmg9esCk+TTql2CAxec4xG1j7Y42WPN5sFyn48ysQTHi8tYuoJeoXHO3iIlwqZyVjp6Ee67KC2rMdU8GYSRovHS4dkHN+8AJNr5uC9Xa/iw73LEImFMaP2KJwy6TNo69uDaDwiPGG6meiVTQ8iGg9jUvUsHN+8EL3hTizb+og4VIOeydWzcVzzuYgnoli29e9o9+/Ly+Iq7hBGR4fA4GXwmqOAOanIfsDIepTmlDp3KrLlkwGo7MiSAC+tJA7HHPA4UoeUc83dDKw6zq2FphA0vBuLK7CrqR6vljleysDrKMekqlnY17tNLKqiwzHooTt3HTY3YnE6ArP/73EkEIr20YAc6r1N4jrAfX07EI4dOiayztsEn6Mce/u2IxT1I1/biRi8DN5C+RLX1FCHBMrVT8ikmS2OLDC4nY2OdlY04KXh3WjcDqctnFIzZKgEQzOHkrM1KDpO0k8XKJDnPWj4Wit4xddHln27mfPu32g0fD9v6r8zeM3uQtOnJ9uxyjY4a96qPxeZMlr5JS6jBYNXRrWRj1Oq7Uymjcl6rrLxBhZXDTUDgq7whKMOcamBFU+MwBtxoYxWNUuCN5/lZPDmU91DaZdqh8DgNcd+ZO2DPV72eAtlZCkFvDR0TK4f7eWlr1iax43E7Cl7arU2nUzD0LRgixZrZfoqSRdPj8ertXwy4Ri8MqrpjyPbscp+6eovoXwMmTKyx2sOMBi85ugoY8PyLUZ/TNnyWdnOUsAbjDhhV2NwOnKvUiYjpj90stXQh4anCaBDVydTOJfLffC2o9ynRiXTZfDqN75ijsHgTa09KzsEGbvhoWYZ1UY+Tqm2s6IDb/+VfQnYMp8gOWAtlZXVqK8fh82b1w27QCEaVxGN2eF2pM4ZazE1asRDhWPwalGudMKUaofAQ83m2KisfbDHyx5vQQ41U6G0GicdsDFhwjRs2dIyDLw0N0wQH3zso5YmR9D1+crQ19ebAt/B4J11xjhs86/Bvp7tWpI0NQztEf7c/O9g6rhZvI/XVGVHR4fA4DXHaBi8I6ujrEdpTqlzpyJbPitHllKGmvUMGVFYr7cMfn8qJHPLkj1ENo93XctadHi2Yd2GNeJELasfp8OJn9z2W8w57AgGbx7Fl+1YZRtcHl9lWNIyZbSyQ5DRQk+/IZP+0Diy9qHVqTCjjMWQhqyOMjZspR6y5bOynaWAt1ANM+nxxmIxvPraq8NO0rKqUsnLv+3W2zBzhrknV1nZcckapVUay3qFRuJZ9W5WNmyr9bDy3WQP9+d2NnxkScb2C70PsdIWZdvZAHitNMp0lU3HQiqKDeFIdNiirCR4p06dKrUPUsa40sUhjSZMmIC6ujpTPV6zyqc1nUJvOFrfw4xwso1UJm+r25gsoKyyDyu1l6kvI3Gs0tBIGa2Ma2VdW+1AyrQz5eKLL0n4/X2a53bzVVnkTdpsDuzrUFHu7oOa5naiQCCIl55/NV9FyJmuw+nAkn+7DYcdZq7HmzNjkwNwp3BIUCs7BAZvqiFbqb3JTShnctzGRq6uiwK85513XoKMRE8joK1C0ZgKh73/SEYzH9rS5HKExUlSyWdgcdW6jahXT8TY+sb+zcYWPzYbcPRZtRg3vpo9Xou1z1d2euzeaBkYvCPXGRutO73xGbwjV9dFAd5zzz03Idf59B+yaMWTBO/6dRtxWP356NhWjv27rF9cZXcouHxJPSbNrGHwWlHxFuQhZ/tyBWPwjlxnLFdj8rEYvCNX10UBXvJ45c1LPqaeCxZSwNtwPlpbfNizzS+VucOpwum2IRSIIRqJi7uEnS4bbA4Vgb4oEvHMctidCq77j3GYMovBKyV+AUZi8A6vFKugYaX2VpueVRpa/V6y+VlZ16MSvP1f9aq4zzaT8dHJVl1+Hyo9fcOuIUxXsWaB12ZXcOrFYzH/rFq8v7Qdy5/cB2+ZDed9thn1TW48+Zsd2Lq2R9xglO5h8Mo2u8KNZ2WHwB7vyHlBVlsgg3fk6rpkwRuPKwiJyxOGn0xVVVWD+vpG7Nu3E93d/ffaDn0IvPu6q9FQ3pn2WMlh4RMJ0H28YqjZgMfrLbPj8/85HeNnehHsjeGhn29D8zQvTrtsjDij+r0X2vDEb7cjFk1PXgav1d1X/vNj8LLHmw8rY/AyeLPZlXL11dcmOjvbddkeeYR0k5DdNnxxFXVk9MVBS6wzerwJBW19Faj1dQuPN/mFkmlZthkeL5XL5VFx9b9MwWHHVCASjuP5P+zG5NllmH1iJWKxBF7+21688dheRBm8uuyhmAMzeBm8+bBfBi+DNyt4zz///AQdTJE1kDjKsRx9fTQMKz8lPPhu3+QcL3V8ZWXliMXi4hSs5KOqNsTj/eUyCt6yKgemH1GOvu4YyqrtOP3ysWIu9+93bUfDBA/OvmYs9m4L4vk/7UJ9sxuBnhg2fdwtYDz4YY83H13UyKbJ4GXw5sMCjfST+SjPSKdpZTsrmaFmEm38+MnYtWsbckE6UwUTaHtCHpTTXbuD9uhmCp+cJzYDvCec14CFNzYhGkrgqXt3YvPHPYCaQHdbBKpNQWWtA7EocNZVjTjyjGp0HQjj10vWo6czdSidwTvSzdf8/K3sEHiOd+S8IPMtJ3uKDN6Rq+uSAS9JmBw+ljVgAm+HvwzV3l5N4B2azzXXXCM9x3vsOfX4zC3jQduBaFHVY7/cBqdHxZjxHoRDcbTuCKC6wYUb/3sGyqvsOLA7hF8taUFvZ4Q9XtkKL5J4DF72ePNhqgxeBm/WUWSrthMReNv7ylDj0wteBXa7HVdeeQVa1m6QWlxFUL38a5PQPMOLD5a2Y+1bnTjj6nEYM8EtFlKtebsLq97swKIvNKOsyo53nm/DS3/bNWyRFXu8+eiiRjZNBi+DNx8WyOBl8BYOeP1lqJHweI3O8dJe3bJKB+oaXahrduOsq8ehss4p9vDSE48Dmz7sxtKH9yLYF8OBPSGxz3fow+DV30VZBTbZjs6q8pFyPNQ8cp2xfss1FkPWHmVztcqOZd/LqvIVSztTLrro4kQolP9ToITHO0LgFcasAA1NHlz7rckYO9EzzL6F5/tWJx69a7s4SCPdoxe8Xq9Xth0VXDy9DS4JGavmW6h8estYcCKbXCAr9bCyYyWZrHw3k6sla3J634vbmZW1kz4vvXUmcLRo0aKEzO0Kel+X9v32BD2o9fXonuM16vFSWVVVwSkXjQup9msAACAASURBVMU5i8eJuV5anJ08pUpR6dAPoLcrhj98bwN2buhj8A5RQMa4+m+csu5MbSvsWK/dmxVeRn+z8taSjpX1XOhaaNErUxi975bcvmmV/qX8gatXeyP1rORzjnfwsZD037GEArsa111eM8BLcJ17YjUWfq4JNoeCnRv82LauD26PipnzK1FR60BPRxR/+9FmtG4PMHgZvLrtNJ8RrOwUZN7Dqo6/lL1dmXdj8MpYq3meq2zueQNvPKEgEPHA55Q7U3nwC5kBXkqPjoysqOmf2+3riiIapbOaFTjdKnwVdjG/29cdRTzDec081KzPzNjj1adXttAM3kPqFLoWRmpd77sxeI2onRpXr/ZGcs4jeFX0hnyocPeklM/hcCKacCMS6oXdps37NQu8RoSiuAxefQoyePXpxeDVppeVHaS2EpkXSu+7MXhHTnsjOecNvImECn/UDZ8j1eMl8MYSLkRCfbAVGHjJiD0+mwBsb+dwz5fBq8/UGLz69GLwatNLL5y0pVoYofS+G4PXvHrTq72RnPMGXirU4CMitRSSOmp6hp6OZdTjdbhUTJtXgfIahxhmjsf6T63atKpHDD/7Ku206Bkurw1nXDEWVQ0uPH73duza3JdyUxGDV0stHgrD4NWnF4NXm15WdpDaSmReKL3vxuAdOe2N5JxX8OotWHKBxlDjMwpel9uGeSdVYe4p1aBzmzd+2IO924NYvaIDjVO8OO68ejiciljtPH6mD+tXduOxe7YP28vL4NVXowxefXoxeLXppRdO2lItjFB6343Ba1696dXeSM4FBd5ML2IUvJNmlWP+ObVonOwRXu3uzX4E++J476UD2L6+FzabQqcbYMJMHy7/6kQ896fd+Hj58BubGLz6TI3Bq08vBq82vazsILWVyLxQet+NwTty2hvJeVSA1+2xobzWgU+dXou6Jjde//s+hIMxdLWFEfTHxPBzdb0LF9w8XuztffSX28Tq5qEPg1efqTF49enF4NWml144aUu1MELpfTcGr3n1pld7IzmbCl5bLI64qiBh8qEJRj1eEkhRgSNOrsH8c+qwankHQv44Nn7UDX9vFE1Tvfj0FeNQVmnHY7/cjr3b/Slzu0mBGbz6TI3Bq08vBq82vazsILWVyLxQet+NwTty2hvJWRd46Y7cRCLDBfcJIBy0wemKAaqRIg2PawZ4KVWP14bmGT6xoCoSjmPXJj9ikQSOOr1G3L607r1OdLVFMh5Hx+DVV68MXn16MXi16aUXTtpSLYxQet+NwWtevenV3kjOmsBLd+NSBdfU1KGzsw3R6PBh2GjMhmjcBrcj9Q5bI4VLxjULvJnKQiCmIyRptXO2h8GrrzYZvPr0YvBq08vKDlJbicwLpffdGLwjp72RnDWBlzJIVjCdh5vOOCIxhwCvx2H+hQv5Bq9WARm8WpXqD0ejCFZdkkD56e20ZOMkVdB7TKJM+QZ/fOpT39rQerUwUjojOhrJ14q4et9tJC5JkNFB73sNzkOvbcnmJRtPRg9lwbkLE6qS3dPTknA46gB5vV4Xg3fJkiVoaWmBz+fTIp0UMDQlPMKB9DaY5AeeTDzZV6UPSb2XK1D5knvO9earN69iAa9eHZJ1LRNPNo6VHatsGWXiybSXJLBl8pOJQ2cz6NVf9sOd8tGbl9GPcL2aDHi8VBFShYWCWFxFPK4Kj9frNAZecZlC3Aa77dBwdrF6vAxeuZuJrPSSGbx6uwzzwssAw0juMv2bkfysiiujI4N3eO1YaR8CvPT1brc7IHsvL8EyGrcPDDUHw064nXJzvQRwf8SJskGeM4PXqiZsbj4yHQKVgME7sp2CuVaQOTVZ+5Atn5Udq2wZZeLJ6MjgHdk2Ztjj7Q54UeYODmy/UdUEeoNulLkD4hhGvQ/dahSKOuFxhAaiDgbvzPpF2L3Wjj3bjN96pLdsdLrVDd+biKmH16Grqwvr168XowRJw29ubkZ9fT14qLlfWZkOgcGb3ipLERqy9qG33SbDl6KGsu2MwVsA4CWPlYBnk7grt623AlXeXkRitKI5It4mErPDMWioWG9DoRnnwdBOgnfd2g1wdB+GlW+vQld3t95kDYd3uuy4896bMeeIqQxeDWrKdqzs8Y5sp6Chak0JImsfspkzeA8px+Ad2TYmPF6aow1H7fBIDA/3hrzwOQNQDi7QImgGwm54nEEpjzddo0qCd+/effjjvX+BPxiA8eVg+puvy+XCH//8Wxx11JEMXg3yyXasDN6R7RQ0VK0pQWTtQzZzBi+DN5vtWGkfArz9Hq8KmxrTbdO5biBKt1gqVybJ1Wy0Es7nK4fH48M555yBiRMnIhyWmzvOlaeW36lc06ZNE8PJPNScWzHZjpXBy+DNbV36Q1jZseovnXwMmXbGHu/ItjEBXhomdtj0Q1eLqQhvOmaHZ9DBGlTpXm8ZgsEAXC43/P7elKQqKqpRVlaB/fv3iCsCKfxVV12JMp8PG9e3aMk2L2FoEdqiCy7EhIkTGbwaFJbpEChZBu/IdgoaqtaUILL2IZs5g5c93oLyeGM0vztoLy95qcmhY1kjT8ZLB176ze32ipOwOjoOIBDIvlAqOdS8qWUdjujYjLGNTVBUmaVbxt5GsdvRfOFi1E6cwuDVIKVsx8rgZfBqMC/dQRi8DN6CAu/QwvQFXfC4wjDjYA1atEWLrVz2/oVXgx/qYLUcKJAE78Z1a3FJVRz17TsQ7dinu+EZjmB3wvXF76Ny2uEMXg1iMniHi6TF3tNJW4rQkLUPDaaXNkgpakgvKqMjDzWP7Mdt2iMje4Ju+AR446JSyTsNBPpk7V0shDLinw4G76U1QMWqZQhuWCFdHiqN4vDQmOahNKJhJGLZ548VVxkqf/Q8quYczeDVoL5Mh0DJssc7sp2Chqo1JYisfchmzuBlj7egPV5/yCUOwCCPlxqHw+FEOHxoX20uw6e5UJvNritOLkGuvfZakMdrBnhVdwXG3vpLOKfP6882GkHn3+9F5/O/zfpqDN5cNZ/6u2zHyuBl8OqzNG2hGbwM3lyc0WZJxkNpviQhXVZ0tCPd6mMfsjAr2eHmMvRcvyfzpHDXXXedeeD11mL8j5+E+4gTBsDb9pv/woH7v1904JWFm3HTyV8KDF7j2mptW8Zzkk/BatuV1cTqcsorqj0mDzVr1yofsDYEXpq7jcWVgYMzBhfQbrcjGqWDseOG3zAv4P3Rk3DNPRaKqiIRCaH93jtGDLyyApVihyCrhWw8si2ZDln2kgSZvGTfTXY+me0q1TOU1Z/jHVJAxhbJDmU/wgu9nekGbyRG86IK7GoUdBUgLZ5y2YfPjRJ4abg5Go2ILUFGnnyAt+m79yG6fw88809HYOXrCG1Zg/ZHfjwiHq+MNlZ/scqUUTZOpqsnZdMzO56RDsHssmRLL9292bnyt9quZDpIKz8MrNYjV/2Y+Tu3M+Nqkv3K8C0teLM1BvJyaXjZaT90e1Cm4icPwpDpAAanaT54q9F0+32IdXfAPe94BD9ageCGj9D+6P8weI3bouEUuEMwLKFIQKbdWQ0aBq85dS2TCrczGdVS40iD99xzzxWnLyqKCjoSkQ61SPfQ716vD929IcRicQFeupGIPN9MT3l5JWpqGrBjxyZN24YypWMWeBWbG86mWVA8Zai+4AY46ptpghrxUAj+d15B38dvIt7djkjbFiAx3EvP1+Iqmeq3uoOUKaNsHO4QZJVLjcfgNa4jtzPjGsqmUAwjS4bBSydF0fGMra27xUrmoWPyBN6ysnK4PdXYs3cnbEoMPSEfKtypp04NFrlfOBtisdzecbbKMQu89ppJGH/nI7DXj0WC5nbpIyMchuIrg6LaxDv3LXsS+377bSSCncOKxOCVbUL64jF49emVKTSD17iODF7jGsqmUNLgXbDgvASdUkVgVQ5utqWFI5HI8AMvSAg6N9nvpz29CaQ7pzkat8Em9v+ad42BaeCtm4qJv10Ge0NT/xaiB+9BzxtPo+Erd8I1+2jQGHrvSw9jz4+/hHigncEr22IMxmPwGhTwYHQGr3EdGbzGNZRNoaTBe/Y5ixIylyNkEjMQccFpi2i+YpC2JOXK30zwTvr1q4DDCbW8Ep33343uZY9h7Dd+CueMeUiEAuhb8RL2/oTBK9tYzIjH4DVDRZ7jNUNFBq8ZKsqlUdLgPWfBwgSdUGXWE4o4xV28qoa7fWlFdG/QiwpP9lOxzATvhJ8/jc4Hf4Xaf7pdbCOK9/XCVjcWka0tCG38BIrThb0/+yp7vGYZhEQ6DF4J0dJEYY/XuI4MXuMayqZQ0uBNLq6SFUdPvKHXDxJ4e4I+VHoyzxNT+qaC96dP4sC930f9P/8X2u+/G9GOVpQd82k4xk5CeOMqqDV12PuzrzF49VSsyWEZvOYIyuA1riOD17iGsikweGWVGxJP3FQUdcDj7D9+sh+8XlRa6fH+5HHs//0dqL/p37HzW1chvHstqi/8Z5SdeC7Cm1bDVtOAvb/4OoPXpDqXSYbBK6Pa8DgMXuM6MniNayibAoNXVrlh8RQB2+TQNnnAvSEPyt25rwU048hIWpXsnXcGwltWwzl5NgKfvIF4oBPOxlmw1TYi0dsNxeVEcMM7aS9M4FXNphlC1oQYvObozOA1riOD17iGsikweGWVSxPP6y0Te4Xj8f59sulWRsfjqpgjpgM4nE6XuK/XDPCmfQ3VAdXpRSIWRSKSfa6ZwWuiIWRJisFrjs4MXuM6MniNayibwqgGL3mlZm4NoqMkaW9vptuOKL9IVIXTERPgpSsJafvStddek/aSBMXmotM/DtUtnb0rrvfLsJ1JUWGvHA+1ohaxtu1wjJ2B+pu/g8Dq99D2lzuQiAfT2IkNqqcScHhQ8f0HUTXb3GsBZQyTOwQZ1cyJUwwdAr0pg9d4fXM7M66hbArF0M4MH6BB4hAQ+w+NP7TKORK1wW47tC+Xzl/OdCBGOu9Vr+iDwdsfVxHlSefxqu5qVF/8ZTgnTofq8SEe6ENk52Z0PP4rxHpb02ZNoPYdtQC1V38FgTXvo+fN51C3+Fb0vbsUHU//DoiHAfUgyA9CXHVVo+76b8M2phnhaUegfPxkU+/j1auRUEWhDyIjtxzL5GpNHKs9Xr06Fov2MmfI9vcDg+6p1lDlMsc+JpOViau3vjS8QsYgxVLXMu9oZTuTqbNi0J7sV+oCiEyrmsNRu7iPl678owM1aMiXvNTKylp0dBxIe+tQb6gMPqcfiqHtSQpiMQU22yH4Z1rVrCg2KGX18B1xGmqu+DLa7vspAi1vIxHqg2f2KbBV1Q3yhOOI7NuByJ6tqLv2NsDhQs9rT0Kx2VB/8+3Y/7v/hn/1ClScfhnslbXiAyTauhPdrz8shqA9M05E1SX/hMi8k1DWMM5U8Mp0Pkn4yjQ4mTgyZZRpbFQ2mbxk3ikJGZlyyjQ2K+tMVkPZzk5WD9l6k4lnRBOZ/GTiyJRRxn65ncnUzvA4MvUl+gECbzpPNRy1HQQvebs056oKsldUVIobh2jedWhj6wuXwevoMzQ03T+8YBNXCiaHuLNuJ1IU+I5YgLrrl6D13u8hsO4N2Ny1qLnsq3BNmUkOs3gS0Sj63n0dXcsegL12IirPugyxzjZUnH05Yp37sedHX0Lc3wXn+Dmou/42AeiOp/6I6L6NSCQiAGlQNhaVP3gUlbOONBW8sp2WbIOTMTkZA7OyfDLvZBS8paiJLHj7R8rMO61Otj6zxeN2lg9VtaUpe42mjFdeDP2OsuDccxOBsBseZzDJqKxKJhtmumMlYwk6LjL7FYD9w9nxjI3U5XLDbndif0cYXmf/fGta8G56F55pxwtw2uvHwTVlNkIbPka0Yz+6X34Ewc0fAoM9b+oT4lEgHoNz0lGoPPVCeI87E5E9O7D/D99HeOdqKO5KOGuaUffZf0V41xZ0PvNHRLv2AfE4yo5bBN9xZyN67Nkoqx/D4NXQ3oqhAdAHpUw5ZToEKz1eDdWTNgiDd7gsMvYhq7/Mx4uV5ZN9LwZvqnLKwoWLEnTbkJkLqLJVTkVFNfz+HuEtp/sCJSOiD+dIzCZOwMoI3g1vQXFXwzlmMk1K9a+lIu9WASL7tiPeR3O8w7/AVW8N6q79NlSvD/4Pl6P3/VcQ790HRXXAd/Qi+I75NFRfORLxGOI9Xeh+9RGEd21A9cW3wFZWhdjx56J8whQGr4YWWAwdAoN3SIcguXaAPV4NDUJDEAZvqkgyH7jF0O+I+3hlKluDDWUMQtcF1tePxfbtmzKuvKRFVv0eQv8QlpnbiRSbEwnyfsXQ2CA4K/aDZU567TZykwGx2ExB/3ai51A1x9xVzTwEZsSajMVl8DJ4c1mQlR25TF9sZflyaZXpd/Z4h7QzK4+MTGZNK6P7F+QqYr440+OnIXAHnXKVflWzrBHIxsvXPl4Gr2yNGI/H4GXw5rIiK8HG4B0lHm928CqgYx5z3R6Uy3CTv9OVgXY1+xzw4LRCUQec9ojwTM30eLWWd2g4Bq8+5azssPSV7FBoBi+DN5ftWGnHDF4GL2ixVCjqhNcRyGWbmn6n4WO7nS6cj+VcAanQKsmD+1TNHmrWVNg0gRi8+pSzssPSVzIGbya9eHHVcGWstGMGL4MXcQFeFzyO7GcpZ2rENK4/eHKchpgnTZqOrq4OtLe3Zt54nADCARtcnhhoqpfBm15h7hBkccvgZfBqtx1uZ9q1ysYCmVRKdnFVtqFm8lCjcTsctszzsJnEpCE8WkDV1rZ/YB6XDNhud6B/jjeBQIC2Cw1feUz5tvsrUOPtRgIqzQSnDDX7PlqK4Ma3ZOrRUBzFVY6aH/PiKq0iWtlhaS3T0HA81MxDzblsx0o7Zo+XPd5c9pjz9/6tQdo31ScNPBZXcKC3GrVlnQhG+j3uxdddK85qPlPtxMevPof2fbty5m92ALvbg0t/9wwmHjmftxNpENfKDktDcdIGYfAyeHPZjpV2rKe/TJbbyvLl0oo9Xm0KiZOrtAXNfyi6QIGecCSO/T1VqCvvQnfAB4cawk2fvwI7t23GB4/dj/YDWYap81hMp9uNH9z3MGYfxduJtMhcDB0Cg5fBm8uWrbRjBi97vLnsMW+/01Bzp78cld4+dAXKgEQYt9x4GSZNbEJPT0/e8s2VMHXSc+bMwZgx5p5cJXv4AHcIuWos9+8MXgZvNiuxso1RORi8DN7cvZYJIXy+cnHbEd3RmzQ8Oju6L+SFz+VHMOJEKGLHF2+8FJMmNKK7u9uEXOWSoE567ty5GDt2rKlDzVQavQ1cpoHKvXV/LCvz06tF8r1k48noYqUeMuUzEkdGx2LRQ++7Wf1eVuanVwtuZ0Za1ZAP3OyLqwDae+uwHdp7S5VVUVGF3t5uyF47dsi4FLjdbrH4avjdoXTCRkJsZ/KHHLjlpkuxa8dmbF37nrioQdZojEhHC8Ouv/mrmDpthqng1XsNW/IdZA/eMKKBnriynryMHsWyDcbKjlVPXQ0Nq6d9yb6TnjyMvEsyroxdydqwGeXVmoZMGWXbi2w8mTJqff+h4WTtUTY/mXhZ53jp8Ixw1AGPk06POvTQqmQCJnmpMpdt6yloIOxCNK7i5s9fjk0b1uCoyRWo8PTvBbb6UVQbZh5/ARoaJzJ4NYgv29hkOshi6BCsHjnQUEUjGqQYwEsCleIHrmx7kY0n2xfIGGjRgXdogeNxFcGoA94h4O0Xo98jzfXEEypiwmvWvyWJ8g9EXPC5gli8+Dq0rFuL+dNq0LNnLQ7s3Zwra02/22wOeMqqUFU7Dr1dB9DX3YFIJP02J7o1acHn/xvjp85m8GpQV7axMXg1iFsCQRi85lSiTDuTBahsPJkyyqpTFOBdsGBBRnqSx0vHNg4GL+3rpceu9t8clOuhQzgiMSdc9uynX6XbekQFI2h73TYsXnw9Vn384UHwrsH+3ZtyZZ3zd5enDEeeegkOP26BgG8kEsKWVSvwzgv3obtj77D4NrsT5934AwZvTmX7A8g2NgavRoGLPBiD15wKlGlnsgCVjSdTRll1igK8ixYtEuCly+4jkXDKu5LHSdfzuRyDvVVtnm4yoX7wOuCy99+tm+lxuz0Ih0MDwzrU+dLdvDScTUIuXrx4kMdrHLxkQPNO+gxOufgW2B1OBP096OtsQzwexdr3XsIHSx9FIpE6nM3g1dcUZBsbg1efzsUamsFrTs3JtDNZgMrGkymjrDpFAd4LLrgw0dg4EQ6HHVu3bhwG38EvT9t8/BE3fE59ZzfTcLM6+FJ6DYrScZMEY7+/T8CYwLu+ZZ1pHq/T5cE5130b0444GZFwCG8++Vus/+A1cQVgNBpCODj8mEwGr4aKGxREtrExePXpXKyhGbzm1JxMO5MFqGw8mTLKqlMU4KWhZofDCYfDAerwensz75Ml8PaEfKhw92bUJJZQYdMJWUqMthVRGegc56HCJT1eM8Hr8pTjwpu/j6ap8xDo7cST996OvVvXHHyv/juAhz4MXn1NQbaxMXj16VysoRm85tScTDuTBahsPJkyyqpTFOC98MLPJEKh7MPAqV6vCiUDWAnMfWEvvM6AhIdrh6oqCEdiUOjy+SGek6ker6KgvGoMTlj4WRx+3Dl06yC2rH4ba995QXjXXQd248DujQxeWctPfr7QDVM6jgxNZsfgNSh8kURn8JpTUTJQkwWobDyZMsqqI9PnyOYlG0+56aZbEu3t+9HX16upk6ROkf4M3kZE24toe088DgQibgFe2ScQdsPtDEEZtGLaVI9XUVBdPx6fvuyrCAf7UNs4BZV1jaAbCOOxGHo792PZo3djy+oVw1Zts8err1ZlGxuDV5/OxRqawWtOzcm0M1mAysaTKaOsOkUB3oULFyaSotACq0QiLoZ9aY6Vhn1THzrwwoOmpolobd2Nnp6ugz/3L7gijzcorhHU7kFTAqpqE+CLxeIIRe1w2qMD4I3G7AhFbbjpc1di44Y1Bud4FdSNm4JTL/kSmqcfgZC/B9vXrUQ41AePrwr+ng5sWvUmdm78ELHo8O1PDF59TUG2sTF49elcrKEZvObUnEw7kwWobDyZMsqqUxTgTW4nIq91woQp2L17u1hNTEOudDpVusfpdEJRbAiFhnu2BF+68k/rQxU5fvxUkeeWLS3oCdjgdhzyePtCHnQHvPjaLRdg68ZPDIBXQWXNOJx5zTcxfvqR4uSraCSMte+8hDee+BXisag4ujKR5WAOBq/WWu0PJ9vYGLz6dC7W0Axec2pOpp3JAlQ2nkwZZdUpKvD2e56qAG66PbWyImiJR941/QmHw6DtR6pyaBtPP3h9+Not5xsAr4KahvE444qvo3HaPOFhE3RX/+MZrHjujwj6tZ3/zODVUpuHwsg2NgavPp2LNTSD15yak2lnsgCVjSdTRll1ig68si+aBDX5ufG4DTZV+3GOgxtfOsF6Qx50+n34Bnm8m1ZJebwVNWNx+iX/jPLasagdO1F4tqtXPIe3X/izWNGs9Sk08FppzFo1GhxOtnwMXhm1iy8Og9ecOpNpZ7IAlY0nU0Yj6hQ6fJVsJ1dpeXHqJAf22yb6z3amoWIacg6LgzNSD+VIpknzyeTl0hBz/2KtCAKB4Xtnu4P9Hq8R8M476UIcddqleOv5P+HEC76A7S0rsfzx3yAU7NPyigNhCg28ugp/MDAZZKGfPSvzXhRHpiO3soFS+WQ+KmT1KPR4srYoU8/JET2rNKE2ZqVtWfVexdDOZK/6tFRDo+BNVkR/I1JF2VW1fzsQHfeY3ftVkFBccNhtiEX9aQ21K+hDT8CLb9BQs6THO/nw43HGlbciGglh86p/4N2X/qZ5eHlwZTB4rTTN0surGDoEK1VPglcvoGQ/XmTjyWhSyuCV0cPKOMXQzgx7vEYFjcTtYgWzPc3wNIF8b08tYjEF3/jSImyTBK/N7kB94zTYHE607liPSFhuuxOD12htj+74xdAhWFlDDF4r1R49eRVDO7McvIGIB257cGDlM126QOBN5xkTePd01yEWB27TCl5FFcc+5uNh8OZD1dGTZjF0CFbWBoPXSrVHT17F0M4ygpfmUerqxoAO15C98H5oVccTCjr9Fajy9AwMR2czhwGPl8CbYahZtTlQWTsOPR37UDNmAibPOREHdm3CljUrxIEY6R6aX66qbxJ7dSlecqiLrghUbf23Lyk2GybNOhZubwXWvvO8uAbR4XLjzGtvR/PUwwviWkCZpiQ7ryaTF8dJVaAYOgQr64zBa6XaoyevYmhnWcFbWVktbgeiP1qfaIzmdWlL0vC9vHTNYFtfFao93bDZYlBz7PftB281YnEFt2VY1Tx++lE4/bKv4L2XH0RZZR3mnHgetrd8gNcfuyfjkLLLW4EF1/0rWrevxzsv/kWcukVbjGguuHn6kSAA250uNE6Zg2CgB0/97j8w65izUTt2Erw14zF2/BQGr1aD4HADChRDh2BldTF4rVR79ORVDO3M0FCz0+kSq5EHr5LNBV462YqOlKSzrnI9ucDr9pbjrKtuQ/WYCcK7VVQVbXu24oNXH0J3xz4oar/3mnyi4RBCoV5xetWZV34DH7/xBHZv+UR4vfFEHF5fFVxuHxTVhqZp83Dcws/ilb/9BNvWvY3jz/scasdNht1bw+DNVXH8e1oFiqFDsLLqGLxWqj168iqGdqbQfbw0lJxrZSFt/Rk85ExD0dXVteI2I7pHV8tD1wMmtxtpCh9X0dpbjXhcwde/SKuaD51cdWDPFjROmYvpR52KtW+/hOPOux4d+3bgXfJgE3EcffrlqG2cTCPE4iEwb1/3HlreX4rDjzsXM+efgXXvvozZx5+LVx/6BfZtX3ewSAp85TU473Pfgb+7A6888D9i29GJ598oPF4Gr5aa4zDpFCiGDsHKmmPwWqn26MmrGNqZ8pWv3JbYsmV91nt4CbKTJk3Hvn27xP24sg/t7aXFVA7b8HOQKc3k/rzkRwB59ib77gAAIABJREFUvPt7qwR40x0ZSUPCDpcHE2Z8CideeCOWP3EvNn38uiiew+kZmK9NlpfmdGk4esHib4kbiLavX4njz7sBW1e/jdcf/5U4zaqqrhlzT74ATVPnYtmjd2EPXRWYSOCkC27EuMlzoTh8qBvbzEPNskYwiuMVQ4dgZfUweK1Ue/TkVQztTFm8+LOJjo62nOCtrW1Ad3enZu82UzX7wy5xuIbPlXqRAok1blwz2tvbEAj0wz0XeCnM7BMWYe6Ji7B+5VJ8suJphNOcH50sCy3EmnP8Qsw85iz0drSidcdGcUHCYfPPwkt//aHY53vmVbchEgzgref+iI79O8WlEfQcc851mH3cuYjC/v/Zew/4Oq7rTvg/9RV0gCjsDWwSKYpFkmXFclGxFEm2Jac460iOk9gpa1mdVLGs2LvJL7/sl3xJNrvZL8VJ7MROcTax48SJLcuSVWxLogpV2AESIAECRG+vz3w5575BI0DM3DcYENAdRwGId9ucW/7vnHvO/6CisloB7ztnH4f2povhQAjtZX00pIDXh5BUkcASWAz7TLv55pvHsxNd6A3D4m+mhAcEqNVlI+d1RwKbTC0mgLeK0w3e82sfnpGruayyDpYdx/BA94wZhaZ3QiFBnMbQLcChOCWA73XJiYqs0vGyKnbKyk0DcNKg7XgSH/j457BqwzYFvIG3g6qwGA6EKGdJAW+U0n7n9LUY9llJzlU0lV4qQb/TSsBbcHXUJM8H3ult+AFev/2GUU7F8YYhxXduG4vhQIhydhTwRintd05fi2Gf+QbedM5C3NahITvuiEUczY2NK3H6dKvvWN8LabwKeOd/c6g43vmX8Ww9LIYDIUrpKOCNUtrvnL4Wwz7zDbyZXAzLassxOjrAca9C2xWk7563s8eFOj0ThQttPLH9cCoB03CQsOf2hH6naLyyGT9ktlLUCRLm8paXeYew6wQl3Zd9J5UkYerMyfIZB50vr9elus9k12PY++hC7cnMmex7LSngTWVNJGwC3NmT3Dc1rUQ+nz/PCWssm0DCEjSRI+kEkjEBujnOXjQ7AC924E0mk77XtszC9N34AhaU3TxRDVlW7jJfYKI8+KOSH/VTyhzLyD/q/qKUpWxfpchEts8g9WTmmdqX2WdRJsMIIoPJZbUPfvAmdyYwJSIMAkpioSLGqXTWxIrGcmSzKWQymRkFYlkW5SZCoTCVVGNylqLRTBwJm1IFasgUYkiY56cC9Ab4TgJemQmUXcwyfcnWUQfChOSiBt4oZS/Tl6w8ZPqSXb+eZa+U+lHUjVomQd9J9qxaDMArI3vt5pt/0qWQmemVCWwp7KfgGhx3W3BM1FYnUV1dy1otxfTKCCWViyNuZkDm51zBRsycGlY0eUJnAt5LVsZx9OCP0dN1Jujcl1zetG380sN/hOatO3x5NQfReGUGJ7uYZfqSrSOzKGX7kqknK0OZtS8LNDLvVaomGrRPmXmWlYdMX0HfZ4p2ovnh2Sulh9LrRi2ToCOOcp9FrfHKyP6Cd7zENJUrmJzMnryXq6qqUVfXhK6u0xgdHR4H65lCjSYLevLAJt/3uq6OVM5G0p4ZfM8D3hNvoeWNZ3H61EkU8jMnQAi6IIKUt2Mx/M7/+mts37lLAa9PwcksSp9Nh1IsygNBFmhkXzRK2cv0JSsPmb5kZag03lIkN9XaI9OSzBfcRQ+8LCiN0vYV2JGquroO8XiSMxZlMikGXtM0sWZNMzo6Tk1JptDUtEpU17RZtWPSqMdyCZTZM5ubCfh7RirhuMBnf+UjaKgrR2tri5SmLTPp0+sQbeZNN92M1atXK+D1KdCoD0mfwxovpoA3qMRmLi8zzwp4w5F91NYNmVFHuc+WBPCWl1cyWxWZl+PxOIPr5G8hBEaNTauRy6bR09PFc0KbsKKiin/PZNKzsl2Rm1Yub8E2JygkKUsQ3TlTHwy8o5WcXpeAt3nDSr5fXqiHJnTTpk1oaGhQwOtzEmQOZJ9Nh1IsygNBFmhkXzRK2cv0JSsPmb5kZag03lIkpzTe2aTnK5zIO5wmhw55DRI4ZvI2ey3T5xTbS+BMpulCIR9o1qifNWs2YHR0lD2je4ZMpHIWcyUT8Paca8f//dY3OIXfQjy2beP/+c3fxvbt2xXw+pyAqA9Jn8NSGm9QQc1RXmaeFfCGNwky8g+v97lbivIL7pLQeEmkZE72Mhhl8hQCNKGh0j3sWC6O8pgwF4vNpIM04VyOvJeBTN6EbRbGY3kvNE2UapAAOxZLoLMXyBZM1qDv/vTtaGl5Gyuv2oaapgYsBPTShO5uaMbyOqXxzr3VRAl1IEz91i97APmV9+RyUcpepi8FvDKzOnMdGfmH1/vcLcmu+3fsHa9pWli2rIHNyPl8AbkCeTlPaLKk8aayMZTFUrNKn0zKehGQM3kNluEwCHuLRdMMOK4G0xAmZu/vQ+kyBm3SeO/+9B040fI2mt+3B136GM4O98092xcooWs66pJVyBbyGEwTfeXs8cleM6Zu4Be234CNjf6yEymvZgW8k5egLNDILvQoD2OZvmTlIdOXrAw9ZaKU+lHUjVomQd9JAe9Uic1oaiYhxWJxvpt13KIfMoUcUextzkbcmrhnJQcp0oLjltBupz/e5iorq0BDw3IcO9mHZdUGCvkUhoYGuTjdEecdC8sbatDaeoRz/NIzDrxwcfenbseJlkPY/L49OI0RnB7qCTr34+VpTHXJCnxyz83oGR3A3x58GukchThd+LF0A5+67CY0NynnKr/CVwfChKRkgcavrKeXi1L2Mn3JykOmL1kZKuAtRXJT175MS+8ojZc2RE1NPUZGBjE86qCizEBdXb1U7K6g79KRSCRRV9eI7r4cVjRWoL+vE5SOkDYRfR5PJBCPxTE8PMiOXPSQdu26BunG+OQnPoZjx4+UBLzsmR0vw0+s24Ety9ZgdXU9coU8WvrO4sCZw3i14zhrwLM9CniDb52oD8mgI4zym7gs0AR9J698lLKX6UtWHjJ9ycpQAW8pklPAO5v0ZnWu8g6kkXQMyVgOlqmxGbiqqoY1Uu/+1u+0kMnasmLoHtCwoj4GuFlux88mojJ33nknjhw7Kg28FAJfX1aFj25/L9bVNqF7uB8rqpYhk8tiJJdGhZ3Ej9vexneOv4yx3Mye0wp4/c72RDk/8xu81fBqKOANR5Yy86yANxzZUysy8g+v97lbinKfLQnnKqZ4tLLQdYcdpyzLRj4/lRJybrFPlBC8zRlomsiFSw/dE+uT/j29vTCAN2bauHPX9dhctwr/cvgFHOpuw3+5/Do2NX/n2AHcvOVK7F6xGV97/Sm8dObIjAtZAW+QmRZl1YEw9Vu/7AEUXPLRyl5mnhXwyszqzHVk5B9e73O3JLvu31GmZsGtTMDoYjLwzi1eUYK0W8pgNJPQPN5mSkafSCQwPDKMoVQ5KuOjzA0901Mq8NKkr6tuxKevug2vnDmKf377eeSdAsqsOAqOg3Q+g/ryavzKVR/CaGYMf/LitzCSPZ9NKwjwHj16FGVlZX5FJlXuYt9sssC7GL6xSk1YxJVkD7uohknrV2YNywK27HvJjFG2L9l6MmOMcp/JjE9WFlHXk9lnM5qa07kYhwyRVkqOU7aRnxUUp78kacTEWkV3tQMDvbPKwNs8BHzzDbyb6lbgPesuw2XLN+LVjmN4uuU1nBnqxeZlKzGUHsPZkX7sbNqA65p3o7GiFs+0vIbvHjuAVH6qw1hQ4C0vL5/XNSDzbXBeBzRD4zIbjkLRonpkD/+oxifbT9TgJDNOkr1MakBaHzKHncwYqc5S3Gckv6iBV+YskJ2zqOrJ7rNZgNeGbebHzb80QcLEnJ+VFIOSKjiOhphN32IBXdeQz5N5ei5f4fk3Nd+0+UrcuHkvYoaF0Wwa3znyY7xw+jD+y2UfQMdQD55pfR0f2/l+7GjaCNMwMJgexe/+4O/RlxLe1d6jgDf4cpbZbAp4g8t5eg3ZA6H0nv23oIDXv6zmKhl0nyngnUui/j6X3WczAi+FCFFyBLp3tS0XNTXL2CO5o+PkeKjP9GFRGkEC35glyDUoAcJoLolym2JkBbEGcS5bpomKikr2aPb7lGpqroqXYdeKjbht2zX4QcvreKrlVYxk0qiIJdiLOVPIYXlFLX7usg+gJlmJv37tOzje08HmaAW8fmdp5nJBDwRqRQFvaTL39luUWqHMiBXwykgtnH2mgDcc2YcKvAS69BDw0l0vHYS2HWdPZnKsmumZCXgzbhWS5iCbakzLxlAqjuV1FjKZsSkJFeYSQanAS+2TR/OvXfUh9KeG8dXXnsJQdhQba1cglcugY6gXW+tX487dN+L1zhb8wxtPzxhWpDTeuWbq/M8V8AaXWRg1ZA+EMPr224YCXr+Smrtc0H2mgHdumfopIbvPxjVeoeUabGKWedjU7OrjrFbUXh4J2LrIYkSJ7/tT1ahODDCLFeUA9vuEAbzEVHXNmkvwoUuuQedwH546/gpuu+Td6BkbxFtnT+L6TXuYvOpPX/oW2gfPzTg0Bbx+Z2yiXNADQWm8wWU8Uw3ZAyGc3v21ooDXn5z8lAq6zxTw+pHq3GVk99kU4DWsCtTXVaC7u5OBkTTd2tp6TgNIXM2lPMR6NZSpQmVscJyzefpi8Uxj0/9O/77rrrtKiuOlsduGiXevuQTv37gbCSuGhGWzV3Mmn0fnUA++ffTHONbbAWeWLwUKeIOvgKAHggLe4DJWwBuOzGZrRTlXlS5f5cQ4VYZT7niJM9k0deRywpxMQEjg6yVIkBH/5IOX7n0nx+9Ob8/LOkShSJOfsICXD3VdZ7PzruXNeN/GXRjNpPAfx17C4XNtGCrmGJ7tPRXwBl8BCniDyyyMGrLfxMPo228bSuP1K6m5ywXdZ0rjnVumfkrI7rM50wIGndALDTaTMxGzgpuywwReb3xxy8b1G3ZhID2CH7YfYs13rkcB71wSOv9zmfWjnKuCy3l6DdkDofSe/beggNe/rOYqGXSfKeCdS6L+PpfdZ9qNN944Hu+TK1jMUGVopZmVZxtyOmshbs/snHWh1wwCvCQIv4uQsg0RD7Qf0KXxKeD1txinWyuC1lLAG1Ri55eXPRBK79l/Cwp4/ctqrpJ+zzyvHQW8c0nU3+ey+yx04L0Q/SM5XPmJ653+ynMBL5mPiRIyblpoLK9B39gwukeFExc5TBG41iQqOHzo3OggxrIZNjlT5qXZ7nNnErtlmPjUjg/6yk5EzFWKQEOOtlABr79Nf6FSsgdC6T37b0EBr39ZzVVSAe9cEpqfz2X32RTglQXGqRqOHLjKaLwEnkkzhhVVdbhq9TbWXJvrVuJw10n869EXcdPmK5B3HLxw6k28a82l2LWiGd89/jKO9ZzBLVvehfbBbjx78g2O1+XL/wsMoiKWxLqqRly/ZidWL2vC4OAgCFypnucUtmrVKtTX12Pfvn38mQJeBbzzs93nblX2QJi75fBKKOANV5ZBWlMabxBpzV5Wdp9NAd5whiLfymxezbm8jl/85MeneDWfGepBVaIMNzTvxYrKOjSU1aJ3bBDpfBbfPvwjjObS2LViE8rtJN7qbkW5neB0gF959bus/RJFJBFn/LDtLWxrWIuxbBqvdp7AhpomrKlphFEk/Dja047Tgz3skHXb1quxNlGHivIKBbw+pznoN3FqVmm8PoV7gWKyB0LpPftvQQGvf1nNVTLoPlPAO5dE/X0+0z6juRgdHZ3xypOUMa5zyy23upT0fnTUX4o+f8ORKxWPJzjeN50eG2+ABkl+T3fd9fPnhRMROH50x3vRXLuSiTDIbNw20IVvHv4hGstrcdPmvaD43e+feA23bLkK/ekRfP3NZ7C5bjWuXX8ZWvs6cOhcO+649D149uRB/Kj9EFZW1qG5bhXilsXl3uxqwfdbXgelFayOl+OuS67D2oblCnh9TnHQA0EBr0/B+igWJRevj+GcV2QxAO9iCYMJus+iBt7FEJIls4apzvR9RlFAr7zyCrLZqVz/pFDs2rULsVgM2sc+9nGXkhocPnyQMwpNfuYK/5EdqN96th1DVVUt5/G9/vprcfjokSn5eCvjZfjE7hswlssiZpgYyaZQHSvHV177LgZTo3ynu7a6Ce9etx3ldhxffe1JJs8gQdUnq7Cuugk/sX4HTvV34V+P/Ijz8K6vbsJVa7aiPJZAfbIGL54+hO+deBWGpqPcjuGuS67H+saVcwLvkSNH5j07kV85Ti8XdJPK9lNKPc/6UUobfurKykK2XlTvRe8eZV9+ZP1OKyO7RqKSU5TrQ1YWMvWifK+Z9hkB70svvYRMZmpedwLevXv3Ih6PQ/vgB29yCYgKBcpARHqduJfTdAODY2WoTIwC7vx4Oc+1wJLJMlD6QBrfhz50G44cmwDeM8O92FS3EntWbuYY3CtXbcGP2w5jR9N6/Lj9EIYyY0yWsaq6AWSW/tGpt9E50sca9SX1a3Dl6q2ImRaO9LTjx+2HOXkCvf22hjVcx9IM1nzf6DqBp068hubaFawlr4rVorqyUgHvXJO3xD+XORCWMhhGfdhd7MtLdn1c7O8V9fhk5LjQa5GA9+WXX54VeFnjnRxORBommQQSiSTKy6vRciaNxuo8hob8JzSYj4mZzauZwoHIczlu2sy73NLfgXQ+x85Slm6y1prN5zCWS7OTFR98AMpjSdiGjlQuj1Q+M8UWT1pymR2HDg0rKpahNzWE1v6zDNIVVhw/t/V9SuOdj0leZG3KHAgKeBfZJJcwXNn1UUKXS7KqjBwXHfDSzJF2mUyWc0KERPkKuPlBDA4GB17TNDk9IGnSfh+qQw+lH5z8zBVONH6gzeGZ7HccXrnpzl5B4niVqTmotBdXeZkDQQHv4prjUkYruz5K6XMp1pWR46IE3smTl3MSMPUcKN0BA6JjwtAL41zLF5po4ngmp63OznZf64Hs38uXr+GynZ1tU7ih/QCvr05KLKSAt0QBLqHqMgeCAt4ltADmeBXZ9fHOkZC/N5WR46IGXho8eRmT9knaLz2j2QQSZobZreZ6PK85v8kVRHmDmyUnr8kCV8A7l7SDfS6zmIP1sPRLy8pwoQ+F+ZqZpfpesvKSXR+y/S3VejJyXOi1GPiO15s80lZraupQWVmL7u4OnD17mk3GqVwcMTPLeXqnPnRzeiH6ifOXBZm06U6ZwHZsbOSC60YBb7jbSmYxhzuCxd+arAwX+lCYL8kv1feSlZfs+pDtb6nWk5HjQq9FaeAlMKyoqMLq1evYe3d4uB8DA/0MrdoMAJvN2zCN/AyAPPty8IRDP0m4wrN6Zu9pBbzhbiuZxRzuCBZ/a7IyXOhDYb4kv1TfS1ZesutDtr+lWk9Gjgu9FqWBlyZR03RmEMrn505qkMnbsAIC7/SF4gHwTAuInLTuvPNOHD1+FBuu3YUTo93oHOiJfK2ZhoHPvPt2bF4hvpBciDJSOVdFPj2RdihzIIh9JUL2ltqzVN9Ldp5k14dsf0u1nowcF3otlgS8QSaSEiNQ8oOZtOEg7cxWNlfQceedd+H48bdxzk7j7aNHkE6lwmg6UBu2beMP9v83XLb1UgW8gSS39ArLHAgKeJfeOpjtjWTXxztHQv7eVEaOSwp4yRRcU7OMNeDBwYHAd7r+xDxzqVzewM/feRc0N4XvPvU95HKkhQe7Uy6lf6+uZdnY/+BD2Lp1qwLeMAS6iNuQORAU8C7iCQ84dNn1EbCbJV9cRo5LCnjpZSora5DJjDEH5Wzcm6T3hq355vImfv7OO7Fty9oFXWgkg9WrV2PZsmUKeBd0Jha+c5kDQQHvws9bVCOQXR9RjW+x9CMjxyUFvN6hQYIgGsfZiDHSuRgsIwfDR8iR38nPF0jjvRNOfgxPfv+7fquFXs6yLDx430PYsmWLAt7Qpbu4GpQ5EBTwLq45LmW0suujlD6XYl0ZOS4J4J3s9ETezq7rzJjuyJv0VC4GO2TgdVyNnauOHTsEe10WjU2NIsl9xI+hG3jvtluwsnF1qMAb5UKhhSy7mIOOU7aviKdVqrugsvA6ka0nNcglWklm/Ub9pUc2G49MRim1z85f6Au5zy6UJOGKK64Q2YkmczVPPhxo4OTVTLG8fX3dME2LD+zZvJwpJpeekTEgmdDhOtnx8CBqi+5HiYhDZtM4ThF4jx/Cir3V6EgfRedAWwjHyvT4Yw2mYcLQTKQLaWjkTj3psQwb//V9X8CmVZeECrwym0325elACHooeGshaJ8010H7ivqADPpOXvko50x2jEu1nizQRDlnap+Fs/qinLNwRiwoj2fLTkTAy9mJZgNeAlJypqIXJ02XTMuDg30YGxs9b3x0MC9b1oiamnqk0mPIZtJIpUYxNEROWIL/mdoaHOyfAtyGI4CtoF9Yex2P4z16GKv2VqNl5CBO9h6TkpNtxLGydh12rNqLZRVNKLgFnOk7iTfbX0b3yBl8cPtP4dJVe/Bn3/8dDKSmclTbRgz7bvxdbF69fdECL8nSL5vY5C9iMsnpFfBKLVFVaQ4JKOCdKiC1zy6uLSMNvOI1NJSVlbPGQskLKC9uR8epGTUYAuZ16zazZkxaLWm3IyNDvmKANRdw57AahwG85PJVU16Pmy/7abx3208iZiWKbwk4rouzA+34xxf/ArvXXY2rN1+P/V/9BLqGz0yZUQW8wRa4OhCCyUuV9icBBbwKeP2tlIUpVSLwTgyaNFbPZj6TtiRMkSZzLFNZ07SRzaZBUT+67nKMbylPGMBbEa/Gr173GHauvRLdg2fwb6/9A050HYJlWrhq4/sZjOkON5UdQTJWif1fvUsBb3HSlKn5/NW7GE1gpezBi6muAl4FvBfTepw+ltCAl8zO9fXLOWnC2bNnMDo6dN57k9KqF1wUjAn1NV/QYfgEXm8z0SHvgTxp2pSikEzUd911F45ImppN3cLNO38GP3XVL+Fo55v4yrN/gI6BU5y31zZs1JTVY+eaq/Cxqz+NZKwC2XwaD/3NnQp4FfDOur8V8C7c0aeAVwHvwq2+uXsODXipK3KuIkAkjZc025meTM6GbVEaweLdraNDJ0arosZLh1V5eSWboSc73dBGGh4aRjqdZnCPx2MwTIN/p36Hh4dw15134njLMak73rqyRjz2kd9n8/Lv/uvDaO05IvihNQ07V78bn/rAQ6ztlsUqYBo2MrkUHvrqnege7lCm5iLNobrjnbriFfDOfQDNVwkFvAp452tthdFuqMBbyoA8T2Y6rAhM0+kUAx+RbcB1MDw8gsGBIb5Ldgp5duaybIv/HYvH0D8Sx72//rM42dYiBbyXrb4K99z8Rbx0/Bn8xTO/h0whza9D976bm3bgZ971KZiGJV5R05DOjOJ/f/c3MZhWzlVCJMLDPeij7niDSkyV9yMBBbwKeP2sk4UqMw/AGzz9H22SkeERkAOzZRqwYzEYhrgzHk4nUUh3Y7C/jx2cSAMlkgqhL7us7WYyWeT1Ruy//+M4JQm8726+AZ+6bj++deCr+MYrX0HemUj8YGg6LINCoSZ7eLnI5NOgrwaTH+VcFWwpK+ANJi9V2p8EFPAq4PW3UhamVOjAO1MWIspiVF5egdHR4Rk9nsfGUujt7WUTLpmXDTOGeExHLG5jNGNjZKATrpNnILYtcsrKAJqOZcvqmZO5v78fjlGNRx76FE61tUppvLvWXI27b/oCXjj6PXz52d9HtpCRmhEFvMHEpoA3mLxUaX8SUMCrgNffSlmYUtLASx7KlI+3UMhhdHRkHFBnBl6K4W3gfL0USjT5SaczONt5FsRDYZoGm5DJvMukU5qGVDrLpmYXDmu7iWQZ3yHTx9XVtchkUhgYELHA+x9+CCdPyQFvQ8VyPH77H3Gfv/2NB3BmoFVqRhTwBhObAt5g8lKl/UlAAa8CXn8rZWFKSQMvgS4lRCANtbe3S2ih/Mxsap4ply6Bbl9vH5uKBQmHzmbkXJbA2UWu4MDJ56EZOicaIrAnE7TrFDgXMBl5ibSDNhn9e9/+B3Gq7aSUxmsZFj68+y58eO+dONj2Ir787B/g3HAnHNfhtyKv56aqVRjJDGNwrPc8E7M3fQp4gy1kBbzB5KVK+5OAAl4FvP5WysKUkgZehlhNQ94h+sSJ+1C/r+G6GjKZHLq7zjJ4EnBSLlvyhiZAdQoO8qTZ0r2uYaCQz0OP1UHHGFDIYfmKVaipqcVbbx0sAi/w0D554KVx15bV49euewxbV16Olu4j+PZrf4dzQ50gGsitK3bi/Zfehrbe4/g/3/stjGaGZ3xVBbx+V4Aop4A3mLxUaX8SUMCrgNffSlmYUiUBL2m3g5lqVMYGZk3zR1qsFxbkuBQ65LBmu3r1RtTW1uONg6/iyOG3ODSIANYpFNjsLA7kAmu5lHSB43bNelSWOSgUshgbFbSUQtsVTk8CeOVMzd4Xifry5bh97ydw5ab3sUNVLp+GoQtu5p6Rs/jnl76MH574HrL5me+AlwLwKg7ZcDajCicKR44yrSjgVcArs26iqlMi8AKZQgIxg0JvzmeeIkCMxRLI5TKIxcrQ2euiMj5C+iyymTyqquvQ2nqcQZSBl0Cagddl5ylGYIGu7OmcLpRBc4YBcnzyPtcoIpi8ncnU/FBJwOsJPWmXobnhUmxbeTmqErVI51PoGjiNwx2v4XT/SeZunu2ZL+CNKpOG7IHlfXEJMk4vhMz7GWTRB+knSLszlZUZn4w8Sh3nxV5fds5k5C9Tx5uzKOQY9T672OXhKVEysl+MX3AJeF9++WVkMlMVOHqXCyZJ8ASUdWKwdXEnO9tDG043LOTcGtiaSILgFFx0dXcjNTbK+OpRTnJKQWrNESZmyo3gOMU0dVYd3PwgNIfuhA0UHKEJUx16Hn5kv/Qd70xj59hUGHA0/9l65gt4ZTeOzEJeqnVKOfhl5B/1gSAzxqjmms8AXQ/cXSkAFbizogVNpp6qMyGBpbzPwtpNxidGAAAgAElEQVRj5CA8E/ASF8LevXtnTwsYZKGRuXjt2mZUVdVhaKifEyWsXbsJXWc78eKLzyOfy3GMLgGo2Jwa/x+ZPHVo7OAkvJ7jKDhZGKQZF8GWyxfzx+5/eF8JwBs8/pgWWJldiYKTRyonTN8KeIOsjGjLLuUDoRSNIYpZUMAbhZQvjj6W8j5bVMBLy4EyF5WV16CjswM6sqisqMXhw28hlRIMVewM7bgwLJMdqdhrmYBYI+AlHZi+MZN2K5y66DNiuCLNl+glqY1HHn04EPDqmoHm+m2oKqtDZbIWL514GkPp/llXL3k2r6ndiIpEFZchzuYbtn8YJ7oO4+sv/hkyhYwC3otj7884iqV8ICjgDWfhhXWwhjOaxdnKUt5nYa0PKY1XtnMXZB7W2Au6u/scRkdGxx2jxBITWifBLAEqHGF29h76hPiSvSQJdXXLWCvu6TmHQj6HRx57JBDwUt7d26/4BFbVbsD6+s347W/ejzP9J3kEBPzTMxFWxqpx0+U/g6bqVfz5ypp1qErW4F9e+Sr+7dW/Rd7NKeC9iM+KpXwgKOANZ+HJnm3h9L40WlnK+yys9eELeG+44YbScvZNW080+O6uc0iNjTFhBQGu57nMuq0LFMhbme9cHGjFuyGaUDY/F0GZ6o57TWvAww/vC0SgETcT+Pg1n0HcjuOSlXvwP/5lH3KFHHJOBldueB/qKhonob7LzlWvnfoh6OtAdaIWD976O2jtPoy/evYPkcqR05gyNV/MR8dSPhAU8Iaz8sI6WMMZzeJsZSnvs7DWR6TAS7G7BKcaCuju6gZRRQrgFWBLnlT0P7In871uMUEC8THTPbDO5BnCkYo+I9MzPYLDOTiBRm1ZA+69+Tfx+skXcP2O2/Fvr/4d9m58D/7hx3+O8lgFqsuWTfAzuw5aug/heNfbnMHouks/hBt23I4/fep38NaZA+OEGuqO9+I9LJbygaCAN5x1F9bBGs5oFmcrS3mfhbU+IgXecZOx6+J0+xlkMxnhuVyM9SXQ9ZymCJCFZ/NEWBF7PhNsF72ZJ1mn2Uq9LwCBhgGdzcbXbL4RX3vh/8N9N38RqewYvvvWN/Bvr35tRq5m6rsmuQw/fdUvY2PjNnz9xS/h1dbnkXMnCEQU8F68h8VSPhAU8Iaz7sI6WMMZzeJsZSnvs7DWx7wBr+fFSHehHq3jZOBtazsNt0BarbhPJRMyKb9e6K7mab+ei79GsEekGkLjJfMzk2cUf6dPgxBomJqJS1btYeet42cP4YqN70HPcBeOdb2JdC4144qnd1peuRqbmi7Dqd4jaO9tOS+mVwHvxXtYLOUDQQFvOOsurIM1nNEszlaW8j4La33MG/CSeZiSGBCnc0fHqSmBwjT49rbTHJ9LGu7kkKAJzgyHc+0KL2YwfSR7OBcIeF3o/Jl3DywKPbx/H061++dqZrN20Z2Lw5YuEIvsbQHNFQkcZiurgPfiPSyW8oGggDecdRfWwRrOaBZnK0t5n4W1PuYNeD3PY3KEIsKMyQ8NvuNMJ4i9g8CXNGKPtYonrZhUneqKAHrvXlf4PZO2Sz/zubz4nTVlF6XF8YazyBXwhiPH+WhlKR8ICnjDWTFhHazhjGZxtrKU91lY62NegJecqDT2lpr5yeWBzo4z7CjlASvzM1PWId0Y52hmYgx2nqJ4XgGw3qRybC9nLBImZ/o3eTXLZicKa4kr4A1LkuG3s5QPBAW84ayXsA7WcEazOFtZyvssrPUxL8CbLxgwjdn5jFMZHWc72uAUsiJeVqP0foUJJytP49WEIxV7LRcZqoTOKx4hBM6owGUeffSRQKbm+VjWCnjnQ6rhtLmUDwQFvOGskbAO1nBGszhbWcr7LKz1MS/Ae6HlQgPP5Rx0dnSMO12RSdm0TCxfvoJJNQYG+sRdrudsRXeq+QInUvDuZT1PaAJc0ogpucJjn3sMbQHueOdjWV9swCuzCcJaXH7lKzNGv22HUU5YZYKHsstwE9N4ZeQhMz5Z2cj05TlbBu1TVvZB+5n6ZT547Yt9zmTXVXBJyNfwHGeDtrAY99lsSRI8ruZ4PA4tLAIN6mx4aIRcozA0NMhgSQ+l/1u2rAHLV6xENptBx5nTGBkZIdvzeJwvoTB5OhNzlTdBvCmLGi+18whpvG2tWLGnCsf6X0Vb74mgc1hyeUol+Mgtv4cta3ZgcHAQR48enZK6cNWqVaivr8e+fftw5MgRlJWVldznbA149+xBO2DTfdF7PGjdoOW95BhB68mWp/cKChxBy3tjkzmMo5aHjByjBkOZMUZZR3afyaxF2feKcl156yPovglafjHvM19pAUsBXk+Y1FFPTx/zMNPfKB0SBwgVkyGQuZjQfvJD5VizZc9n4WjlJU0Yp5csaiN0B/zwoyI7UbauHz8+8DwGB2fnXZZdwHPVs604/tfjX8Zl23Yp4J1LWEwNSlcN08k5fVSULCJz2L2TDgQ/YlXAO1VKFzvweuOLap8p4J17F8078JLmmkll+A6Wfrctm0c1lsqAcJZs3XTJy9ovhQcxG5XGIOwdeGTkMw3B0UwhRXmO/3WYYEMkUxBJFh55ZD8GBgfwF1/5c4wRHeUCPDE7hr/6869g1y4FvH7Er4B3qpSiloefOZpeRgGvAt4LrRsFvHPvqnkF3lQqjb7ePtZWcznK2Ut5eSnZvYucVgNku1BwhLmZtVnOOiRAVNMIoJ3x6FrSjoUHs0gR6JlDvfAiaoNMzdu2bT0vufDcYgivBB2czc3NaGhoUBqvD7FGDTRK4/UxKXMUUcCrgFcBb2n7KDDwemaL2e4ASYPNZLLsbNzX14t8vgDbjjGo1tTWYXBwAOl0Fo65DMh1oawsiULBxeBA3/hdqKuZfJera+TUIryd2evZMODk8/zGHNlLGjKBNdM8a3j0sUfR2NSIEyeiv9v1poE09Ztvuglr1qxRwOtjbSrgVRqvj2VyURdRpuap06M03rmXa2DgraysxrJlTWhrO3EeMQaBY19vP7LZLAMlkWOQhmqZFnTdRE3TJiyvi6O6phajY1l0drSySbm3pwvneno4rpeu+3R7GSwthUTc5nAi0paFIxXgFgqw7BjSaZHHl4GX74I19mpuP3MG/WWVWN7UxGAc9WPqBj509RVYu2KFAl4fwlfAq4DXxzK5qIso4FXAG3SB+gLe66+/fjyWwrIIRIUTVCaTHu+PNOCB/gEMD48U72YFAxUdrDHbQqHgYOX6XRjqbUFFeSXODToY7W/h+tlclp2uOKZX12AllsNEFpblopCj+2ECZMH5zB7Q9Y04e7aTgdpzJSfz8+cefxSn2tuxbPcVGDJtDKYmxhdUMLLlLV3HXXsuw8blTQp4fQhRAa8CXh/L5KIuooBXAW/QBRoYeGfrgOJve3p6+f6VHKXILOzl0iWwJjYrx6yFnuvhEJpYrAyp1DDSmQwnsc/mcqiuqmZtOFOoQE93OyzThe5mGXgpLaCXKjBXzGrErFYFYXomdfjxzz+OU6fb0bDnKhwaGUNLb29QecxZ3iSz9wXiOu3/zLb0xQ9+AJesXqWAd05pKq/m6SKK+ouIjyk6r4i6450qEgW8CniD7iNfwEvhRGKzacjk44hbU7P3kLbb2XGWuZM5kT2Zi3VDeCyDaB2Nouey0GqTySSD78jwMDLZDN/Vkkm5qqoGdiyGsWwCw0O9sA0HtuUil82yds1gDrB2LNIGFthbupAns7aD3/jCE2g7fXregLcyHsenf+Jd+O6ho3ijo5P7nv4o4A22BKMGGuVcFWx+ZiqtgFcB74VWkbrjnXuP+QLeG2+80R0nrRDRt1Naps86TneIMB++dxXsO4RLnE+XSAuoBpmSXRfJsjJs3bod/X3ncOZMO3L5AidM4ENY1+DqdQByiNsaLr9sOzo6T6PjTLu4MyZiB01jIGauZwLiIsA/8RsEvHIab1NlBVZUVvK4hzNptPb2IceZkABD17Ghrhbr62rx6fe8G/1jY/jT53+El062nZfPSAHv3ItucgkFvFPlFbU8gs1W0bgkyeQl09diqKM0XqXxBl2nvoB38h3vTB0Q8FG2IQJGTpk3znpEyRI0vpflUKIiWUI8kYBtmaiursOWrZfijYOvMAATiJI3c0GvgaYVEDdd1NVVYHhoGOl0mk3X8XiCna1ICyYKyVQ6jWwmw8N64onPo+2MnMb78Sv34KO7djIT9Gg2gz9/7sd47kQLe09fsXoVfvW916A6mUTcMhn4W7p78Og/fwsD6an3yAp4gy3BqIFGabzB5kdpvHPLSwGvAt65V8nUEr6A97rrbnAp21A2b8MycudlHsplc+juPoeqqmoMDAxwHl0CxnxBpO0j3mV2MNY02LaNVSvXYGRkGJdcupPvaN9++yD6enuZ/pH06YJRC7g5WIYDHRnWlAlcKY43FouzpuulGmRT83/yNOdyOXzu8cfYuUrmjveWS7fh5u3bYBo6lldVYySTxm//+5Mos2185n3XojqZQM/ICBoqK3iMzx47gd976mmkKdXSpEcBb7AlqIBXabzBVszFV1oBrwLeoKvSF/Be894PuwlrlO9tly1rZM2zp6drnFmKwofojpfub0llbGpawWn/2NbsPWx6drBm7Xrs3LkH7e2nMNDfj/7+PqZ2JNBlD2XHhWNUCXO1m4GOHGvMRBYJzYKl52EYJt8bk7lZpBF0mOP50ccewcm2NingtQwDBJoEvB/acSm2NjXi6aPH8VO7d2JFVRW+9cZbePZ4C/bfdB0On+3GX7zwIrqGhpSpOeiKm1Z+MQBvKa8YlKZP9hAvZYxB66o73qkSk50zGetL0Lnyyke5z2TveGXfjeottn3mC3ivvvZ2t8weZmCtqKhkwJscSpRKpdDT3cN3vOIR2Vy8yRa/C2crcp5as3odTrefZMcqQflI9TyztMNgqhnlDLxuIUPsGAAswChHwkqBNGxqm8KQmMO5GN/70P4HpTXeyZMeN01c0tSIX732GiyvrsRzx1vwxz94nrXbK9asxqGuLvSPpc4DXWojqMZLjmZ+nqALa+L7jlwssww/sUwd2UPLj8xmKiMzRpmNLTs+VW9m7SkquUS5z2TXokw9tc+iWkH++vGVnehd197hlttDs7Y4MDCIgb4B/tYhmKQ8TVf87pFckDZLpmfCUfJi9niWvcUu+C40jvmFvRzI90BzswzE5FHtGpWoLneRI8cq0oBdwfNMTFnk8fzAA/fhZNspKY13MlCRI9W9H3gvNjQsw3PHWvDcsRM4MzSE3tEx/Pq178aTh4/hQFt7yV7Nhw8fZg9vP49s6is/bYdVRvZACKv/+WonatlHlRlKVl5RHuIeNazM2pJ5v6jnWmaMMrKQ/UIhMz7ZOlHKfqGtNr7y8V793o+6ZdbgefKkwY+NjqG/f4CdnujASI2NFcFW539zYgMyIVNaA05uQETLQis2bVswUhVBmO3LxdAiWCvhZjuhIQ/KPOTAgGZWImGmxL1xMb2b+Ele0Q72738IJ9vlTM0rq6uwuroalmng1u2XYPvKFXix5SSeOnIMn7zmKibjeP5EC37uyj0YSqXwp8/9CD9sPXVeirkgGq8C3uAmItlNXUq9KA8EGqcC3onZUsB7/spVwFvKbhZ1FwXwvuf9H3JjxvnZftjEfE5wLFOO2WSyHKdOtrBTFbNbFa2cIvmBeFnvIYrHK6/6CT5kXn7pBeZ01q1ywCGeZ3LKsvgnt/Gf5BgFR4NhVyJuknmZcvMK/uZ0aozBnbyeP/f453BKEnjvvHIP7th9OQxN43vetzvO4nef/D6yBQf3Xnctdq9eBfLNJmClIZ3q6cP+f/oX9KemxjQr4A22KdQ38fPlpYBXAe+FdpEC3mBnzEylFwXwXnf9DWTonTJ+Arrenj4mzaDHS+dHjlAEihqDpSDQmHg0UChRJp1ivuU9e65CR0c7Tre3iaxDRgXcQhqWQaQYeUr8x9oufwYNphVDXXUVg/HQ0JC4581mxnmh9z+8Txp4r9+yGR/YuomV7nPDI/j6K6+jfWCQNfDGinJ8bO8erK2rwebGBi5DmvD/fPpZZErwalYar9J4ZzoUFPAq4FXAWzq4ziVDmS8wYY3Kl6l5pjheAr7+voGi2ZivZifhK7FKeXe4jiijAZRgoXnTVhx8/QBrupWVlRgaHhKkG2RyNqsBN4OGumqMDAxiLJuBZRlYuXI1uro6WatNJCicyEWOCDeIyYpCi3I5NmE/tO8haeC1DB3k2UwPxSNn8oKFi79UAIiZJpZXVeKJW27CW52d7NXcMzp63jwojTfY0lQar9J45zogo/b+DbaCoy8tAxhqn02dp0Wh8c4EvH19/RgeHGYHIzYlMyuVYJUSkyw8mz2PZvpZXlGBZCKJ7nNd0Jn/StA9MluV40K3a6Ahh0JulO9zydS8uXktx/uebD2Ogwdf5TjgZDzBXtU54njO5jhuOF8olHTH62f7EE/zxvo6nOkfxEiW8guf/yjg9SPJyd/R5Lyug/VSWml1xztVfsq5qrT1VGptBbylSnCR3PHOCLy9/RgeHmZvY3pcSoCQ7yOuCwZekRZQaL2mabAXM2uPDNIJ6MgzsHqJ7amsbhE5RQGuQ17LBt+3GqYuiDn6xV0yeQFT29lMGoZpMdUka6mFPPY9vE86jtfvVI57aM9SQQGvX0kWrQkLkLox2AhFIocoH2VqnpC2cq46f+Up4C19Ny5ajZfud0dGRuFqZXCdUWh6EnCKplf2ThbaL/lTkW7LcbyU+o88kmGzt7LrkscyMWUIDmcYMUJQBmTORER1WYMWP6mNeCzOrFXi/ljjzEakddNh9eijj0h7NdM4yGnL8/8i0M8VPad5DMXkD55NnQ+EEpMkqDtedcc70xGigFcB74WgRQHvOxR4aeJ7zvVgdDQFV6+A7g7zPS7f1eoahw0RKJmG0HSJZcrTbAnByKwsOJ1FGS/frogmEhfCVJ7rcwgSJVuwWBu2DRMWmZZdlzmbRTYknc3OD5eg8a6rrcFV69eio38QCcvE7rWr8fVXD6KtfwAb6+pQGY8xfWTMMnn8/akxHODEEFMdyJTGG2xTqLun8+WlgFcBrwLeYOdI0NKLUuM1DZOBd3BoGI5WDt0ZIX7HcQ21qOaK/IBF5yQCWc/UzDfAQhVmb2Uqz17RXshRUcMlz2iO+9V06Ik1QKYDcZ2IrMpQ0NJIZ1IwTJPBmbTghx/ZL8VcRdruLdu34Y5dO5HO55GwLIxQzl8A337rMHto37H7MmQKec5URPfTo5ksnvjWt9E3psKJvEWvvokH3f4zl1fAq4BXAW84e2m2VhYd8JIjE2l8p0+fYcYol4DXHR0HXg9Evbhd0nYJaEmrJS1YJBU0oWt051v0Gy4CNHkoE7CR9urF/hJ4k/cy4mugZTtQUV7GIUwUtlSgJAyaxnHD5KS1T5IyksZ35bo1+Jm9u1Bh24jbFn9dSGWz+M7bh2HqBj66eydGMxnYJmUnAgbGUnj8mwS8U+OblcYbbMMojVdpvHOBjPJqnioh9QU32BkzU+lFAbw33XSzSxqlZVmsXZ453cHxs6yh6kR6MTIOomxGprvSYh5bNjUTmQYxV7HWS0nvDei6Mw7IZFIGhRIVhjm5PZmZyXwsEt6TmdmEZi+H5qYRN9MiQQLxPENjMKd7Xro7fvDB+6Wdq35i43oQiUZFMsGc03THS6Dwr2++hTdOd+Lu978Hbf392NrYBFPX8PrpTvzh089gJDPVu1kBb7BNoYBXAa8C3mB7RgFvMHktWuD95Cc/5Z49e5o9iM92diGVohy07PlEt6/QXMoeRI8BV7Nh6jmOrdVNA06BPhPOSeQdappWMduQqE7fZqkMzFqgMATXIdYrfdypiqGaQo2MOCdJoLSE9FhGgUE3TRqnBg4veuxz8sxVH9m5HT+9+3LEbZs1XdK4KXzou4eOYCidxocu247OoSFUxuP82cun2vDXLx4oGXjLysp8raLFAFBL9UCIMnyGFoMyNZ9vava1SUIopPZZCEKUbCLK6IFFofHeeuutLgml7VQbRkeIi9m7vtXYu5juQjnhAfMpJ+HmiRSDNFVK8ydMzPSilM5v/fpmvrft7T2HdWs3ci5eyqUreJqFJzOZm9ksTdoup/2jWF8bulnGWjeNxckRd7SLdIpSAxJ3cwEPP7xf2qv5th2X4NYdl7JDFzFX0ZVzVTyBJw8fQe9oCjHTwCXLG9FUVcl3vO0DA/gncr4aGJxChRlE4z1y5Aj8Aq8MqEmuf1VtmgSiTql2sQMviWcxAJTMQlb7TEZq4dQhS2ZUjxemFlV/0/vxxVx1++23u1TwxPEWZIumVS8DEefg9cJqvLtaccHLgCjs0cLDikCU0gpu27YDR46+hVw2g9HRsWJawElDK7YpTM4am6jpnpe8mU2rktMBuoVRdqyiJ5tOMXDv379PGnjLiZjDtlmbzZMG75JWbXByhHQuB0vXURaL8ZcC1kpcB4OZLMcUT34U8C7UUp6/fhXwzp9s52o5aoBXwDvXjMzf5wp4wdeoe/fuRSwWg3bHHXe4ZGY+fuwEM0WJh7IKESDqfIfrxdWOs1ZRQnvOsyu0Ybr3tUwLTctXoudcNzZv2YpTrS3o6+8bb48OOMJoCkciJy4vuxEVoPYJCA2rHHE7hlxuhNvPZrOspdK97EP7KB+vXHaisJaTAt6wJHnxtKOAd+HmQgHvwsk+6p4V8M4AvJR8/tjRY+PJ7om6kUzE8XgcjU0rOCsReStTrC0woanS/S3d9RKiEkGFcLbSRRgQJUJwPGpJp5jU3rsRdhnQRQZBF7lCnr2LydRsmAbfIUOnn5StSGQqoiQJJ9sU8Ea9YZZ6fwp4F26GFfAunOyj7lkB7yzAe+TIUXGfSfew7DjlsDnZti1OYOC4ZHYWFI7jF+XE5WwIkPXuYr0J5ftcJtcQpmkC6EKOyhGBhogL9tohKzbdEVsE+NmMIOEohiqx6dl18UgJd7xhLTKl8YYlyYunHQW8CzcXCngXTvZR96yAdwbgpYT3rS0nmamJNNfxfPZFs7OXONe7k+X73eIdrcBqQRvJf+MwIHKkIgcq4RhFoErPhHmZqTWKpucC8zITIHNoUtEJi03ZLt23ushkUnj8859Xpuaod8s7oD8FvAs3yQp4F072UfesgHca8N7+kdvdvr4+dHacHTf9Eiqy0xMnPSj+XgRK9mYeT98rfpnmfzXucDU5n6DIuys6L3bEJmS+Ixa3yoI5ipysNANjqTE2WXNIEnk1T2KuentoBC29vVGvHZDG+99uug6XrFmNwcFBHD0qrATeAbJq1SrU19dj3759UF7NkU+PVIcKeKXEFkolBbyhiHFRNKKAdxrwfvDGD7rtp88gm85MhBFM8mDmWNti+A+ZgEmABJjC8YoS2QvkzeazMHSTvZhZ+y3yNguBC9NykXdSxDKSdkwxvfQfiMFK8DSnxkZgmnTHnOG+iJeD7nofeewRtLWfhr1pC5556QC6enoiX3Axy8IfP3gvdm7ZrIA3cunPT4cKeOdHrn5aVcDrR0pLo4wC3mnAe9llO92Ux0lc1GRJ+xQp8oSplx7ONFSMHWKTc9GszDl6mQijmLGIfpK5usjjTJ97AC0Al1onr2kHy+obuZ9sLod0agzJsnJk0immiSTOaDJ9051vLBbH/Q/ci87Os/iXZ59Dd0/PghARxGwbX/6jP8Suyy5TwLs0zoNxQpcoXmeh4wujeMcgfSjgDSKtxV1WAe804G3euMllkGWbcZHrouj8JAC2SHZBAEsabkEALJl/hZm5yGtFZBhFbZeETJ7JwpHKsyyLe11ug3mdgUSyDGvWrkfHmXak0mPYuXMvzp07i2wmg5Wr1uDE8aMYGxvlUKXP3ns31q9fx3mCF+oh7WjHjh1obGxUwLtQkxByv0rjDVmgAZpTwBtAWIu8qALeacC7aeNmL7VQEUhFfK5I3yeQmH6SEjtOeFEkz9DZeYqAmBFV8DAX69LfTcvCli3bcOTwW0xJyakCmRhDdEkmZarT2LgcZ8+eQXl5BS7buRfV1dV47rnvY2hggO98yQR9zz13Y8PGDQp4F/kGvNiGr4B34WZEAe/CyT7qnhXwzgK8HlWk0EYFfDLhRVE7pRhbAcdkGhZ8x56PFaf9I6Am+sciAHNZ3RAEGPn8eKrAybl9vRSCdL9rGDq2br0UZzs7kEgkUVNTixMnjiGVGuV44nvu+SzOdp7B8A+fQ3lFxXhawigXEH2R+MgD+7B2y1al8UYp+HnsSwHvPAp3jqYV8C6c7KPuWQHvdFPzBjI1E8AKLBM3uSKPrsg3BNDd5t4rruZUfQSKrxx4EcMjQ3DywsmKFWNykpqkIVM7xEgliDIo3KjoiMW8zYJyku55GejJm1kDm5RZM2YNW5i5aQS2ZePe++9Be2sLPp40sFLXoE2jc4xiIbnk/HXHx1C+Zr0C3igEHkEfCngjEPIsXSjgXTjZR92zAt7pGm/zZpcBkHTZSQ5UNDGeYxUBb2NjEzZvuQTHjx/FyPAQ+gf6OHcuC5SxVIQDsbMVO2U5/Nmll16O/v4e5mM+2doizNa6JpisisBKYMv/Fuow/04HImnZpmWzB/RnPvPraD/Zio9X2Gh49SVkDx/yv3ZoTDTO4lgvWJHYtog5y4uRmlRYi8eh/dGXUL5jZ6jAG/UB5F9wC1NSllNXpl6UWVN4T9HVTERPlOsqyr5k5pktcMVojYjEf9F3IytHmXpR7rOosxNNX1eEZwcOHEAmk5myBggP9+zZwxZcbXPzFncyb7JIBygeL/MQ/U45bCmuNpfLithbwbPB2XxEOZF9iBPbM3gS65WNmpo6wc3sOjjd3sYOVyKNIGUmEnfCRDXJWjc5btFnpoFEIoGNGzYzOLedasHd93wGp06cYOCtP/Aicofe9L2wtUQS5Z/4ZWh1y+as46bTSH39a8ifaj2/LKUN/OO/QvmOy0MF3mxn1gUAACAASURBVCgX5ZwCuAgKyIKTzIEQ5YEseyDIAoZsPZklEOUalpVjlGOUkWHUdZbqPpN9L9n9Mr2er+xEm5o3c5AtK3jsrUxxuMLzuGhxZnCkO1hyjmJPZfZsLqYLJIYpPQ5NK8DJC1Amj2dyvGI2KqKNdFymg0yNjfHf2JRM6f6YQIO0X04+KEKSisBLNJRU17Zj/Pk9996NtpYWKeDVq6pR8+V/gN7QNPfaHhnB0OMPIfOj5xTwzi2teSkhe7DKAu+8vMQsjcqMMawDYb7ek8YnO0aZMcmuDwW8U6UtK0eZNSwzz7J1ZMcnu4blgLfo1SxudItOVcX7Xe/FueEiRaRIByjIMATIElga0Mi+XGSnEkozeUOLO1xhVhbMVQTI9Lv3iM8FqHO8LwExgBwDr87gS3G899z7WZw6cVwKeDViw9p6KfRkcjKZ1ozz6ubyyB89AmdkSAGv7Movsd5SPRDEthmnffMtpbAOBN8dBiyogDegwC6S4kt1n8nsMUYsyauIkoDXCxuiAXh3u5MHQ9qoppNnczFRgkYOUQKoC46LNavXYmR0iEG2t6+nGILkcTVTakHBvcwe0N7hI5BY8Ds7lCfXRZzMwmXl6Ok9xyBt2RYMTcd999+LUy2SpuZYDPEbb4FWVT0n8CKTQeaZ76HQdVYB7wIdEEv1QFDAG86Ckl0fSuNVGu+FVuACAG/RpXn8XteL1inG8nrMVUXNlwdPmilpryCnpSqsX12F5k3bcPr0KRx6+80iD7PwdmbPZtdl0zKzYrGdWoQmwdOgi5kZLr98L2pr6ziOl8KWyNPZskx89rN3o428miXuePXqGtT+7TehNa2Ye+ePjGD44buRfu4HCnjnlta8lJA9WGW/6c7LS8zSqMwYwzoQ5us9lcY7X5Kd33aX6j6T2WPRa7zNW1zPDOwRZHgbybukFuQZ5FBFuXGFxjsBoBaMeAO2bVyGVGoM7e0n2dtZeF8V74TH728F6HrOWN7dLt8JF/mdY5bNxBujIyMcjkSezWVlFbjnns+g9fgxKeDVbBv21T8BrZzif+dYzNkcsgdehNM7Axe0cq6a35Og2PpSPRCUxhvO8pFdH0rjVRrvRaPxNvMd7zgVxvhvkz2dCXgprMe2y5BODYnbYNcRJmnNAsxaaPlz405ZHJ7EDhcQuXo99ivdEM5VFLLjFGCaFjtUedSSEyb2CdMzlWECjVLueC0L9p4roRHxxlxPNo/s6wfgDPQrjXcuWc3T57IHq+w33Xl6jRmblRmj0njDAQwFvOHIUWYNX+x7LHqNd+Nm4dBcJMvwshF5A2HnJzIrGyZMQ8emTVvR2noc+XwOOdJsKSORXgXke4pcz8Iz2mOzMjRwsgP6m5eXlzMYcaL7oidzkdPZoXhe8oL2EjPoGgO+qRu457670d4q4niDhhORqbnmq/8MvdGfV/Pwo/cj/fwzCnij3C2T+lLAO1XwCnjDAQwFvOHIUQHvhfenv3CiolezSIbgsUVNbZjuaB27CUaum1RdNDQ0oaKiEi0njsBxDThaBXRHaIiaHgfcrOBtpvaKIUNefLBgxaKQJQHQIvZXhC9RTDD9JBMz/9swmKfZIuaq+z4rHU5ExBfJj34Mek3dnKZmN5NG6l+/gcKZ0wp4FfCGLgGZQ0sBbziAoYA3HDnKrOHQN9IFGpQdX1j7zBfwkqmZySsoRncG4PUG41rLoeW6yIcZVVU1fPfa398Lx9EBowIo9AtnK6MCmpNCPpcaNz3T38mJiszL7FLFOXipTxHHy3/zTNPkgFXUeInrmRihydR87733SDtXgcB742Zo5eVzz38uh/zxI3DGxhTwzi2teSmhNF6l8V5oYcmuDwW8CngvtK6iBd7mzS6DIJFieMQZxdF5A6G4WtdcBifXC9fNi8T1TMMoktiLNLuUCAHQrSpoTpoicfnfhP6k3XrczNQ0xeZ6yRRE0oVc8W+ivBcrTIDtZTO6/4H7cPrkSTlTMxFo/OXf+SPQGB3G8BMPI/1DRaAxL6jqo1HZg1X2m66PIYVWRGaMYR0Iob3EtIaUV/N8SXZ+212q+0xmj7G1Nso4XsrHS516zFXj2qY3iCK3Mn0+Ed8r7n1JI3VgQ3OJk9LlJAkOTLhOnpMe8P/z2K6YHUskRKCHteBix2Rappdm0OUPdZGkwXVRVlYOOxbHf/31X5HWeLVkGSrufgB6Q+OcK9lNjWHsL/8EuePHlMY7p7Tmp8BSPRDEclcEGqWuGtn1oTRepfFeNBovUUbSQhagWsymWwRdcUi4HEvr8TYLD2XiWBZlHS0BzU0X8/UKzZlZsKhcgZys9HF6SLqzpXtd4m0WDFbeIST6JtOzcMISDlbkjEV9x2I2PnvP3dIEGmzKjidEkoS5HmLYSqfIDq6Ady5ZzdPnsgerDKjN0yvM2qzMGMP6Jj6f7xolqMmujyjHOJ+yDqttWTnKrOGwxuy3HZkxhrXPfN3xbqIkCUVqx8n3rROTQvbjJAPw+rUrUV1di4MHD7AHs4jlpaxCDlxK08fxvsKsTP8QoUSkwIqUgK7VCL1wjtBZ5PqlsCJ26ppIuCCcqjzGK4s161g8hnvojleSucrvZM1Zbp7ieKlf2Umfc8zTCsgsyKB9lFo+yjFGJXdPJlEe/rJk8TLyl5WjTD2Z8Xnyl+lPZj2XMkaZ/mTqRDnGqOTunaVR9jd9n/kCXnKu8jyavckTYCgCjDhU1yhjT2RDzwmTMKfxI9YqDa7ZgEK6k7mayRFK3PcQ0QbF6ZoitKgYxwu9DJpLTkuiXQZ3nRyzhoSjFd0Fe5qw68KkECbLYg2Y7niluZpjcWiJBPRkGezdewVBRioFN5OBuWYtzPXNYkzZDJBKIfPyi3Bz2cg0XplNU0qdKDdcKeOMom6UGzTqu9AogVdmrqKUvcz4Sqmj9thU6UU511F+uaW3lALejRs2scFXaKUivMf71hCLJZDJpBh4OfYW4i5X3MUWEyqYy+Dm+qBrDpNhkLYq2KkIcIkuUid9mHP0khOV+Lx416UZgFkNN9tbJLoSCRWIHYvqmiZlJ7K5/H0P3CcdThS75lqU/cKnodXXQ1/WCKenG+7ZToz9/d/AvvJdsG+8VfQ/OIDCyRakvvGPgkSjv39qXt551HhL2eRB66pDYUJiUR4ICngX7jAOukdKLa/22MLN9aIA3g0bNrnjIUPT7lwpJR8B7obm7Thx/AgK+dQEQLIzlAO6CSUfKnaWKsbecmJ7Nhc7DLi6afJn9HdyyKKwIs5QxMBbBSfTw9otteZlKiJ4pjYIeOPxJD7zmV+TvuO1LtmO6t/+faBxOWu5/O2i9xyGf+sJ2HuvRPyX/ysQi/O9rnv6FArHjmDot55Aobu7SCtSXEQKeEs9jy66+gp4z5+SqEAjStlHvfCikmHU7yXbX5RzvSiAdyMxV03xtJzqZEUCI1Nvrmh6ZaenIq9ywbWgaSbgjLFHMzlPCdVbcC97GYfY1Ex3vhRaZNfBzQ3AyWeK3steQgYRZsTa9iQiDQL/smQS99z3WZw8LpcW0N65G4k7fhb2jbcA2TQKRw9zvt384bdR9ou/AmPnXnHvPDoCzbSQefLbGPrNJ4B8buo6U8Aru+8u2npRHghK4104LSjqBaiAd+HmetEB7/hdbFFmE4eScIIifBYxuMIxikKJdEoVWBgpJrMnZbKYd1c3RNpA0nQLeYoqYg1Yt+vhZHvIGF10sKL0gmTiFh7QfDhxfl/hVUxpAmOGgbvvo3y8cmkBzQ3NqLz/ERhXvAuwLLi9PRj5759D5sBLKP/FX0X8Fz4FN5NF/gdPwnrv9Uj92f/GyJf+z/mezQp4oz6/5r0/BbxK452PRaaAVwFvhqyrkx7Czr179yIWi0EjU/P0hUeEF57zk/hMFBHAPJ54CNBs1mR1NzN+d0uALLISMe0G39Xm8oJMg4E31sTACycrEgSa1cx6xQuVzNJUT08ATobveCkfL5mh773vHrRLpAWk/mPXvg/Jn/8k9NVroVGoUjaH3I+fR+bJ/4B91dWwP/RT4h1HRuB0n+WxD//B7yB78LWp4KuAdz7OqAVtUwGvAt75WIAKeBXwBgJePoh0yhqUm+pYNCn4f+KwEhmIPA9ocqQSACsIMWJ2jIEum0mjQPG7FD5k1qGQPgfXJTDWoMcagdy5cY9oDm1CjIHZNMnByoIdS+K+++9Fe8tRCeYqDXTHa27dBudkC/JtbTBWrYa5sRmF1hZolZVsYoamQ6+qQva1V2CuXY/C2U7kz7Qr56r5OJUuojYV8CrgnY/lqIBXAe8FgXfyHe+4psvcy6OAS9zKkx9x/1u0II+bl6mEANsJDmYKJSKvaPp7PpdjekkuZ9QhN3YWhTxpvDp0exncbLegm2RNm+k3ihmRDHbOiifKcf+D90sCb4jbSmm8IQrz4mhKAa8C3vlYiQp4FfD60ngn3++S+VdzR+EUciJoiJInkJl4UsgRgaQI/SHAFUIWiQ9EOfrPsmL0Fy7DhBvEkGXWAfkBZFLDMEyL61H4EAG0Z87mu17Shk0DpmFA1+N4cN+DON16RELjDXFbKeANUZgXR1MKeBXwzsdKVMCrgHdO4D0/nEhotZSBiICUwoCK+Ft0sBJ0j5MDhymciONzyfRc5H6m/L0cy2uYKBRyIhlCvBFOrh9OgVIHuoLdyqyEkx9GIS+AnszTXkAxcTVbdlLc8bYo4A3jkFCHwoQUFfAq4A1jT01vQ+0xBbxzmppJRFMWimYgZlt497uvxYkTR9HWdnJcip6rtiDbEE5XrAkXNV2P/5FYqCiBfT6bhWnbSKfTnMtXN2y4bgG5LDFDkfOVAdgrUEifYfMz/Y00ac6xYJqwLQu2ZeOBBx9AW6ucV3NoG0tpvKGJ8mJpSAGvAt75WIsKeBXwzqnxeiZeb7FoRjkStotr3/t+vPXWG2hvPynub8dz5noJBFx2fiLQ9UgzmACDUwEaSCSTyGUIcAWFJGnQmUwa+SKdJNVhrdlagXyqnR2sPLs1/U6maHLYIhKNBx96AO2trcrUHMIpoQ4FpfFeaBlFtT6i/NITwrYJ1ERUMgw0qAUsHOVcL4o4Xi+cyLvjFXzLOocHLV++Cp2dZ5AvFDMGOQ6H+DQ0NKK7+ywy6QzfwXIOI2Ki4utgQT1JL2/bcb67JY9mapfCh3LZTDExgoYscSNDZ1NzLt3LXM2ctajI+WwaFoO1bsSw/+F9aG85jI9aLgZ+8DSGT7ZGvoz0RAKXfumraNi5C4ODgzh69Oj4u9BgVq1ahfr6euzbtw9HjhxBWVlZ5GP002GUh0KUG07mvaIcn2cd8jNHYZRRXM1hSFGuDZm1KNdTdAlWvPHJvFuU+yxKohrBbzE1ItdXkoTz4ngJJMmhibXUPAzT4HhdxzVgWmW4au82BuS33z6IN15/BaZlF6kixX0u1SFtV6QOnMjhG4sn2NxM9JKkxdJNMAFvvphEgUzPlJeXwZtig3WdEySQmZnAef8jD+N06zEYT3+X43nz01mlZFdtgHpWPIG7//YfsWn3Hl/Am0xSVqel8chsNs/JLioJyAJNVOOLsh+Z+SplfFEerFG/WylyCVo36Lt5IBOVljcT0AR9x6VUfqb5CgC8XpgQQZ6GgpaEgTGhpZI3MhFlaCYMqxwV8SzqGjag71wrhgb7OU+vZ1r27nqFc5TIuWtwhqJiGsBCgR2tiAaSw4yY05loIl0OOcpms8jlKL5XZDkiACczM4UmPbTvITTU1+HEsWPj7UU9gUTk8ZO33Yo1a9Yq4PUhfMFyVnR591G+1CJLGXiDHsilyjJo/Sjn+WKXRVDZTS4f9N3EOSmuAaN4ljLwBpX9bPL2Dbzjk8aAZ8A1q6DnB9g9mQ4zZpjSLRh2NZzMObhWA/RCL4MrPTTxXlgRATEBJoUbMU8khwsVUHAL0DWDTccEpKQZu2TCNk3hIV30cKZyBHAE+MQPTffHFZVV+PwTn8fy5Y2YfmEdxWLz+qD3bG5uRkNDgwJeH4JXwOtDSD6LhHUo+OwucLGoDn4a2MUui8DCm1Qh6Lsp4C1F2lPrBpV9ycBrcCYhglf2M4ajV8Jwhtj7uKgLQ9Nt6GYShdwQ5+ClhPauQ9mGdBhkYp6Ud5f+RjzNpDHT38Udr4gzor/Tgcx3w8wS6SKXzcGOxVgD9u6H6UMC/XQmA+s/wfmJL/wGurrO4u///v+OO3mFJ3J/LZH2/Xu/9z+wY8cOBbw+RKaA14eQfBYJ61Dw2V3gYgp4A4tsxgpB51kBbzhyD/MLnS+NVzBXkeZKJgsO4oGjV0AvDEE3KKOQC1dLQHNSMMwYCvk0YDXBcHpQIFpJiDtbMiuT1iqSIhT4bwSqnBqQshl5XM/s8ayxVkvOVJ5mSx7MrC1rpCF7jloucvkCMv8ZivQbX3gC7e2nsXzF5aira4jMtDJ5Wknj3btnDZYvX6aA18d6V8DrQ0g+iwQ9kH02G1oxBbzhiDLoPCvgDUfukQPvZOcqmkTSRB03BtcZEyQWHGfbCC17lvMJcbxubDn0Qo8gvCDwZIpHQQnJ97VFBysyNbOHMjlTFbMNWqZIepBOj0GnHLxOAfQ34mj2tGa+MzbIfO3wna+Tz+PxJx7H6dNn0Lzp3ejqzqGra9C3xOnrhB0zUVNdDtLuZ3sI+IeHUhgdzfC4pz+WaeATd70LGzasUMDrQ/oKeH0IyWeRoAeyz2ZDK6aANxxRBp1nBbzhyH1BgNfjaCagpXAhwhzyMGbcJdA066AV+sbvdCnRgZsr/psy/zl0r0sarzApe1zOwvEqP55nlzTrZFk5TNMeDytynQJMO4ZMOsWaMd0B092u52Ql7nldPPEbn2eNt3nTNejsTONMx4BviVuWgdtu3Y29e9ZP4Zee3gCBLQH6l/7iGQwNpWYE3l/+pWuwcaMCXj/CV8DrR0r+ygQ9kP21Gl4pBbzhyDLoPCvgDUfuCwK8njo6kWmIvarY9MvJikgzLTishRJQjie5ZzOzCB3yFgwnuyftt8jvTA5YBKje3S2FCJEZmsqxVzMBO5UlPmfSl4mMo0CgL5y0KOSItOIvfvGLaD8tB7yJhI39D93GGvTrB9sEd/S0hxbwypW1WL++Hl/60jM4eqxTAe8kCQQ9EKiqAt6L71AIb0RTW1LAG45kg+4zBbzhyH2BgFcMnj3SixZWAlknT85VRPNoCK22aKZlkguX0vyJu2HWcOl3vud12ETNC4iAm8OFwMBK2iwV9titmPWK7oSLTlWURpAGkGE6SaFtp1Mp1n6/8MUv4LQk8CaTNh7Z/2G0tp7D1/7uBWSzgnt68kNa/67L1+H2j+zFl7/yHA4dPqOAVwFveLu6xJaCHsgldhe4ugLewCKbsULQeVbAG47cFwx4ORC7yEAlshAJRhQPJIUjlNBCvcXB8bmsFRPgigxE5JzFYUiUtah4nSpAGEwv6YE33fNSggTPpE2gnEiWsQma/jOtGN8fU8WR4WE8+tijaGtrkzI1e8Db0tKNv/na8xcE3p/66JUKeGdYy0EPBKXxhncghHkohDuqidYU8IYj2aD7TAFvOHIPc4/58mom5yoK8REAWrzTpdjbvEj3N85CVdRmRZg2abkCFL2AajIrsvaKJNz8GHSdNGKRo5e0YSpP5BnMhEWm5KL3MoUxEb6SCdqyY5w8IZ/LIhaLc0/MUKVpTKBx6tQpaeB99OEPY3AwhR88ewi53PmmZtJ4N25swu5da/GXf/Ws0ninreegB4IC3vAOhDAPhXBHpYA3bHkG3WcKeMObgaCyn61nX8Db3LyZMLBIgKHxfS6biIt3tN5PMjcL0BVkFwSmnHu3+PfNmy+hT3CspQu5zAAMrVAMJSKPZpH8gO6DyXlLmJeFtsxezy7dIwuWKl5I3Leoz/fJAB544F6cPFkK8H4E5eUxZDK5cc/mfJ44qMWXCLr/NU2KZwY7VylT89RlJbMo1R3vxXcohDeiqS0pjTccyQbdZwp4w5F7mF9ufQHvhg3NrjAnE7wJUzIBHrFL8R1u8d6X7lvXr9uAphXrMDg4hLfffGmcL5mSAdAdMDFMdfXmoDkjcJyUILoo/o8htgjUZHbmvL1FWkhisSInLAJmiuetSJZhNDWGTDYDOxZnszVlJypV4+3rH8H3v/82brppJxLxGP7pGy/hir0b0LyxAf/8jQNoaKzGu67ciL/6stJ4py/noAeC0njDOxDCPBTCHZXSeMOWZ9B9poA3vBkIKvuSNN6NGzYxZZXQOkWCe76qdVz2SiU4pqta8jResWIVGhqbUHATePPgC3CcvPBG5kBewm0NrlUPzRmGm08xmDKLFRNoTGRxYLM2VTEMxBNJdq6qq12GwYE+ZHNZxGNxTqhAd7z8TVrT8OCDpQEvOVedOzeEJ598E7fetgvJRAx///Uf4V1XNmNjcwP+8H9+B6tX1eGjd1wR2h2v3+xEYU14eEswnJb4i5cEh6xMHdkRMyXqtOwic7XlvVfQcXrXMnO1P9PnQcco00fUdYLKr9TxLUUZkkzUPjvfOicz1zJ1ZlqTvjTeTRs3u4K4gsI/hMOTxyjFwFuMzSXTb3V1DbI5F4mqNejteAuOK4CXB1w0DxO5hlYYFgQcjoum5SuYXzmeSGCgv59jdJnXWawYHjc5Vq1avRZ9fb3IU/iQS1VJ67ZY66YxPbTvwRI13o+grCyGdDoLCi+ixTqWyiBmU47gHP7fP/g2A2+YzlUKeOWI26PKtMLfL4tXJkEOdeGvILz1gz6yiRzCOhSCjnc+yyvgDUe6MnKUBWvZEdOZH3QNy2Y3k/2CG3R8JWm827Ze6l62cw9ef+1lNh3zl3/h3lzMrSvuew1d4zvYbN6AmVyJzNAJZLOCZMLTkl1Xg1m2ibirgGwXdDeNxqbl2L3rSrz88g/R399fBF2igsyPs10R0JNzVTKR5M8pfKjg5Bl4ycmLQP+RRx/GqVPyXs2PPvwRBt3XXjuFK67YCNs28PwLR7FlywrU1Zbh9//w3xXwyu6qWerJHAjUlALe8wUa1qEQ8hSX1Jzs+pDtdCnK0NN4g8pEAe/87TFfGu+tt9zuNm/agjcOvor29pMT3MpFAg2K1zUMC7FkNeCkEYuXY9euq9B26jDaTrVy6A9pzLSoHVeHntzMmjBRTNZVx7Bq1Rr+nMD0ZCuBdZoBnQG7GN9LGYqY1tEWuX0JlC3bFg5YdP8L4JFHH8GpEsOJznT04ZvfPICP/ezVKCuL40t/+TTe+55t2L59Ff70z5/GqpW1uOUnd+Ivv/wsDh/uOG9miDIyCHOV0niVxjt9ESmNd0IiCniDwuXM5WXkqIB3gYF396697vYdu3DwtQMYGxsV2mvxztcDVNI8jXgj9EI/7FgCyaqNqK/K4djRtxkks5kUa8q6GQPiGzjlH7KdSMZdlJeVY2CgH3XLGnDuXBfzO1MH7C3NjFcE7OZ47l3yaPY4J8m5isZDMb/7H9kn7dWciFv47GdvRkN9BVLpLN/vsql5LINYjNIU6vw78TiTd/Of/Nn3cfLkOQW8JZ4LMgeC0nhnFvpS1NZk14fsslyKMlQa78wAKjPXMnVmWou+NN4tm7e5pmVyInq6WyVKSC+Mh0BRfDPSoRs2LANwtDhyWgOQboHr5mFaNrKZNKcVpOxFeaOJ8hyhkO2EmxsWd7nFNIGiXZHFiLydyYRMaq9uUppAEzQOcvIS4UoFdugiLXjvFVfj9ttvw+uvvyYVx0sxus3NTdizaz2bmGd76B1OtHTj5QMtM5JsKI032JEne7AqU/P8fRsPNoPzW1p2fciOKqyDVbb/+aonI0el8c7fHvMFvJuat7gMgMUoXVI4GSA1HRpRRPKdrwbXo3w0q5Bx64DUETIUj2cYovIUkeTYa1mDjWn90J0RZAiUi85XBO7MakW5f4vOWOxNbZqcc5f+Iw9n8qSmn/RQtqTKqmo8+OD9OHz4sBTwMvbTPbWpF99yFq2Cvww442kJp5dSwBvs6JA5EJTGqzTeYKvMf2kFvBOyUsC70MC7aatL2iVNhBdVIRinJsg0SAMxrErkMwMwYzVsrjW1kfFQHwJUMtGSHmuWNUPTTCTtUSA/wEkOSOu1YnF2lCJTM6UN9LzcOMECA6zJscN0F+wlTRCaj8gTXIpzFZmQ2bysA+l0DhXlcYyMZtib2bZM1NaWYXgkg+rqBIaH0hgdo8QMZAafOjkKeP0fcrImMAW8CniDrTL/pRXwKuC90GoJa3340niJQMMgOsgiuYXn8MRkGpyVSCQ3oHhbAs2ck2QAM9xR1mTJzEzxuPTksg6QWAddtxDTB6EVBlnjJU2WgVzXkMuLe10KESIHKgJWzlTEnsyCypG/jXEOXxGmRD8f+xxxNbdLabxr1y7DB95/KYPviy8dx57d6/DMs4dx7NhZ7NmzETfduINDi6qryphWsrOzH9/81gH+ffKjgNf/IaeAd2ZZKeeqqYd/sBVVWumwDtbSRhF+bRnLktJ4F1jj3bB+o0uMUeRIRen63HHKRhHb68XoxmIxplPMaKthOD3QCkMMlJwukEkyyDEJcGPriBkDMbcPhiactQjEOT6YNGLbZoesQi7HIUSsDpN513GRSo+xadu7VxaxvhRfrHOSBFnKyB3bV+OmD17G8btnuwbZe/m1g2149ZVWbNu2ElddtZFBmR7ypP7+04fw5PfeYJO4Al75g0LmQFAar9J45VfchWsq4FUa70Wj8W4kykjOnyuGxEDKGirg0qWtB76cps9AwdqIuDGIfKaHwZSoIinLAYf+anG41iq4mg4j34m4mUXcjiGby2EsNcbaKyVCIC2aCAjI5Ey/c/+kDWezrB0T4ImcvPSfCDOicKKTJ09KabwrVtTgxht2oLIyjr6+MWzbtgLHT3TjheePYGBwFL/8S+9HRXmCv0jQl5Bnnj2Eb3/79fPmSGm8wY5EBbzny0tpvErjDbaL5i4ts8+UxrvAGu/G9RtdRPar0gAAIABJREFUAlSePLrnJXMvOVZ5OXaLZM2k0WqGjYK5DkbhHNw8kWGIDETCrGjAtZrgGhXQ4cAsnAbyGdjxuHCwKpqymR2rIDynyeRsWTZr23S/S6boRJxINPJIUWgTyFNa5Ox96KEH0draKgW869bV447br0R1VRJPff8t7N61Dt976g28+dYZLF9ejU/ceS2WLSsvxiIDTz31Fv79Pw4W8w1PTNBk4B0aGsLRo/9/e98BbldVpv3us0+9Nb23m0ogCRB6U0CwMCLiP6Ooo4IDCs7jUBNSEdQRh/FHRX4LivqPBdRxVH6xDaADUgKEmkISQkIgvd566t779/3WWbflJvecdc49t7A23Cf3nrPW2mt/e+317q+930aV95xn4Jo0aRJGjx6NxYsXY8OGDbB5vDaPt/vjbYHXAm/vUFpcCwu8XeU1KJirpk+bETB6WdJ7AsXPrArZq+AixbUcoipMry+86HQgswuhoFmAigFTUmEoXIPAHQ64NQiHfNRE9iGdYnlAVdtXs2ERrOkT1oFU9BtTwx0/YSKGDx8pn7+66RVk0um8D1gxbdxw43XYYqjxzpk9HhdddCJGj6rFU6s2Ycb0MXj4kbXYsHGn+H7POmsOUsmMlAukqXnjpl3481/WoqUlfURTcyaTEeBNJpUfmFr5jBkzEI/HLfDmpWayIVhTszU1Fwc7hbe2pmZrah4wpubp06YHjoAtp6SqE4l5Oe/fVIFOzMxloQQHXnwugtRr4uMlKLPiEKkm2c+JToYvwOuh2t0j4E2TsaQOeZ4qep8vvqAil1V0M4F3+vSZUo2IFZBefuk5AbSoaMOq/4033YithvV4x48bhpNOmi45vAyoGj9+ODZu2ok33zyAk0+ajoaGUVi1ajPq6xOSy7x+/XZks7mjRjXzhaKlpQU7d+4UrXfcuHGoq6uTqOxKabymwFb4VtU/LW0eb+lyHwwgU+n1ayqTSs+z9Lvf+wjW1Ny7jApp0dOaKiiqefasY6RUEDVXmnqJv/RzckAWqGcglJT2I8jCFeB1Uq8BXovy0+bSQqLBk3kkzwjXwwkySGCn+Ghzng8GZqXSaaF/VPhOv7DSsgnO/DAWj4tSPGz4CDQ3NyIccsXnm/EY/RzDDTdciy1bzHy8OqJanZo5xBLPpa6R82jPLVai7h5UpW9AZ1OzBgcteKXZB6AmXCzwFnKDe2pTSYAynaNJP1NzrMm5TDdj0yIJJnM07WNCTF/pDdlE/pUEwkrLw/Rem/Qb6M+Z2rcVvfBAPcTqy6jiTgf/Xr16tRQH6nxwzzjppJMED51ZBN58hRZJ4aHZWHy8ChQlxUdMxS6c8DAE7jA42TcxcuR4zJrVgBeffxrHzTsezz67CllnNEKRYQK80WCHlAUkGxW14VQyKbzOTFEioCv2Kjlb+zmpPXNSPF08GhWtlwFYrMl74003GAdXleum9QS8emwlr8oB71DfEEw25HLd597GGQwbAq9Bk9D0dj2dv6/0ujK5zxZ4i7mjR25rUhKzPGcubJTB8JyZA+/MOYFonVKU15FcXcnLlWBlZWam+ZTarhsdSa4qjKoPkPXjGDmsCuPGjcXzzz2NpqZGhBJT4ETqEQqyiPjbRZN0BLwZhMVzKGWXwVMdkdQKeAVsCbq+L1HQrMmbTLZJDjFfCBYvXmRsai7sNvfeygJv7zIqRwu7IZRDihZ4yyHFSr+IlGPOhY5hn7NCJXXkdqUDL/mYpfB8SEzCGixpdqaKnKU2Ha6Hn21E4KUxa/ZcqTy0Z89ONDU2YsuWVwV4ReN1cojl3kDOy8h4HIuHjnEVv68yOreXHqRJoaq6RsCebFfUkllEgeendnzTTdcb5/GWLl41ggXeckny6OPYDaE8crYab+lytMBbugxNRxjSGi99vATEnK/yaXXAFEGPRzQckehiJxRFKhdFkNkrQBiODoefa0YkX2ChtbUFoTg13jp6ghEN3kQ6zYhfxUzFcQngDLKi2qsLJohPmVHOEVYJikjdX2rFWalipG4ZgXrJkkXG9XhNb3z3fhZ4yyVJC7yVkKQF3tKlbIG3dBmajvCWAF4CHQGYebb0q/Jwwy7isSoxBAeBiyBUB8fbr0zQbgSpZKu0Y9F6lvrzwuPhO1VwnRyC1BaVE6zU2vw/KqpJwJ2BTa4rJBynnnYWEomE+InZh6ZtVajBQVVNLdLJJBYvWSTBVdNnnIGtWw9h584DpvfTuF8k4uKaqy/ArFmTD3P6Wx+vsVgP62g13vLI0gJv6XK0wFu6DE1HGNLAO3PmbOVgFXBV9mBVPYg+3hCisZgAoO87Qo7hZxTwCp66ISRbWwWs3UgCOXcCqTPg+yn4LRvbwVYFbTHWSvl6JZKYEVbMHfZ8RKMR1NTWormpCdVV1Tj2uOPR2taCgwcP4LTTzsb27a/jooveKXmz+w+EsHbtK+35s6Y31aQf5/m1r63EgvlzLfCaCLDAPhZ4CxRUL80s8JYuRwu8pcvQdIQhDbykjFSpQ6okXiQaR6yqDm3NB9rBl2ZgiXQOJZDNNomWyhxb8jpLKDX7R6qRxjiF3F4K6aZXxI9L0GXfdruxBFhR62UAFykpdak+R8zWLMawYMFCtLW1SmDV6FFjxNR85pkLJUrzD3/4k6pg1A8H57N8+VLMnWuBty/Fb4G3PNK1wFu6HC3wli5D0xGGNPDOnDG7PaqZG144EkOiZiTqa1w0NTWjpekQolGW1GOh+iq0teyDHyiQ1OZiEmH4iCKITKHFGUHqdWSSB/ParavYq/KUkbwJimYxhIaGGQLukyZPw6pVjysCDwD1w4bj5FPOxKaN67Fnz24xZV9//XU49ti5pvewLP24ECZPnoxRo0ZZjbcsEu15EAu85RGuBd7S5WiBt3QZmo4wpIGXGi8vUMDQrcXkKZMlrWfsmBF4bvUqyb0lwEbCESHTyGUzQLgOYTcj8uT31HrD0RogOhWsruumt8INKS7mTIb1dck4SWpJpRALy5XjIJGowrx5x2PNmhfQ1taGaCQivt4TTjgFzz//jGi+jU2NWLvmBanHSzrJhx7+i+l9LLkfXzZuuP46zJkz2wJvydI88gAWeMsjXAu8pcvRAm/pMjQdYUgDLykjpaSfT3NxHSJh/g64aBOUjMUTYlqmVkvgJMi6kXr4fouAKcFQcpn8MHLhSWKyrosegJdrEzAnMNN8HfpbaT/yL5NeUkzakSjmL1iIfXt3SSGETRvWyWeRaETOk0qmpBygsFshwJKlN2Pr1m14vakeY8aMVfV6K3xQNp94/+mYPm2CBd4+lL0F3vII1wJv6XK0wFu6DE1HGNLA25AHXqJdEK4Dgozk6ToghaSLqqqq9jJ9FGDg5xCEquFlWoQS0iXwsp4uwkC0QTTZancvAj8lQCvaMimyCNosI5j38TKAKxqLgizQTF1qbWmW+8OXAEZVu8wnVgWBBWRXrFguUc2p+Aw888oBbNq21/R+GveLR8P46R0fxcJ5DRZ4jaXYe0cLvL3LqJAWFngLkdLR21jgLV2GpiMMaeCd3jBDgquEjzk6DE44AT+5UyKVaSqWICoEEtikeDMdCXYCa+VSSyavMwLl440TeIEq7IKDrGi3UmxByKkUFSU1X44ltXdjccnb5cGqRSTOIOgSoMNuGCzeoGv3Ll+xXAg0UolZePjZ7Xhp43bT+2ncLxGL4I/fvgqnnDDDAq+xFHvvaIG3dxkV0sICbyFSssBbupT6ZoShDbyMambVIJYEjNYiCNUgSO9RmiwiUmlIa6LKV6sAUhgm+V++ji+cOLzoFDEMR703EA0rbipCNX3DXr72LtsTdOXIRzeTppLnI1VkKtnWntYkaUpSnMHBihVLxdRsArxV8SiOaRiDumpViOFoB98TduxpxKvb97VXaNLtBxLwck6VfBuvFKeurqVpcj6Tx78UGVaSM9jk2rqTtxcyhqk8TO+XSb9Ky72SRP2Vksdgec4qfa8LeUY6t6EcuxebOFp1IhZJYOlYh6bmzhcn9XJDjmi8TnQUQn5jvpSBOgGB1wsUy5XWZsXf6sTgR6cq03J2C0g2QQStiifQ1NosWix9uVSJBeTdENKpJFw30l6OkMDL4C19MUzfISCzwMJtt92Kra+bAe+H33MSvrzoUtRWRaVaEhmojnRDee61m3bi0s/eg70HW7rch74CXtMqIZVclJXaEIpd+KW2V9WpensdO/wsplq5yblKvcZi+pcCvCZrpJi5ldrW5Dmr9P0ykWGl52hyH0yreZk8Z/0tj4LKAk6ZPDXQAVLUYSXH1nHghqvELBx4KThBIP5W+nKZfyuLg+m62azSugR4E/BjU8TUnAh2IJdLCjgzSvnQoQPSj0xY9OmSu9nLZZDL5hCNx0Ur5meMgJaavXkTt6rZS19zCCtvWYEtW8xMzV/8l4tx3eXn4bs/exwbt+7Gpz54NhYcM/GIG25zawonXPIlbNnRlR3LAm9xj1x/PwCFzNYCb1cpWeA9fNVUch1b4O0q/yENvNqUwgXGGz98+EhEEyPQdGgfAq8NGdFC8wIJSCupAp8IiqIrkCDDrYcfGSs+29rIfuSybZg+fRYmT56GP//5jxKgRSBXhe89hN2I/CsR0TkCLoE3I/5fziOe0NHUnoAziStMgff2696HD75nId579bfw2vb9uOFj5+G2ay9GOEzqSmD/oVYcaGzFjCmjZf6tbWkB3s3b91uNV9/29gVQCJypNpXcsAqfVdeWFngt8Pa2diq5ji3wvkWAd+rUBvHx0rRMDTMRj+P889+NWKIaj/7lT2hqOoRsllWGXAFKvQiFPCMUypNhuAhi0xA4ETFT10b2SaGEt739HaLprn72SezevUuil/kGI+diwFY2KyxU5GyWcoDMCWaqUTiCcLQanhfAy7ZITd+VK1fg9dffMPLxEnj/+R/fjlu//ls8s3YbvnTdJTjjpAZJfdp3sAU33P5LvLRhO+5a8UGctXA6UumsBd5uu9FQ3RAs8FrgtcDbmwRK/96amlUxoJNPPllqzjtTpkwTkmYdQRZ2XcyYOQexRD02b1qPtrZD7bSOitJZqb7UTAmQYo5GCLnwZDghpg35SIR2C21kTW29UD+m0inpxvQj7ScmiMeiccyaMxfbtm1FbW2d/GzcuA7pVBqhSC1Cbhh+plEmTFOzaXAVgffmT70TyVQWG7fsQTQSwuyGsdi5pwm33vVb/PT3q5HJ5jBj8ijcc9tHsHDeZCx8/+1W4+30vFngLf1NfDBYAayp2ZqaS4fZw0ewwHsY8E5Ve2qe0pHpQeEwKxHVwnF8eJkmBbY6AIX8zMzHlQAp1uoNw2fWL8kzQlE4XjNcf498p9IZHCm0wNQiBlNxfH5O4J09+1jMmDkbW7duRnV1rTBZPf304wLWjluDcCQKL9MomvUtt6w0Tici8C6+6kJs3rYf19/+C+zZ34zbb3w/fvr/nsF/PLBKAq54UANefMUFuOnKC3DaP9xhgdcC7xH3IBPfkwXevtjSCx/TJLiq0vdsqL7gWuDtSeOVtB/FEJX3ziESHy5kGV5WEVvIwUAqlZSropOlwD3/DiGIT4VL4A0aEfYPqDxgJgI59OuqYKpUKinsVNFoNJ8XTJCP4NRTz8C+/Xuxbt3LaG1uRigcBkIxhN2o1PxlkQYSaJSi8V71wbNwxZIf4XePr5No7HEja7HvUCsyuXzpwrxP8saPnYclV7/LAq81NR91R7fA21U8Oj2lcBisfEsLvJWXuT6jBd5uwDtp0hShjAzTX0tIzXMqC/AGOfiZFvHNSnUix1El/ZjPGwT5AClffLGIT4UTisINqPHua69IxPQjREfD8RuRyyQRi8Wl6hC1y6nTZqC2rh4vvPCsBGLR1PzwQ78T+I9EEwjRhJ1LisJ9y+dWYtu2N418vF+69mJc9aGzcfu3/4A3dx084urj9V309nl473nzcer/+jds3mGDq7SwhuqbuPXxdn0crKnZmpr7Ap4t8HYD3okTJoqiKylFeYpG2YzCVfC9LKFPIpGp6dbW1+Hss8/Hc8+twqGDB3H+O96NN7ZtxfpX1iGITAbcGCJBM0LeXlUukBZsgjmjnb2DcIIsEtU1ojDT1MxiDPGqKrS0tAroxqJRMTtTQxbAZsqS58Hzsrjlc7cYA+8/feBM/NuNlyAaDcsLw9GOsBvC5tf34Z1X3Y3d+5u6NLXpRMU9kpWMBi1uZh2tLfBa4O1t7VRyHQ/VF1wLvIcB7yTBW63R6uIDITcqaT4MnSIAckFU19Rg+LARUsavsfEgGhpmira6Z/duBNHJCBwXEbTC9Q8otipqzzRHR8fC9RsRcjzEElWS35vNppHNZCXCSwVt+QKKXOTC8UzfcDQOxwmERnLx4kWKq9mAMrKuJoHjZ09AXXWst2dMtOs39zRizas7D2MkscDbq/i6NKjkhlXczCzwHkleVuO1Gq/ps3S0fhZ4uwHvtKnTAwY+CeKEtClZcTJTNdUEFgTekSNHCzCedvpZ2LVrJzZsWKvoHwMHXmSi1Ol1AwW8pF4UVZrkG+4IuGiB72eRiCfa6/MyP5iczPocjJB23DCSba0ynSgrFfksLxjgpsU34bXXzIC3XAvJAm9xkrTA27+beHF3S7W2wNu/98xqvF3lbxJL0d/7TmHMVVOmBTpKWflwyUxFM6+jeJI7mWZPXHgqhg0bLpHH06fPxNSpM/HUk4+isfEQgugkAGEEXiOc3AEBXKGeDEcFRH0/J+FbTFeKxuLKj+uSn7mDNINRzNn8S4COmlYVjXwsWrQIrxlqvCYbUE99LPAWJ8n+fgAKma01NVtTc2/rpJLr2ALvWwR4J06YFOhoPzJSadpIHZUsCCm+X2DUqNGSJrR33x6MHDkSI4aPxpYtr8J3EnAi1IZdAV5k9+WpJ1mNSFUYIqDzoOk6nqgSooxELIZMWkU7O2FSSlL7VRquVDHKsiKSYtNa1IOpmf7Y6kRUxm1NZpDzfVTFIsjkfMQirvxL1I/y96yH6ngUTsgRH3IynRXOZv7bfbFzM47Hwkilc2L+ro5FZAzO5VdfvxynHF/e6kQmD1tvm0W5vzeZYyU3LH29xZ7TVMMzeRPXGmW57005xytFHuWcR1+MZbKG+2IeRxvTZI7FrvlyXFOx5zQtNGHynBU7t3LIo/MYBWm806Y2BJrGUQgraNr16WtlHVwFljQ683PRiF1XIpI1vSSBKeQmgFCNgLKDDLwsc399aauAW9XZpdmYpmYGVrG0YFW8Cq3JVvmcaUZS/Yg2auHpCMRHrOr9eli0+KYulJH0wb5t4XTccMU7hBjj5Y078JuHXxQe5gceeQnnnDwLbcm0fDdp/HD891/X4brLzxegfe2N/fifpzfi/NPn4Ivf/gMONLW1y43XeuYJ03HVB8/Gd372GF7etANfvv59mD5pFHbta8KZJ0zC1EljyloW0HShmDykpouskucylYdpPxOZVFIeJvMrpU+xchwssij2uvQ+VIosi+1bSVmayKPSL4+VlEex9+pI7clTsXr1aqTT6S5NiI/t1YmOn3+8RE+RtAJSbxeiabJKkE9OKvIwa/DNBz9Ra3RDBGlPwNXLUaNVFV4IoCx0QDM16SCj0ZgUUaDflkQadXX1MmZLS7MEVhGACer8ndSUPHckGpX83nSKjFe+5PzevITBVR1FEtZt3olPXHwKbrrqXfjC3Q/i9kWX4p77H8OnLzsHK776AMaMqMWNn7wAsZiLb/7kUazZuANfX/FB/PNt92P9a7tw3Mzx+Py1F+PCK+7CG3sOtQsoFo3g9uvfh2s+fA6+9dNH8b9/8DAe+8mN+ONja1FXm8A7z2hATU1NWYG3lLfBci2WvhjHNLfTRB6mmprpHE3lNRg3EtNr7a2f6cbf27hH+t5kXXEs0/xf03kW289kDZs+L6b9TOZYrBx0+/5+xgrSeOfNOz4ggHo064qpmUULfOVrlQL1nqo+pF7/2osY8DP94BBy5Yao1yEpohAK1yKbblLaLgsq5Isk1NcPk2pH1JQZ+czv6Mdl0XthuiIjFk3Ovo9kW4tEW/OBWbL05sOB932n4ks3vh+rXtyCaRNH4svf+aMA8Ir//Rs8s+Z1PPjdf0Z9dRwXffqbmDJuGH7wbx/HMy9uwyNPbcCW7fuw8jMXHQa80yeOxK//z6exe18zxo+uwxVL/wM/+/pVUjihviaOqliA6upqC7wFPBWmD5vJBjkYNgT1CB09na0AsQ6ZJhZ4y3MrTZ4z0+fFtJ/JHE2l09/PWEHAe+zceUEmnVIm5BBNxcrESwBltSBqrdRi825eAUltdtY3QbFTKU3VZzCUA7jhajhBRrRfwnYkFhP/LVOSBHilSEJ+rDyw+576my8CbCvFE+gX/pvGfPPNi7ukE1Hj/fjFp2LFZy7Ctf/6c6xeu01eEJ64/yas/OoDGFZXhZuvulDoL//Pj/8Hm7buxp3LP4hPLf8xNmzdjeOPmYQv3XAJPnLD9/H6zgNibvb8AJ+57Bws+qcLxHS9YM5EfO/nj+OKvz8TL7+yHfNmj0d9dcgCb4FPhOnDZoG3QAEP8mYWeMtzA02eM1MANe1nMkdT6QwK4J133PyAwUbqbdyHQx8vUTbkCuhK6b98gBOBUcgv8gxXouCKX5cBS1nFrUzgZZBTTZ0UReDfShGmJuwKcxW1XFYiImBXVdeIdk3wp7bL36n5MrA6UV0l1JMcY9HiG7ukE63dvBOXnDsf//T3Z+FjS36IA41tGDmsGr+661P43i8exyXvOB479jRi/6EWnHXSDPz416uw+FPvRGNTG/Y3JvGnx9bhk39/hgRlHWpsw+I7fy1czl9b+r+YVYWVd/0W/3rtxYjFIpg+eRR++afnRaO/8fJzMGJ4vdV4C3gqTB82C7wFCHcINLHAW56baPKcmQKoaT+TOZpKZ9AAb8SNiJbblmoTbZPEFcr36uXJLrICvgThvMVZNFwxMdPkHAoJqFJbZbqQtBMTscoL5thCSxmJIBxS0cvs64YjYtrOptNoS7bJOAzwIm2l59P0HRHtOOdlsXTZ0sO4mhnVzMjkVIaRyQrcmfKTzbHeL0sWMpNYpTDxM0Y66/nz70iELw0qhTmZyUr7eJQc00A6k0MsGm4PJGP7RCyMB795JU5eMN0CbwFPhenDZoG3AOEOgSYWeMtzE02eM1MANe1nMkdT6QwK4D1mzrFB9G9FCKhlSloPfbVSHzfoVKg+JxHOVIQlAppBVkI25SvgZbSzaMkh4WEW03O+uD3/JoAzGIvgHY+RQMOR4KlsJq1yhgMH6UxKwD4Wj+eLKmQFAHmOnny8L23cbnpfjPv1VR6vCdDwIoZi0Aevy0Qeg2FDUC991serH0ALvMZbUZeOJqBm+ryY9jOZo6l0+vsZK8jHO6NhZpBIJAT0aO6lVipC4sbu+cLhTJOzCrKCmH3Z1g25UjyBNXkZjUywVWUClcZLAE0lk1JpyCUwhwnIDuLxOGiyJmOVmLjFH6zAmVHMZNHSgVr0A/N/asilUEaa3sDu/SzwFidJ04fNAm9xch6srS3wlufOmTxnpgBq2s9kjqbSGRTAO2f2MYGQW+SjiwmYDKoiCBPweBBYBSTF7Kt8uBKIlTcxM/WI/l2mEClbro9wNCZaM79jtDS/51EVTyjzclb5ciNsl09Xkq7C7xwglVEBX0R7AvnSZUuM6/Ga3kALvKVJzvRhs8BbmtwHS28LvOW5UybPmSmAmvYzmaOpdAYF8M6ff0JAYKUFjEQV1FypdUr6D1meRMNltHGe2CJv/uXFSfoRg60ItG5YVTii75acy44jZQO1BkvwjMYTSMSi4sdNp5LIZLKS28uNVs7JVCKHfthAfL4MrKJ5mgC9TIB3m1GRBNMbaIG3NMmZPmwWeEuT+2DpbYG3PHfK5DkzBVDTfiZzNJXOoADeWTNmqahmcdHSfCwIrNilsjlJB5KgJ2rFArIs00ftl/5dBZKaZIPaK/vR/CwpR24VAr9N/L8EVqYbxSIxYa+iX7mZxRDyRRAY5cyDY/CcuRw1X5VWRPP3kqVMJ+og0LA+Xuvj7fxgDoYNQSw61sfbftss8JpCS9d+JqBm+ryY9jOZo6l0+vsZK8jHO3vm7IAmXUYyp9MpMStz4hQwzcHyO4OmwpF8QYOsmIIZFCUFFRDId2yn6B3JtUywjAFONcD6vDQX+77yAYeYB1uDcCiEtlQKWc9VfM65NsXRnKeWJIBnxLeckzziZcuXiak5GZ+Bh5/ehpde3WF6X4z7kQf6j9+5GqecMNNGNRcgRdOHzWq8BQh3CDSxwFuem2jynJkCqGk/kzmaSmdQAO/cY44lsgroMcpY59dSy6SZmcUMCKYEQv2yTtOylOnNpxjRzOzSxyumZxJwsLhBBE6kHiG/UTy4DMaiVk0QJS0j46Jpbg6cuJibc5mWdn5mAjeBWvJ5Gej1tzFX3rICW1/fhg27IvjLX1fh0KEOmkfTG1Rsv3gsij/c/xWcetJ8C7wFCM/0YbPAW4Bwh0ATC7zluYkmz5kpgJr2M5mjqXQGCfAeFzD1RxiiRPNUwVMEXpqdk8mkyssliYYfSOCVLnogYMpigHmKR2q8klbEg77a8DAguz8fmazKAUajURmH4Cxg7lRJQQY/2yomZg4uRB3UkmnOzpNzLF+xQsD2nnv/Ay2trar4QoUP8knf95Mf4KSFJw4I4C12gRXbvlTxmj5sQxl4S5Wp7W8uAZN1ZeIeGAzPmSmAmvYb6KmP5qvq8J5UGJ999tkeiyScfPLJktnjXHzxB4JXX92ITDqtopQdR3JxJaIYgaQEUdjUaHPZLNKZtCqgoNXfQOVd6sII1GhJWJFjMJYThZdtle/p3yVQM2qafttsNqV4mF2mMuUQCjimLwUXOHGmIeUhXMZevnwZjjnmmMMuppwC620sXsesWbMwZkx5qxOZbgi9zben77kpvJUeAhMZ9VUfyXfXkf99dZLcC+tMAAAgAElEQVRBNK5ei8UAlenGT7FUUvYm5ewG0a0b0FPlfa60NaWzQIhfzzzzTI/Ae8oppyjg/fjHrgyeeOJR5YPNAyQ1UzEz57VSCa6Cii4mnaSQY+SLJ6gSgo6Ap2KzYulAVddXFSyiEKgVR0RTTvCkJOmg1ksPMU3c2az4f1VKE4O3POGM5nmVudkXH++JJ56oJq216n64/axDPHz48AGh8ZpcvgVeE6mVp09/bwjluYryjWICvKUAqAXe8t27gTxSfz9nBQHvokW3BDt3vImnnvqraJj0t6qC9B6yWfIpE0BVfi7BmRWF+MBwcKF+FI4L/uci5/nwcylJA2IZBAI5I59pupZavQ6ZrcKI0dwMsle5yKWzSGaSQqLBYK1shmQcisnKcVRfnmH5imV429vehi1btgjo9Qf48ryzZ8+2Gu9AfuoG8Nz6a90OVJFY4B2od2Zwz6u/n7OCgPcDl34o2LN3N/bs2qnyaCXCOSqaKwGPnzGtR8y/edIM0W5z9MfSB6vMzAHCcNw4vGyTpA4RdPlgUdOlBisab+AjFo3BJTuWrziUCbDK1KQoJyWQK/CFxYpzkRQnmppXLMO5556LtWvXYv369Whpaan46qAv+8Mf/jAaGhqsxltx6Q/+E/b3hjDQJGiBd6DdkaExn/5+zgoC3uPmzg8yuYyqFJCvIkTgpT82ITm1PlKZNJKppGiyNAerIgiOsFtR86QmHHJjgBuFl24W/VcOAd6wRDIrDdkVbZe+YuYCM5c3k80gHk+IOZkgT6IOAjfNz6pUIXmfc+3AS9B9+OGH8frrrxutEo7HerqjRo2Sf/lS0NzcjH379olN/mj+Jvq+ly9fjrlz51rgNZL+W7tTf28IA036FngH2h0ZGvPp7+esIOCdNXM2nbQKdIWfmdWJYgJ6AozpNFIs2ZevRKQ0UF+03Ay1UkYyi3Ybhg+aqJsRzef8CvNUnsNZqh7FYqiprhVfsKKSJF+zh3iiSs7LPGKCLyOjJdDKUylFjHLWGm8pwMsXitNOOw1/93d/h/Hjx4Mc1bwWas+vvPIKfv7zn2P79u2qHnEPhwXeofFg9tdV9PeG0F/XfaTzWuAdaHdkaMynv5+zgoB35oxZgTBQ5fNlmWMrQU3ZrAQyZbM5IdXQdJBsS41UeJjzwVQqnzcELwghl2lENBIVjZUpSZKi5CkfLyOaq6uqBexYq5fuW60d08QshB38T7TeDLIs1Zcn5liRNzWbAi+v5X3ve5+Abn19vWi21HCpsTNNiHPasWMHvve97+Gll17qMfLXAu/QeDD76yr6e0Por+u2wDvQJD+059Pfz1lBwDtj+qxAzLkEUcdFXV29BD2RSEObXTkQgYtm59bmJoRpis4XqOd3BEzm7TK4KpdpEyDr8O9yXIJbXKKdq+JVQjtJTZhlCCUq2qVvV6W5EJAVVaUqOciDoL106c14+9vfLv7dYk3NvD6Gcf/Lv/yLmJd57N27V0B22LBh+OQnPylz5sHgrTvuuAM7d+48bHVa4B3aD2xfX11/bwh9fX3Fjm813mIlZtsXIoH+fs4KAt7Zs44JqG0KeYUTQn1dvTBQ8aEgZSMPVgwKhWliDoRtikBKl7DQOhKgWVBBIqFpGqZ2TK3ZEZILVbOXAVthiVxOxOLiz2W/aCwhbek/9rIsBwgxLVOjZhlBCpAR1TRBL1+xHOedd64R8NbW1mLp0qXim9XR0Fu3bsWKFSvE1/vFL34RNTU1cq08/y9/+Uvcf//9h/l7LfAWsuxtmyNJoL83hIF2ZyzwDrQ7MjTm09/PWUHAO2fO3MBnhLLDeKkQEokqqUokICpFCtR3LFbPKGb6Xakd67QfRiKrpHYGQbGqEavoqihll+BLkow8cQBHSFRxfFfydMPRuJi4W1ubZTzpE1F+Xz6UApIBBKRXrCTwnmcEvCTeIMhS26UP98CBA9i1axe+//3vi9mZGi+/mzx5svz9wgsv4Mtf/jJSKeXb1ocF3qHxYPbXVfT3htBf132k81rgHWh3ZGjMp7+fs8KAd/bcgOAqWqwDSfch8NK/SsCNxRLybzpFxqq0BFMRJOn3pQbLH/p/W1uaRWNlfi6BUyWrBxKo1V6/1wGqqqrlO5qqmSdMYGaQFqOb+SDGGfDkeQJ6SrNWsV8k0GA6kYmp+ayzzhIzM4/vfOc7eOqpp+QFQft4aUYnqH7iE5+Qc1Ab/tznPifRzhZ4h8bDOBCuor83hIEgg85zsMA70O7I0JhPfz9nBQHvzBmz21mPGT0ciUYQCZNEg+CoAq2y6aQAIckzElXV4oP1ff6wnKDSjlURBXIwq38JxpwAA6z4u/5hmhK/J/CyD/OFo/G4aLWkp+RnPFT933yKU4g+3sXGPt5TTz0V119/vcyBZuQXX3xRQJcpSQTcKVOmiI/30ksvxQknnIDNmzfj1ltvRSs5oa3GOzSexgFwFf29IQwAEXSZggXegXZHhsZ8+vs5KxB4Z0kMldIu/byp2RVAYsoPeR8JrARUBkMphilVuF78svK7J35hRkATOFUakWK6ihB0I1GlPUt+MAO5PHhCNanM21KggecHZEyanzM5NTY70rS9fPlSY4136tSposGS6pGBYPzZtm0bvvCFL4AUkCtXrhQfL8GX1/bkk0/ia1/7mioIYYF3aDyNA+Aq+ntDGAAisMA70G7CEJxPfz9nBQLv7ICAywAogqKU6MtmBHi11ilg64QkCIqkGQRGSRPKF7EXvTQAUslWyc0loJI0g4fkAufI4azMzPybwNvW1ibR0yy+wPMHnvINMweY4za3toi2rOsClwK8BNRPfepT4iNWJnCItksyjNGjRwsA6+Aqavb33HMPHnnkkcOWZF/5eCtJf1kMIX05nslKn6/YOZvK3uS6SiH4L/a6BkN7ytBUjibXZ3qvTc5lcl0m59F9Kn2+YudqKnuT6+rv56yg6kQzmMcbQPEuh0KICZ2jny96wGjmiIqtknxaF9l0RlUfCmLIkkbZU75d8ftmMlJEge2ZOkSzsjY5O0GA6tq6dq2S2qQ2K0v6EP3C7JMn1ch5zPNVBRPC4aiYms891yydiDeCWu+NN96ISZMmCZgT+BlERf/uggUL2ksb/vnPf8YPf/jDw/y7XGjFAm9VVVWx67Oo9qaLuaiTlNjY5MEp8ZRFdTeVoUmFp0pvCJWUvcm5TOVhcq6iFkWnxqbrw/R8pv0qKROTOZrK0eQ508qVyTxN+nSXPTHraGUBqQg67elEniegqM2t1PyYYsR0H2q3KupYRStHw2Gk/ASy6Sa4IQJkvpyfRDuTlCIkIE0BkExD6CJDIQE35vOSQYrVjqhB8zsiNU3PDOpiX2rUJOegSZic0JGaqVi2+Aqc+/a3GQVXUZicCwH2sssuw4wZMwREO78tEohZyum+++7D7t27e5S/Bd7il6XdEDpkZgo0xUtd9aik7E3OZSoPk3OZypD9TEGjlHMW27fSMil2fqYyHPLAS58tgZFRyAygYtSyBEoxpYg+17QCXhY4EB8vauBnG+HlMu2lANmHFJP0CYcjYTFP01ws/VxFLRmPxcQMzeAmsmNJhHM0KnzM6lyKzYpmbo4NFl+IjceyRYw4NtN49SLhzSdhBqsc0exM8zIXLBmrHnzwwfagqyMtKgu8xT5uld38i5+d+aZqsiGYAo3JdVngNZXa4f1MQaN8M+h9JAu8HTIaFBrvqaecEUyZ2oCDB/ajpaUZba2tkksbI99yJi0mWTJLEQjFF5zPyc05I+BlDiCbbpHAKGq4uRyDsLKqshFNzvSnBoFol2SfqqquFc1XtNk0qxLli1NLO+brdhRd0NHSjhtGzh2DFTd9AuedVxrw6lujKzDRFMyXi2QyKdp1b5upBd7eN4DuLeyGYDXeI60a0xeRSq8pC7zFP/fde5jKsLc9uaeZDQrgPe3UM4OzzmZ+7Bps3fqa+DzzjBmiuaqKPaRyzNNisHgB1dLIWPiZ/chlWgSYiaL8mDm4vHCJVA6FpMCByg0OIZaoEgBW4ybFB6zzfanxssggI5j5OzVrjumEIvBCo/Ma79FNzTqaTecR6+AN/YDz784Pu76pnJP+jjeSn0vFJTJn5aOwVe6xKwFZJOTofnN1zjF914sXL8aGDRtgfbxW4+28MZgCjem2V0mAMjmXqTxMzmUqQ2tqLkVyXV86TUYassB72Yc+HuzYuR2TJk3Biy+ulrQgslOpxc2Sfx35uQqUVMBTKDYefvYAAi8tjFbaz0tzMSOkpaiC1PL1ha2KgEzgjeTr8zI1KcKoZicEiWdmgNffyu7RR8z0JFGapUwgEEQLMzUzX5f0kEwHOv7447Fnzx6JXq6rq8O0adNk3iNGjBA/Nl8o1qxZI7+Tx5la79ixY0XDf+211/Dcc8/huOOOw5w5cwREJ06cKGNdfvnlBdfjtcBrgdcC75G3Wwu8JlDUc59Kv4wUO3Or8aqaAyeffLJgjjNjxuyA/l1SRfLmaVBSNzJP26hK6+bBWBUz8MNj4KX2IvBVhR9+L0xUytAsJ5GfMKOkGaQVlr/p33WciJT9Q5CVNCKyVoXdMIJ8sQbxT7XX/M0iFB+PZYs/eVQfL/21n/3sZ6XcH4FzwoQJaGpqkkpDGzduBEGZDFZsx8Cx/fv34yc/+YkEXF1wwQViDucceW1kx2JK0ZVXXinAywAwXiPpJpkLTPC2Gm9hj57dEKyp2ZqaC3tWSmlln7NB5uOdPn0m6TNk1gRG1qgVgotOfMm8qfy7M6uUEx0HL90D8DLtiFzMIQeRiKr4I/m5zOsNfBXR7LJYQkxMyk0tTVKJiMFX4tfNM1dlWbKP45CGMlSHZUv++ajAyxcGci6z3q4ubM+Q7scee0zAlSUBqdUynYiVicjVzICqD33oQ1i4cGG7qZkAS035K1/5Cj7ykY8IgGszND8fN26caNAWeAvbJuyGYIHXAm9hz0oprQbic5ZlsRu6IY0jw1WJ2KIPqR2gMK3vD2KjjxCUK5JHQelE1HgFHIXGkVWEolLEgCZn5etUdXOpFSvTkKrg47tjgdx+eLmknExMzZ6ikQyHXImElohmoY9URBjkpmLUtBOuQTRMjuYmpDMZdS5hrwoJCNMvnE6lpPygYtDKYtlRmKs4NokwFi1aJCZlUj3SlPzGG29ITi6rEl1yySVybTRFUzAMpqJJmqo/CyRQC6ZpmABOYL7zzjvxj//4j5g5c6bMfd++fWhpaRFtl4UULPAWtqQH4obQeeamD6iJ78nUtFqYpA9vVUnZm5zLVB4m5zKVoTlolHLG4vtWWia9zZDzyQQpvO2a01Adr6kgEPY2s/J+n/VyWL3qGex/vBXxSKJw4J0165hAmYqV1sngKm4q9LMSSPUN1f8y11ZKArqj4WX2wcsqfmV+3x6sxKAqn9ptBImqGkkx4vji82QB+lwMVVUxeOlmcOIEO0VPychophi5ks4kZQXBtKIclq84epEEgipNw6effnp7ihDBkWbjX//616LVXnHFFQKgpInkvz/60Y8kp/f8888XEzIDozjHtWvXSuWij370o1KxiFYAXt/LL78spme2tcBb2AIeaBtC91lb4C3sPvbWyuQ+W+DtTaqFf28i/8JHL76lWEndLC763HnYlFiLDLrS7xY/4sDpEaQBr1F8r2je24YXf7sWE3Y0yAtGwRrvzJlzROMleMbjCQFBVfqPYJqPZmYkcz7gSmnwDvzwaIRyh5DJtEhbfiZaMU3WLBUopuaoaL2sPkQwrR82XNKOmls8qc/rBCkB1Vg8IWQdrc1NouWSRIPzIaMVx+QEV/QCvJz3NddcIxHH1Ezp36VWS4B84IEHcOGFF4r2Sm344MGD4uv94x//KL7eq6++WjRktlVR3AHuvfdeKcpADZe5vwR2jkvTM/+2wFvYgzDQNgQLvIXdt2JbmdxnC7zFSvnI7U3kX76z92xtIfC+9/MX4FfRH6EpONSXp6vs2C0OMtsVn1R2TxYtj3iYcfDY4oC3oWFmQOCMRFhBKCIAo32akg4kJmRPMUzlAVp+j4yBnzkA32M+rgrCotYqlI+5HKpravOMV/TVsjZvWMy8NCunc2EEHgOWGFzlqRxgz5eIZh4MuPICXxUpEKrKcK8aL83kY8aMkXnQl0vTMedObZUATL8sDwIrfcCcC6+D5xg1apT8zh+2JYhrcKapW71YQMYiSM+aNcsCb4FLfaBtCBZ4C7xxRTYzuc8WeIsU8lGam8i/fGcvDHgD30FIbaWD+vDbAmR3qVrxxsA7bdoM0isLYDKql5opTcw8JOdWgNeXggYqvSiHdCYHJzwKXmYPUVLINaSGb1axWBFIGUwlJmsCWd58XVtXDzfEPKGYkGV4ORURzR8N8Dy3aLksxBByJeCKLwBLl95sXBawXHe5WAIN+o7f6ofJhmBq/q2krE2ui/MbDNdmIkcrDxOpla+Pifz7ci1yPrlQpovG6+8NwTtkECxVPjGVZSQm5Ozf0YRMOge30UV4fQwzDx6LmkStjF9QkYSGhhkiCQIvNTqCC7VA/iiNl75exVilA8VyXoBQeBi8zEEEgfLv0iwtPl4yVeW5mJkyRO03EouDlBqsu8vAK0a7Ma+XKUz067LiEbVKnoPgzYmTH5pzYlnBluYmrLhlhdA80mf78MMPS05tpY9igJcpTLriUV/N0yTAp6/mcqRxTTaESpb1Umt38G8GPcm/0gw+xa6tznEhxfS166NnDbMYGWqFp6/Al/c266Txd7e9o93U7O8JIXdg8D9rjLR+dc0utDVnUJUOY+TukZjVeBxqq5RVtaCygDqqWeXYqlxWHpr9qSONiEFVKrdX193VYKlyfBmXrBJ+2Y7mYVYx0mZo3mD+zUpDWsMm4xXN0wzkopYbiaoUI+1fVkxYKsBrxYrlOPc8MmxZ4NUP2FAFXh2WX8xGYtp2qAKvqRnXVI4m/TTwFvviw/XRV4DR03UMxeeM8uvLFzMLvM+IW7PzwXVLsiYGMDuzZ8+V2GEeNO1KNaK8pssF127yFXYp5iwpYNTfqYdHfa5vJAGWZmkZJw/IDLhi8JZosjQhC8WkGj+dSkr1IxZLoJZLbZg80Yqv2ROT99JlS0sukmCyOXTuYzXe4iVY7KaqrC8qH64ShwXeSki553NY4C2f7It9zizwmsu+LBovo5r15kNgYSSy1l6pMoutnubiCDVh5YtVJBfKN6sfHmqsogEjQFV1DVJtbUIBScAloBNkqxJV0oeRzjnW42UKU1hp2Xw7aGttllQlRkYzn5d+Y7BMIBzx8erqRA899FC/mJoZeEauZuYF9xbVbE3N2gBSvGnJAq/5pqB7Wo23dBkOZcvSYAPeUdHRmF03FyHHlRTTg+l92NC8ToJwK32UBXhpatamGwILDw3E1GQRisLPJQUYtYlYRfl2cDnrogLkZWY5QIK3FD3wPERjir2K4KtYsXJSi5cEG0JK4pA4g3ANiWqOMira95HOZkhYKeZpUkouX75UgqtWrVolVI9kkar0wWjnu+66S5iwLPAWJv1i38StxluYXHtrZYG3NwkV/r01NRcuK92y3Kbmd4x7N2475SuIheLwAw9/3fkIVjx3A5KeInCq5FE24NWTrqqqbk+dUVpvGKFwNUJoxcSJk6Vs4O7du/JtOoBX+WSVn5dAKQXtyX4lgKryexnZnIix8lEgIC78zOGI5PBmM1n5nJp0RIDXQ1syKZoxc3oZcEXgPfvss7Fp0ybhYtYpPpUUODXziy66CFOmTLHAW6DgLfAWKKgyN7PAWz6BWuAtXpblBt4Lx12EL5x6J2IugdfHYzsewtLV1yHptRU/uRJ7lAV4VR5vTqgcmetKLTedVjmwLMkXchOoq4ngjDPOwaFDB7Bq1RNIJtsEJOmPVaZoRSdJjZc+XJ17S5OxsFxx/FhMTM0hyfNVZmlCN8dgBDWjo7X5WigpSVXJvrmsmKyXLl2CBQvmtwd/lSg7o+68RnI1k/nKaryFidACb2FyKncrC7zlk6gF3uJlWQngXSbAqzRe5dAq3q1V/JWx5EAZopqnT58lPl76dxlt5XkqclnTRSqKSEcIJxobD+WJNJTfV0c1a58vUVbXsBX2qjwIM3CKKUYqXSmGOFOWclnFEiVR0lnhaT751DOx+dVXsH/fPnmryZLUIpNBNB7D8uXLpExffx7czEghScINC7yF3QkLvIXJqdytLPCWT6IWeIuXZV8D7/P7nsa96+9GxldUlDuT27EztUPwpK+PQoCXZWVJ4tT5oEv3pJNOUlHN9PGSHENFNIcPq0qk/L2klFSBVmoRqqAqxWalop3Zn+X/+L0Ulqe/l/SP+QIK/Kymtk5MxzEGV+WySDF/11cVKFjk4Iwz34ZNmzZg/dqXkPPIIpURDZxsV8tXLMf8+fOFS7mSqQRacHxJ4PVa4C1uWVvgLU5e5WptgbdcklQFYAb6UexzNtiCqzqbmnkvcn4OGV8pbjx+uP5b+OHmbyMnltO+PXoDXt4L1gLovm4oc1pLJaaKUc3abNwRXCWZPJ1ShjRnsw684r8kvAjl+Zw7avUScKWIfb7UoPzusGSSooxUPMyKaIOVibRmXV1dg/nzT8Dzzz2DZLJVxMkALU6EpumVt6wU4NV5xn0r2sNH1+lTFniLk3yxGwJHt1HNxcm4p9YWeEuXoR7BAm/xsuxLjben2dyz7uv47sZvIBco1sW+PHoD3kLO7cyaNSfQhQHYgcCoD6FsFAhUgVRaM9Z+XZVepN4wJA3IgTBTMXCKvl4uWM0yw0AqmpoVO5XyCXcQcCiuZ1IsHjp0qFNVJPESyzgk0Jg/f14h19RnbaypuXjRWuAtXmbl6GGBtxxSVGNY4C1elhZ4jy4zZ9KkKVIkQW2QCmC1eTkcH4Vcal+7OVlpI6H2/F2Vcav4Z0mKQZCltqIpH6WIvRRQCImmqtKJOgou6M1BmbC1iUDlCpNAQ/flOKxOxKpAL7zwQvGroEw9eA0f/vCH0dDQYH28BcrUAm+BgipzMwu85ROoBd7iZVlp4P3l5p/gN9v+M0/K5GN3aicOZPb3ic+3LBrv2LHj895o5cvVPlv+Ho6NRC69vx2UO3+vtFylqeqqRgQm/qi8XgXkNDHrgxqtgHSeSpKatjbh0uTM79hPj6sXPNOUmE5EfmZWFpo4cWK/+Hl5be9973ttOlERz6EF3iKEVcamFnjLJ0wLvMXLstLAm/aSSOUURSMDrr63/uv4z233tTMnFn8FR+5RFuAdPXqsRDUrk676VwMfyTMCL1+qLw/KnQFXa7hSzCASkZlOnjwNBw7sRUtLq5QY7Kz1MppLkXUorZkBVvybpmdtlpaKRnnGLK0Jc3rLly8R4GXK065du8R5XemD13jddddh9uzZBWm8fV2dyATUKi0zkzn2JYds9+s3mZ9+BoqVZaWDAit9vmLloSxrxUehVnJ9mN7rYmVRavuBJkcNvJ3r8ZZSJKF7cNXR5JXx0rj75X/DT7f+sE+YrY4EvLo6USH30pk8eWqggU6V5mP0sg6i0kFV/Ff5cDVoatDlSagJVlfXIp1OwnFYVUj5iakJs4+qbgThauZnuvCC0nbVNGlq1qlInbmgdWQzTc3btr2O+vp6rFmzRkg0Kn3wReKOO+7AvHnzegXeDRs2iM96IB4mD2mlr6NSoGEqC9N+lboufb8qfb5Kr5OBej7T9VHp6+mr9SFxQN3LApZQnWigA+/MQx1lAQu5h87kydOULpsv66cCn7qakRWhhSpMr328KlK5w6+rg6i0RiuR0pFhcEM5pFMtohGTGYsgrcfTCc+dCy5wHPUmrOoA85ycz7JlNDVvtcBbyF3tpc1g2RTKcKl9NoSpDPtqo+uzCy1w4KF6XQVe/mHNTNeH6fkGWj9ev+dmu9bjrSDwfm/dN/DAG/8Jn//5Phq9JuTyOb+lyqonjZfAWx2vKXho0XiVSZf+WgW4ytybldzcBQtOFO1uzZoX0dra0l51iMQaOvdXm3406HIM+Z01e7PNcEPUZl1hx2JkNLVcrRVzpplMVgCZ/VKppGi/KkeYgV4qh44aL03N5dR4O0C+MHOX1XgLXldDvqHpxjpUAWqoXpfpQjZdH6bnG2j9+hN4CbZ7k7vRmD4oYkl7Kdzx4uexprE8gbllAd6pU6dLHq8OiCLQaR/vuHETMHr0GLS1teDVVze2M3EQVOnXJVhq8zDAKkQqwlmXBCTw+rkWhByWDGS9X/p8VdS01pw1IcfChaeIafbxx/8Hra2t7fnBnBv7LFumfLzlAF6Oxwjp008/Ha+88oqMW0gAhQXegfZ49998TDfWoQpQQ/W6TFeY6fowPd9A69efwNtdFqlcEtc9cSVW7X+8LGIqC/CSuUrX2FV1eGniVUCcSFSJ9klyi717dyObzQlgKrNySMzHiuwghFB8IpzcLkkwatckQ7XwvTaEkMv7gWvEdExtmge1Zmq2BPF5845HXd0wPP304wLwwhUtIK608CVLFpfF1MwxSeTBIClWO9q2bRs+//nPY+vWrb0GeljgLcu6HRKDmG6sQxWghup1mS5W0/Vher6B1s8C79HviDNlSkOgWar0w6NSehQAa2apzmk+BEyCpTYxh9wIItXTgfQ2AVMFmhBTM/wk6xNJ+5qamnzKkIpcJoiriOZA+CvFIZ/LiOmZgK8Wr9KQly5dLOBYisbL6yNl15VXXokLLrhAJEOtfe3atfjGN74BBkQd7YGxwDvQHu/+m4/pxjpUAWqoXpfpCiOf+/jx4yvGwpZMJrF7927hka/UvaAS9cYbb/RYKW6gAe/Spz+L5/c/qxQ5BGjzWo1Zrsqi8TY0zAgIfB0EFoqpRYMvAVLMw6yi61bBzzbmg6qo6aoo53AkilCiAX7ba6ipqUI6zSAslTZEAGd/grRKL1K+YWrPjqN8ywrIle+X89DpRTrFiWNQ4y0FeLV5maD7nve8Bzt37sQvfvELKTW4cDXoonAAABHCSURBVOFCrF+/HnfeeSe2bNlyRLOzBV7TbWjo9bPA2/WeVmqzHywrae7cuQKCTU1NfT5l7tdUHqi8HHPMMWhpaenVeleOSXE/JtgPHz78sOEGEvCyfu+mQ+vRkmWMEtCWa8Xd676Cjc3rjcRQFuAlZSTfXHgQBKnhanOzMvOqlB83HAXcGviZg6Il6gdNpRVFEa6aCmTewKRJU3DgwH5hnuI4BFTFjOUjHI4iFovC8wna5GtWAVQKpJVJWWnZLDlIIFaBXuy7aNGNAoomGi/nyvzfa6+9VszL+/fvx+23346XXnpJNOAlS5YI+HL8L37xi5Kq1NPGaoHXaJ0OyU4WeC3wHm1hs5IamfoeeuihPgdBrsU9e/bg+OOPx5w5c/Dkk08WFLNSyoPJc5Lel9fIF4zux0AC3u5za8o04vonr8JzB542EkFZgHfaNGq8Xp5xiiX6WLhAm3k7gNcJheG4NQhyjQKS1Fo1OBKUE3XT4afeFEDVOb8qf1dFJndENYeR86MIISUgz0OBvQ64UulE2k+s57JkySJj4KUv+iMf+Qg+9rGPYceOHbj77ruxevXqdq7oSZMm4ZprrsGZZ54pn996663CkNX9sMBrtE6HZCcLvBZ4CwXeQgI3S3lIuBb37t3bDrxPPPFEnwMv53vw4EGpFjfYgLc504Trnryyf4F3yhSdx6sikgnCKriqI72INzaAC8ethpc50B6hrFOAXBJlxCbCye5gleB2BiyCLccMR6pUn7ACZS+ICfDSlKzHoHlZzpP/URqwMnszGGvpUkY1m/l4+YJw3nnnCd3j/fffj1WrVnV5C+UcCb5XX321APO99957WC1FLjQLvKVsD0OrrwVeC7wWeAcP8LKMoC4h2Jxtwk1PfhrPH1Q+32KPsmi8jGpWKTvKH0vAVQQXyjysWKxoEaaPV2m8BEtduk2RaEQQRMciSG+XcoAaTFWwVA6h+DhEwmHE3Rbkcj48ROEiKWPoogral6yFoMzUZMByJBL65psXYetWM1Mzx+Sc+HZG/0dPb6AEX13EgRzSPR0WeItdokO3vQVeC7wWeAcH8JJC8oevfBOvNyu2w6yfw7MHnsbB7H6jDapswNsRzUziCmq7qlKQCrJSeb1+4CASGwYvczCv8bIYggqMYuBVOD4OyO2FG66C6/jIZqnRKjOyE5+AqnAS8Zjqk8o6cPy29oIJmp+ZGrAqS8jSgfQRKyIOzmfJkpuNNV4j6fbQyQJvuSQ5+MexwGuB1wLv4ABe5vHe8ORVeHr/k3LLqPn67dX4it+LygK8DQ2zAhJfaBMvgVf5ZJWvVQVaEXwduNFaeJlDApj8ISgqPmYhcWbiD5zISIRDaaSTzQLKBFEnOg5xtxWRiPo7yyIIPhmpNNAqzVhvZgpsVcqRBm9LGVn8AjlSD1PQKN8MBv9IJjIcypG/Q/naTFZr5+Aq6+P9EZqCQ6hUkYTu92tAEmg0NMwMNKGFfnhUgXoCLzVW+l6p+fJyGMFMukeVSqQLJajKQioyORQdJdqsl1MaLT8PxcbBDRoRCZMwg2OrNCRVCSn/DtKtUokGfR3VXGo6kcnD071PX2m8+kWmHHPsbQxtxeitXefvdTpYsZurvofFnIttiz1PseOXo30l71k55juUxjAFskpWNWI6kY5qLnS+DAKlS6zzwb1YZ50c7UW6mOCqzq5CPSbnyDibYg4dXDV69OjDuombsZ+KJBwOvG155qonirm8I7YtS1nAY445LtBC13SRslCcGBCuQy65S0y9mklKabnKZKxTgDpydEOAWy+kGYGf7thAw6Ph+IcQjSjWq45KYLoUoY6EVpq0zufVhRd4E2+44Tps2fJaj+lEbMdF25H/2yEz/R0Xb2ctRb88cGEf6SDQxmIxMDmd2ndfAW8lNwSdslXMCtTWjWL6yOtU3mJSbL/BALyVvGfFym+ot9fWuWKvs5L37Nhjj5W8WqYTFQK83FOZCjRt2rQuL54E1Oeee66LRbD7dRcT1cx9b8qUKZgwYUKX8zA1iPS5nTNaepPvQAVeL8hh1c7HsLbxZdmDsn4Wv3/zAWxPbuvtkgr6vizAO2fOsVIWUJt6GdAk5uUgCicyHF5yB3xfmXx5EaoqUUfKj+ZqVubhAG50OAKvFYHPwgeujOu5o+Cn9v6t1IHK2+28kXd+GDSoE9CpGfPQi/bmm2/qkk7EnFvm4I4bN04YYhYsWCCpQMzRZVI358rPucBo9vnrX/8qKUJvvvmmAOn5558vkcvMedMUmTwfA7C0hvfud79b2j344IN4/PHHMWLECFx//fXygHR/iNULQyBvp4sXLxYWrELLAlZyQ7DAW9Cz1WujSt6zXifzFmsw2IGXIEteAQZxkpeeSgNrfI8ZM0YUi84H9ypmWpBP/khkHIUCL/fXqVOnyj7WeW/i3sW5EORZ65wBqFQ4+MPPjxRsOlCBt7/q8dZW1RX8JDqzZh0TaGpIbiannXa2aHb/8+ifkU7TF6uIMJS/lmZAaryK3EJrk5p1SjRKx4WXy+apJpma5EtUs5fag6ALgOs5KiBWh/b5qr+0SZrnWblyRZfgKgLv2LFj8YEPfEBIMbRP+qmnnsJPf/pT+ez973+/LGqCIb8nMD/wwAM4+eSTcemll6KxsVHIMtra2vCb3/xG8tIuv/xyYWLhnGbMmCHX+dWvflX6nHrqqWI+omnFAm/va8xqvL3LyLYoXgKDHXhZoOWMM84Q9jyS+HBPOffcc2Wv4h5EAOQ1EiCZI8v999lnn5X2PR2FAi/39VNOOUXOQxCnlsu+5K7nnsfzUGHYt2+fKC0EaXLZb9++vUcSEAu8GVSlwxi5eyRmNR4HI+DlDaivH4YLLng39u7dg0cffVjedKjFKkDsAEhtAlbaLv29CoQlDSlwkct2kGNwoYQT45FL7kEQ6FxdBapKi+76u67RS82Yh9aoP//5W2URdGau4psjSTG4aLkIuHieeeYZ3HPPPbjsssvwrne9SxYZTT58s/zVr36Fxx57TLTjK664Aj/4wQ8wc+ZM6UeNmD98y+M5qfkuXbpUNOh///d/F9YrtuObIv03Fnh73zAt8PYuI9uieAkMBeA955xzBNBo3qVZeuLEiQJ8r776KjZt2iS/0+xMCkjuYZs3bxattydin0KAl3slNWoqEzx4bo7HvrQaNjQ0iAuRYEyrIPc/np9tyMfcUzDhQAJeWRNQ5V1F411zB+7b+n/h58vKFr/KjtyjLKZmaryKx3g4WAZw/vwTsHr1Kqxfv1bOrEy9KrJZpQ8RbFV0MheE4mJWPMzajMlgLZqK26sexccgl9wL31PUlD3dxM6XqUCeFZA6GLJuu+1zXYCXGu/8+fNx8803i8lZU1Ny4VBDPfHEE8HFzb/5RkcA/fa3vy0L6aMf/aiwvNx3332i4f73f/+3aMI6iIEL8LTTTsNnPvMZfOtb3wKZYBYtWiSgz0IPfFAs8Pa+lC3w9i4j26J4CQwV4KUGy32M2i/3r40bNwrAajIh7kPUPLmX8ZrJx8z23ffPQoCXWjXH4Z5NBYbgqoOpeG7uoQR5HvyeY9IXPFiA97XGjdja8pqAL8ky/rDtV3h0z1/A2rzlPsoCvDNnzgkIKO94x3va6+s2Nh4SM+wzzzyJpiamD9HvyzQjVcqPBz8LuVUIOTTjkjQjIpovAVoVN9DVjTw4oQi8nCoHqBaNejNRQK1yhZV226FVs5qR1rL5b3eNlwTdBM9Pf/rTYpKhb4ImYAItTc2stcvFxGvjWx79vuRnPnDgAD772c+Kj4Xgybc9+nrJaPW73/1O3vTo16UJ+/e//z3+67/+SzR5Au9JJ50kv/PN0QJv78vZAm/vMrItipfAUAFeuvi493Av4u89ASvdaTQP81i3bl3JwEuQ5d5J4O0M4DR/MxaGwMw58aAyxbaDQeO9d/3d+P6mb7ZXHPICD/zpi6MswDthwuTgkkv+HiNHdiW6PtTUit//7ldobWnMA62qMKQPMTG7tQhyTQLYvGE695bBV5p2UgFsnoQjXwVJk3KodCIV2cw2CtD1eZgnrEzZPO/nPncLtm17vd3UzDc/ap7/8A//IGYTAi5NIzTZEHhZdYj+ES40+kz4O00jP/vZz+Rvvt0RYDk2zT0cjwufvmEC7AsvvCCmZwY3cE7kceZD8M53vlPM0xZ4e1/SFnh7l5FtUbwEhgrwdk4dovbLGJTuKT1UBPiiz4NKQ08BVoVovDyXTvuhuZoBVJ0P7pM0N3P/7CBU8gcN8N6z7uv47sZvGJf6K2YVlgV4x4wZF1x44UWora3DiBEjBQhZXWjP/hY89uif4GUZdRcVYNUBTMoMHJKo55DPogmKTEOlJXVN29HmZw2qOo9UpfEozVeVJVQ1fJXmq/KEdb4ZAZjBVd19vJ39tzwPzSl8S9NRefyeGirf4Pg5/2YgFRc356xM5SwM0ZG/pq+ze/qRfgO84447MG/ePAu8BaxUC7wFCMk2KVoCQxF4qTwwbUhb/wpJQdKCKwR4jyRkrUBwP6RpmT+DBXi1T5fX9t11dw0u4B02bHhA4cfjVbjsso+Lpnr//f9XtFkvm4YDanxMIWLhe5UyEwrxdxehqgaEMvQHeHkQU7dXbbjKNN1RZlClEnVeUFrzpbar88c4F3WuULvpm78vX76si8bLaORKHzaPtziJW+AtTl62dWESGIrAS+WA2qxWBBjtfKQ0nu5SMgVeKhm03vFfHlRc+KMP7s8D0dRMwD2Q3IdNTRvag6fo0/3tjgcEi/r6KIvGO2zYCJZBwKRJU3Hhhe/Ba69twuNP/BXhxEQE2YPwsi0ChJ1zd93YCLhIA7HJ7cCrTMIqKEr5bVVpQQWqyu+rgFdxQWstVxdm0ClLKmJa/UQiqhgD265cudwCbxlWVGcLRKHDWQKNwyVl83gLXT3lbzfYgZdxJ3RddWep0pIi4DL7gm6uQg5T4GUGB+Nk+G9PB/dkBlcNtHQiRio/sfMv+MILS5HylD867aeQ9nsublOIDItpUxbgHTVqTEDwGz58JKqqqrFz53ahh0yMOAG5lleBgNSPCggJvhJUFR0JFykE0QlAaisch1qwKgHIRaCCqFRENM3HWsvVFZD05q8LMmgfsCLXUJSUch4BYRVw1d3HazXeYpZKR1sLvGZy697LAm955GgyymAHXq6dI4Gdlgc14M7BT0eTkynwanfb0dYy3XBHYvfrr3QiAu9jOx7C0tXXIem1mSyhkvqUBXhHjhwljlble1U+Vxa2jw87Dl7bFjiBeovQQU5Mr3XjY+H6zUB4NHLJN0UzpbmCN1KzQClNVgdVKUpI9bdOS2LbXF4bpkmaHM4drFadfQ8quGqlvH11zuMtSXoGna2puTihWVNzcfKyrQuTwGAH3sKusvBWpsBb+Bl6bmmBtwQCjdGjx0k9Xp3+o3yrUcSGHQs/uQ1OwDcvRXKhNVCXJQCzBxG4CSDXLExWWktVlY3cdgDWFYZ466gJd6Zn1Jquap/rouXqmr4K9EO45RYyVyngpf+DUciVPgi8JNMod3BVJQn3dXBbMbKzpubDpVXJe1bMvXortC0m8KizPCpppTApkmB6794KwHtc/QJ8YNpliIQi4tfdeGgdfrHtPmR9xQ1RyaMsGu+o0RMCEltos7Dkz4YiiNbOBjLb4UuVIQ26ijzDdePCu0zA1iZmtahVeT9FpqH8uZqukWPw945Uoo5ShNr8qQOqtD9YUVEq0g4CLx39BO5HHnlECDEqfdA89P3vf18S0cuZTlSp6yjUdHWk+RRbvKDU8xUjl2LnpsceDNpTMXLor7YmoGYq+/66xkLPy+viy3mx1YkKHb97u7cC8JrKpi/6Hakeb02ituDTOaPHTGwHXvYSH2s4hmj1JHip7fA9T7TZjgIGqkCC8uequr0EX4ISQTWdTuV9ugp4eWjiDX4/btxE7NmzCzNnzsErr6xRNJN5sg221Vo1NV6ScijgdbBixTLJv/35z38u+WyV3NS1NHmNP/7xj8sOvP1xLQWvkEHScKgD70BeIx2598UtlkoDbyVlaIG3vGUBi1tZfdv6SMBbHa8p+MT/H/dp6NdigXvsAAAAAElFTkSuQmCC;shadow=1;" vertex="1" parent="1">
                    <mxGeometry x="330" y="120" width="478" height="520" as="geometry"/>
                </mxCell>
                <mxCell id="3" value="" style="whiteSpace=wrap;html=1;shadow=1;fillColor=none;strokeColor=#FF0000;strokeWidth=3;" vertex="1" parent="1">
                    <mxGeometry x="369" y="564" width="50" height="45" as="geometry"/>
                </mxCell>
            </root>
        </mxGraphModel>
    </diagram>
</mxfile>